<svg width="321" height="149" viewBox="0 0 321 149" fill="none" xmlns="http://www.w3.org/2000/svg">
<path d="M18.8713 148.498H2.16196C1.74553 148.498 0.131836 148.498 0.131836 146.312L0.392107 3.94393C0.392107 3.52749 0.392119 1.91382 2.42223 1.91382H35.7369C41.8793 1.91382 47.6573 3.42339 52.8627 6.44253C58.0681 9.46167 62.1804 13.4178 65.1995 18.6232C68.3748 23.6725 69.8844 29.4505 69.8844 35.9052C69.8844 40.1736 69.2077 43.8695 67.9584 47.305C66.7091 50.7406 65.1995 53.6036 63.4297 55.946C62.753 56.883 61.9201 57.7159 60.9832 58.5487C59.2133 60.0583 58.7969 62.661 60.3064 64.587C64.9913 70.6253 68.1145 77.6006 68.1145 85.4087L68.2707 146.52C68.2707 148.446 66.605 148.707 66.0844 148.707H49.4792C49.0628 148.707 47.4491 148.707 47.4491 146.781V85.2005C47.4491 81.0882 45.9395 77.5485 43.0765 74.5294C40.2135 71.5102 36.6218 70.0006 32.4054 70.0006H25.274C22.9316 70.0006 21.1617 71.7705 21.1617 74.1129L21.0055 146.468C20.9535 146.833 20.6932 148.498 18.8713 148.498ZM35.7369 22.4232H25.1699C22.8274 22.4232 21.0576 24.193 21.0576 26.5354V45.1708C21.0576 47.5133 22.8274 49.2831 25.1699 49.2831H35.7369C39.2766 49.2831 42.2957 47.9297 45.0546 45.327C47.8135 42.7243 49.323 39.4449 49.323 35.749C49.323 32.2093 47.9696 29.034 45.3669 26.4313C42.608 23.7766 39.4327 22.4232 35.7369 22.4232Z" fill="#18226C"/>
<path d="M220.062 148.498H203.457C202.885 148.498 201.427 148.498 201.427 146.312V112.269C201.427 108.417 198.408 105.137 194.556 105.137H180.449C178.107 105.137 178.263 103.471 178.263 102.951L178.419 86.5018C178.419 86.0854 178.263 84.4717 180.449 84.4717H242.81C243.383 84.4717 244.996 84.4717 245.152 85.9812C245.152 86.2415 245.152 86.6579 245.152 86.9182V102.795C245.152 104.565 243.487 104.981 243.122 104.981H228.86C225.008 104.981 221.988 108.417 221.988 112.112L222.145 146.156C222.093 148.498 220.583 148.498 220.062 148.498Z" fill="#FFAC17"/>
<path d="M288.719 70.6773C282.941 70.6773 277.476 69.1677 272.687 66.1486C267.898 63.1295 263.941 59.1733 260.922 54.2282C258.059 49.2831 256.55 43.8174 256.55 37.7791L256.706 33.0942C256.706 27.0559 258.216 21.5902 261.078 16.8013C263.941 11.8561 267.793 8.05616 272.739 5.03702C277.684 2.01788 282.993 0.508301 288.771 0.508301C294.81 0.508301 300.171 2.01788 304.804 4.88085C309.593 7.74383 313.445 11.752 316.308 16.6451C319.171 21.5902 320.681 26.8998 320.681 32.938L320.837 37.6229C320.837 43.505 319.327 49.0228 316.464 53.9159C313.601 58.861 309.593 62.9733 304.804 65.8363C299.963 69.1677 294.601 70.6773 288.719 70.6773ZM288.719 51.0529C291.999 51.0529 294.862 49.6995 297.36 47.0968C299.807 44.3379 301.056 41.3188 301.056 38.0393L300.9 33.3545C300.9 29.8148 299.807 26.6395 297.464 24.1929C295.122 21.7464 292.259 20.4971 288.719 20.4971C285.284 20.4971 282.421 21.7464 280.078 24.1929C277.632 26.6395 276.539 29.6586 276.539 33.3545V38.0393C276.539 41.579 277.788 44.5982 280.078 47.2009C282.421 49.6995 285.284 51.0529 288.719 51.0529Z" fill="#FFAC17"/>
<path d="M288.719 148.759C282.941 148.759 277.476 147.249 272.687 144.23C267.898 141.211 263.941 137.255 260.922 132.31C258.059 127.364 256.55 121.899 256.55 115.86L256.706 108.469C256.706 102.43 258.216 96.9647 261.078 92.1758C263.941 87.2306 267.793 83.4307 272.739 80.4115C277.684 77.3924 282.993 75.8828 288.771 75.8828C294.81 75.8828 300.171 77.3924 304.804 80.2554C309.593 83.1183 313.445 87.1265 316.308 92.0196C319.171 96.9647 320.681 102.274 320.681 108.313L320.837 115.704C320.837 121.586 319.327 127.052 316.464 131.997C313.601 136.942 309.593 141.055 304.804 143.918C299.963 147.249 294.601 148.759 288.719 148.759ZM288.719 129.186C291.999 129.186 294.862 127.833 297.36 125.23C299.807 122.471 301.056 119.452 301.056 116.173L300.9 108.781C300.9 105.241 299.807 102.066 297.464 99.6195C295.122 97.173 292.259 95.9237 288.719 95.9237C285.284 95.9237 282.421 97.173 280.078 99.6195C277.632 102.066 276.539 105.085 276.539 108.781V116.173C276.539 119.712 277.788 122.732 280.078 125.334C282.421 127.781 285.284 129.186 288.719 129.186Z" fill="#FFAC17"/>
<path d="M134.431 64.8993H81.804C79.6178 64.8993 79.7739 63.2336 79.7739 62.7131L79.9301 3.94393C79.9301 3.52749 79.7739 1.91382 81.9602 1.91382H134.327C136.513 1.91382 136.357 3.57955 136.357 4.10009V13.6781C136.357 15.3438 134.691 15.7082 134.327 15.7082H104.708C102.365 15.7082 100.596 17.478 100.596 19.8204V20.4972C100.596 22.8396 102.365 24.6094 104.708 24.6094H134.327C136.669 24.6094 136.357 26.2752 136.357 26.6395L136.513 36.5298C136.513 36.9463 136.513 38.5599 134.483 38.5599H104.604C102.261 38.5599 100.492 40.3298 100.492 42.6722V43.7654C100.492 46.1078 102.261 47.8776 104.604 47.8776H134.483C136.513 47.8776 136.513 49.5434 136.513 50.0639V62.8172C136.461 63.3898 136.461 64.8993 134.431 64.8993Z" fill="#18226C"/>
<path d="M166.861 148.758H151.453C149.735 148.758 148.434 147.04 148.434 145.582L148.59 53.2904C148.59 53.0302 149.318 50.2192 151.453 50.2192H165.976C168.839 50.2192 168.839 53.0302 168.839 53.2904L168.995 145.582C168.943 147.04 167.694 148.758 166.861 148.758Z" fill="#475DBA"/>
<path d="M166.184 31.3239H150.62C150.1 31.3239 148.382 30.491 148.382 29.1897L148.538 4.3078C148.538 3.89137 149.267 2.17358 151.401 2.17358H165.924C167.954 2.17358 168.787 3.7352 168.787 4.3078L168.943 29.1897C169.099 29.6061 167.694 31.3239 166.184 31.3239Z" fill="#475DBA"/>
<path d="M211.836 78.5894C205.798 78.5894 200.176 77.6524 194.97 75.5703C189.921 73.5402 185.809 70.8854 182.79 67.606C179.771 64.3266 178.261 60.6307 178.261 56.6226V52.9267C178.261 52.5103 178.261 51.0007 180.447 51.0007H196.896C198.822 51.1569 198.926 52.5103 198.926 52.9267V56.6226C198.926 58.965 200.176 60.9951 202.622 62.765C205.069 64.4307 208.088 65.3677 211.68 65.3677C215.271 65.3677 218.239 64.5348 220.841 62.765C223.288 60.9951 224.537 58.913 224.537 56.6226C224.537 54.0199 221.778 51.6774 216.313 49.6473C215.376 49.2309 214.282 48.8144 212.773 48.398C211.419 47.8254 209.754 47.3049 207.724 46.6282C205.798 45.9515 203.872 45.2748 202.102 44.7022C200.332 44.0255 198.562 43.3488 196.74 42.7762C190.442 40.4337 185.757 37.5707 182.738 34.0311C179.719 30.4914 178.209 26.4832 178.209 22.1107C178.209 17.9984 179.719 14.4587 182.894 11.1272C186.069 7.84783 190.025 5.34923 195.074 3.47528C200.124 1.54928 205.642 0.612305 211.524 0.612305C217.562 0.612305 223.184 1.54928 228.233 3.47528C233.282 5.40129 237.394 8.00399 240.309 11.2834C243.329 14.5628 244.994 18.1545 244.994 22.1107V28.5654C244.994 29.2421 245.151 30.0749 244.578 30.5955C244.005 31.1681 243.225 31.4284 242.912 31.4284H226.463C226.047 31.4284 224.433 31.2722 224.433 29.6585L224.277 22.1107C224.277 19.508 223.028 17.4258 220.581 15.9683C218.134 14.3025 215.115 13.6258 211.68 13.6258C208.14 13.6258 205.121 14.4587 202.622 16.2285C200.176 17.8943 198.926 19.9244 198.926 22.2668C198.926 24.6093 199.759 26.6394 201.269 28.3051C202.935 29.9708 205.798 31.4804 210.014 32.8338C210.43 32.99 211.524 33.4064 213.189 33.927C214.855 34.4996 216.625 35.1763 218.551 35.853C220.581 36.5297 222.403 37.1023 224.017 37.779C225.682 38.3516 226.619 38.6118 226.88 38.7159C232.501 40.7461 237.03 43.2446 240.309 46.1076C243.589 49.1268 245.359 52.6664 245.359 56.9349C245.359 61.0472 243.849 64.8992 240.83 68.1786C237.811 71.458 233.699 74.0607 228.649 75.9867C223.6 77.6524 217.978 78.5894 211.836 78.5894Z" fill="#475DBA"/>
<path d="M107.676 148.498C101.638 148.498 96.0157 147.561 90.8102 145.479C85.761 143.449 81.6488 140.794 78.6296 137.514C75.6105 134.235 74.1009 130.539 74.1009 126.531V122.887C74.1009 122.471 74.1009 120.961 76.2872 120.961H92.7363C94.6623 121.117 94.7664 122.471 94.7664 122.887V126.583C94.7664 128.925 96.0157 130.956 98.4622 132.725C100.909 134.391 103.928 135.328 107.52 135.328C111.111 135.328 114.078 134.495 116.681 132.725C119.128 130.956 120.377 128.873 120.377 126.583C120.377 123.98 117.618 121.638 112.152 119.608C111.215 119.191 110.122 118.775 108.613 118.358C107.259 117.786 105.594 117.265 103.564 116.589C101.638 115.912 99.7115 115.235 97.9417 114.663C96.1719 113.986 94.402 113.309 92.5801 112.737C86.2815 110.394 81.5967 107.531 78.5775 103.992C75.5584 100.452 74.0488 96.4437 74.0488 92.0711C74.0488 87.9588 75.5584 84.4192 78.7337 81.0877C81.909 77.8083 85.8651 75.3097 90.9144 73.4357C95.9636 71.5097 101.481 70.5728 107.363 70.5728C113.402 70.5728 119.024 71.5097 124.073 73.4357C129.122 75.3617 133.234 77.9644 136.149 81.2439C139.169 84.5233 140.834 88.115 140.834 92.0711V98.5258C140.834 99.2025 140.99 100.035 140.418 100.556C139.845 101.129 139.064 101.389 138.752 101.389H122.303C121.887 101.389 120.273 101.233 120.273 99.619L120.117 92.0711C120.117 89.4684 118.867 87.3862 116.421 85.9287C113.974 84.263 110.955 83.5863 107.52 83.5863C103.98 83.5863 100.961 84.4192 98.4622 86.189C96.0157 87.8547 94.7664 89.8848 94.7664 92.2273C94.7664 94.5697 95.5993 96.5998 97.1088 98.2656C98.7746 99.9313 101.638 101.441 105.854 102.794C106.27 102.95 107.363 103.367 109.029 103.887C110.695 104.46 112.465 105.137 114.391 105.813C116.421 106.49 118.243 107.063 119.856 107.739C121.522 108.312 122.459 108.572 122.719 108.676C128.341 110.707 132.87 113.205 136.149 116.068C139.429 119.087 141.199 122.627 141.199 126.895C141.199 131.008 139.689 134.86 136.67 138.139C133.651 141.418 129.539 144.021 124.489 145.947C119.492 147.509 113.87 148.498 107.676 148.498Z" fill="#475DBA"/>
</svg>
