<svg width="321" height="149" viewBox="0 0 321 149" fill="none" xmlns="http://www.w3.org/2000/svg">
<path d="M219.926 148.732H203.32C202.748 148.732 201.29 148.732 201.29 146.546V112.502C201.29 108.65 198.271 105.371 194.419 105.371H180.312C177.97 105.371 178.126 103.705 178.126 103.185L178.282 86.7357C178.282 86.3192 178.126 84.7056 180.312 84.7056H242.673C243.246 84.7056 244.86 84.7056 245.016 86.2151C245.016 86.4754 245.016 86.8918 245.016 87.1521V103.029C245.016 104.798 243.35 105.215 242.986 105.215H228.723C224.871 105.215 221.852 108.65 221.852 112.346L222.008 146.39C221.956 148.732 220.498 148.732 219.926 148.732Z" fill="#FFAC17"/>
<path d="M288.585 70.9107C282.807 70.9107 277.341 69.4012 272.552 66.382C267.763 63.3629 263.807 59.4068 260.788 54.4616C257.925 49.5165 256.415 44.0508 256.415 38.0125L256.571 33.3276C256.571 27.2893 258.081 21.8236 260.944 17.0347C263.807 12.0895 267.659 8.28956 272.604 5.27042C277.549 2.25128 282.859 0.741699 288.637 0.741699C294.675 0.741699 300.037 2.25127 304.669 5.11425C309.458 7.97723 313.31 11.9854 316.173 16.8785C319.036 21.8236 320.546 27.1332 320.546 33.1715L320.702 37.8563C320.702 43.7384 319.192 49.2562 316.329 54.1493C313.466 59.0944 309.458 63.2067 304.669 66.0697C299.828 69.4012 294.467 70.9107 288.585 70.9107ZM288.585 51.2863C291.864 51.2863 294.727 49.9329 297.226 47.3302C299.672 44.5713 300.921 41.5522 300.921 38.2728L300.765 33.5879C300.765 30.0482 299.672 26.8729 297.33 24.4263C294.987 21.9798 292.124 20.7305 288.585 20.7305C285.149 20.7305 282.286 21.9798 279.944 24.4263C277.497 26.8729 276.404 29.892 276.404 33.5879V38.2728C276.404 41.8124 277.653 44.8316 279.944 47.4343C282.286 49.9329 285.149 51.2863 288.585 51.2863Z" fill="#FFAC17"/>
<path d="M134.297 65.1328H81.6702C79.4839 65.1328 79.6401 63.467 79.6401 62.9465L79.7963 4.17733C79.7963 3.76089 79.6401 2.14722 81.8264 2.14722H134.141C136.327 2.14722 136.171 3.81295 136.171 4.33349V13.9115C136.171 15.5772 134.505 15.9416 134.141 15.9416H104.522C102.18 15.9416 100.41 17.7114 100.41 20.0538V20.7306C100.41 23.073 102.18 24.8428 104.522 24.8428H134.141C136.483 24.8428 136.171 26.5086 136.171 26.8729L136.327 36.7632C136.327 37.1797 136.327 38.7934 134.297 38.7934H104.418C102.075 38.7934 100.306 40.5632 100.306 42.9056V43.9988C100.306 46.3412 102.075 48.111 104.418 48.111H134.297C136.327 48.111 136.327 49.7768 136.327 50.2973V63.0506C136.327 63.6232 136.327 65.1328 134.297 65.1328Z" fill="#18226C"/>
<path d="M166.724 148.991H151.316C149.598 148.991 148.297 147.274 148.297 145.816L148.453 53.5241C148.453 53.2638 149.182 50.4529 151.316 50.4529H165.839C168.702 50.4529 168.702 53.2638 168.702 53.5241L168.858 145.816C168.806 147.274 167.557 148.991 166.724 148.991Z" fill="#475DBA"/>
<path d="M166.048 31.5576H150.483C149.963 31.5576 148.245 30.7247 148.245 29.4233L148.401 4.54144C148.401 4.12501 149.13 2.40723 151.264 2.40723H165.787C167.817 2.40723 168.65 3.96885 168.65 4.54144L168.807 29.4233C168.963 29.8398 167.557 31.5576 166.048 31.5576Z" fill="#475DBA"/>
<path d="M211.699 78.8226C205.661 78.8226 200.039 77.8856 194.834 75.8035C189.785 73.7733 185.672 71.1186 182.653 67.8392C179.634 64.5597 178.124 60.8639 178.124 56.8557V53.1599C178.124 52.7435 178.124 51.2339 180.311 51.2339H196.76C198.686 51.39 198.79 52.7435 198.79 53.1599V56.8557C198.79 59.1982 200.039 61.2283 202.486 62.9981C204.932 64.6639 207.951 65.6008 211.543 65.6008C215.135 65.6008 218.102 64.768 220.705 62.9981C223.151 61.2283 224.4 59.1461 224.4 56.8557C224.4 54.253 221.642 51.9106 216.176 49.8805C215.239 49.464 214.146 49.0476 212.636 48.6312C211.283 48.0586 209.617 47.538 207.587 46.8613C205.661 46.1846 203.735 45.5079 201.965 44.9353C200.195 44.2586 198.425 43.5819 196.604 43.0093C190.305 40.6669 185.62 37.8039 182.601 34.2642C179.582 30.7245 178.072 26.7164 178.072 22.3438C178.072 18.2315 179.582 14.6919 182.757 11.3604C185.932 8.08099 189.889 5.58239 194.938 3.70844C199.987 1.78243 205.505 0.845459 211.387 0.845459C217.425 0.845459 223.047 1.78243 228.096 3.70844C233.146 5.63444 237.258 8.23715 240.173 11.5166C243.192 14.796 244.858 18.3877 244.858 22.3438V28.7985C244.858 29.4752 245.014 30.3081 244.441 30.8287C243.869 31.4013 243.088 31.6615 242.776 31.6615H226.327C225.91 31.6615 224.296 31.5054 224.296 29.8917L224.14 22.3438C224.14 19.7411 222.891 17.659 220.444 16.2014C217.998 14.5357 214.979 13.859 211.543 13.859C208.003 13.859 204.984 14.6919 202.486 16.4617C200.039 18.1274 198.79 20.1576 198.79 22.5C198.79 24.8424 199.623 26.8725 201.132 28.5383C202.798 30.204 205.661 31.7136 209.877 33.067C210.294 33.2231 211.387 33.6396 213.053 34.1601C214.719 34.7327 216.488 35.4094 218.414 36.0861C220.444 36.7628 222.266 37.3354 223.88 38.0121C225.546 38.5847 226.483 38.845 226.743 38.9491C232.365 40.9792 236.894 43.4778 240.173 46.3408C243.452 49.3599 245.222 52.8996 245.222 57.1681C245.222 61.2803 243.713 65.1323 240.693 68.4118C237.674 71.6912 233.562 74.2939 228.513 76.2199C223.464 77.8856 217.894 78.8226 211.699 78.8226Z" fill="#475DBA"/>
<path d="M107.539 148.731C101.501 148.731 95.8789 147.795 90.6735 145.712C85.6243 143.682 81.512 141.027 78.4929 137.748C75.4738 134.469 73.9641 130.773 73.9641 126.765V123.121C73.9641 122.704 73.9642 121.195 76.1505 121.195H92.5995C94.5255 121.351 94.6297 122.704 94.6297 123.121V126.817C94.6297 129.159 95.8789 131.189 98.3255 132.959C100.772 134.625 103.791 135.562 107.383 135.562C110.975 135.562 113.942 134.729 116.544 132.959C118.991 131.189 120.24 129.107 120.24 126.817C120.24 124.214 117.481 121.872 112.016 119.841C111.079 119.425 109.986 119.009 108.476 118.592C107.123 118.02 105.457 117.499 103.427 116.822C101.501 116.146 99.5748 115.469 97.8049 114.896C96.0351 114.22 94.2652 113.543 92.4433 112.97C86.1448 110.628 81.4599 107.765 78.4408 104.225C75.4217 100.685 73.9121 96.6773 73.9121 92.3048C73.9121 88.1925 75.4217 84.6528 78.597 81.3213C81.7723 78.0419 85.7284 75.5433 90.7776 73.6694C95.8269 71.7434 101.345 70.8064 107.227 70.8064C113.265 70.8064 118.887 71.7434 123.936 73.6694C128.985 75.5954 133.098 78.1981 136.013 81.4775C139.032 84.7569 140.698 88.3486 140.698 92.3048V98.7595C140.698 99.4362 140.854 100.269 140.281 100.79C139.709 101.362 138.928 101.622 138.615 101.622H122.166C121.75 101.622 120.136 101.466 120.136 99.8526L119.98 92.3048C119.98 89.7021 118.731 87.6199 116.284 86.1624C113.838 84.4966 110.819 83.8199 107.383 83.8199C103.843 83.8199 100.824 84.6528 98.3255 86.4226C95.8789 88.0884 94.6297 90.1185 94.6297 92.4609C94.6297 94.8034 95.4626 96.8335 96.9721 98.4992C98.6379 100.165 101.501 101.675 105.717 103.028C106.134 103.184 107.227 103.601 108.892 104.121C110.558 104.694 112.328 105.37 114.254 106.047C116.284 106.724 118.106 107.296 119.72 107.973C121.386 108.546 122.322 108.806 122.583 108.91C128.205 110.94 132.733 113.439 136.013 116.302C139.292 119.321 141.062 122.861 141.062 127.129C141.062 131.241 139.552 135.093 136.533 138.373C133.514 141.652 129.402 144.255 124.353 146.181C119.355 147.742 113.733 148.731 107.539 148.731Z" fill="#475DBA"/>
<path d="M18.7356 148.731H2.02616C1.60972 148.731 -0.00390625 148.731 -0.00390625 146.545L0.256365 4.17708C0.256365 3.76065 0.256314 2.14697 2.28643 2.14697H35.6011C41.7435 2.14697 47.5216 3.65654 52.727 6.67568C57.9324 9.69482 62.0447 13.6509 65.0638 18.8564C68.2391 23.9056 69.7487 29.6836 69.7487 36.1383C69.7487 40.4068 69.072 44.1026 67.8227 47.5382C66.5734 50.9738 65.0637 53.8367 63.2939 56.1792C62.6172 57.1162 61.7843 57.949 60.8474 58.7819C59.0775 60.2915 58.6611 62.8942 60.1706 64.8202C64.8555 70.8585 67.9788 77.8337 67.9788 85.6418L68.1349 146.753C68.1349 148.679 66.4692 148.94 65.9487 148.94H49.2914C48.8749 148.94 47.2613 148.94 47.2613 147.014V85.4336C47.2613 81.3214 45.7517 77.7817 42.8887 74.7625C40.0257 71.7434 36.434 70.2338 32.2176 70.2338H25.0862C22.7437 70.2338 20.9739 72.0036 20.9739 74.3461L20.8178 146.701C20.8178 147.066 20.5575 148.731 18.7356 148.731ZM35.6011 22.6563H25.0341C22.6916 22.6563 20.9218 24.4261 20.9218 26.7686V45.404C20.9218 47.7464 22.6916 49.5163 25.0341 49.5163H35.6011C39.1408 49.5163 42.16 48.1628 44.9189 45.5601C47.6777 42.9574 49.1873 39.678 49.1873 35.9822C49.1873 32.4425 47.8338 29.2672 45.2311 26.6645C42.4722 24.0097 39.2969 22.6563 35.6011 22.6563Z" fill="#18226C"/>
<mask id="mask0_256_5245" style="mask-type:luminance" maskUnits="userSpaceOnUse" x="-1" y="2" width="71" height="147">
<path d="M18.7346 148.731H2.02518C1.60875 148.731 -0.00488281 148.731 -0.00488281 146.545L0.255388 4.17708C0.255388 3.76065 0.255337 2.14697 2.28545 2.14697H35.6001C41.7425 2.14697 47.5206 3.65654 52.726 6.67568C57.9314 9.69482 62.0437 13.6509 65.0628 18.8564C68.2381 23.9056 69.7477 29.6836 69.7477 36.1383C69.7477 40.4068 69.071 44.1026 67.8217 47.5382C66.5724 50.9738 65.0627 53.8367 63.2929 56.1792C62.6162 57.1162 61.7834 57.949 60.8464 58.7819C59.0765 60.2915 58.6601 62.8942 60.1697 64.8202C64.8545 70.8585 67.9778 77.8337 67.9778 85.6418L68.134 146.753C68.134 148.679 66.4683 148.94 65.9477 148.94H49.2904C48.8739 148.94 47.2603 148.94 47.2603 147.014V85.4336C47.2603 81.3214 45.7507 77.7817 42.8877 74.7625C40.0247 71.7434 36.433 70.2338 32.2166 70.2338H25.0852C22.7428 70.2338 20.973 72.0036 20.973 74.3461L20.8168 146.701C20.8168 147.066 20.5565 148.731 18.7346 148.731ZM35.6001 22.6563H25.0331C22.6907 22.6563 20.9209 24.4261 20.9209 26.7686V45.404C20.9209 47.7464 22.6907 49.5163 25.0331 49.5163H35.6001C39.1398 49.5163 42.159 48.1628 44.9179 45.5601C47.6768 42.9574 49.1863 39.678 49.1863 35.9822C49.1863 32.4425 47.8328 29.2672 45.2301 26.6645C42.4713 24.0097 39.296 22.6563 35.6001 22.6563Z" fill="white"/>
</mask>
<g mask="url(#mask0_256_5245)">
<path d="M-6.875 127.753L24.6178 91.4197" stroke="#FFAC17" stroke-width="5.20542" stroke-miterlimit="10"/>
</g>
<mask id="mask1_256_5245" style="mask-type:luminance" maskUnits="userSpaceOnUse" x="-1" y="2" width="71" height="147">
<path d="M18.7346 148.731H2.02518C1.60875 148.731 -0.00488281 148.731 -0.00488281 146.545L0.255388 4.17708C0.255388 3.76065 0.255337 2.14697 2.28545 2.14697H35.6001C41.7425 2.14697 47.5206 3.65654 52.726 6.67568C57.9314 9.69482 62.0437 13.6509 65.0628 18.8564C68.2381 23.9056 69.7477 29.6836 69.7477 36.1383C69.7477 40.4068 69.071 44.1026 67.8217 47.5382C66.5724 50.9738 65.0627 53.8367 63.2929 56.1792C62.6162 57.1162 61.7834 57.949 60.8464 58.7819C59.0765 60.2915 58.6601 62.8942 60.1697 64.8202C64.8545 70.8585 67.9778 77.8337 67.9778 85.6418L68.134 146.753C68.134 148.679 66.4683 148.94 65.9477 148.94H49.2904C48.8739 148.94 47.2603 148.94 47.2603 147.014V85.4336C47.2603 81.3214 45.7507 77.7817 42.8877 74.7625C40.0247 71.7434 36.433 70.2338 32.2166 70.2338H25.0852C22.7428 70.2338 20.973 72.0036 20.973 74.3461L20.8168 146.701C20.8168 147.066 20.5565 148.731 18.7346 148.731ZM35.6001 22.6563H25.0331C22.6907 22.6563 20.9209 24.4261 20.9209 26.7686V45.404C20.9209 47.7464 22.6907 49.5163 25.0331 49.5163H35.6001C39.1398 49.5163 42.159 48.1628 44.9179 45.5601C47.6768 42.9574 49.1863 39.678 49.1863 35.9822C49.1863 32.4425 47.8328 29.2672 45.2301 26.6645C42.4713 24.0097 39.296 22.6563 35.6001 22.6563Z" fill="white"/>
</mask>
<g mask="url(#mask1_256_5245)">
<path d="M-9.32324 3.91699L25.1887 26.0921L42.1584 55.6588L72.7663 48.7356" stroke="#FFAC17" stroke-width="5.20542" stroke-miterlimit="10" stroke-linecap="round" stroke-linejoin="round"/>
</g>
<mask id="mask2_256_5245" style="mask-type:luminance" maskUnits="userSpaceOnUse" x="-1" y="2" width="71" height="147">
<path d="M18.7346 148.731H2.02518C1.60875 148.731 -0.00488281 148.731 -0.00488281 146.545L0.255388 4.17708C0.255388 3.76065 0.255337 2.14697 2.28545 2.14697H35.6001C41.7425 2.14697 47.5206 3.65654 52.726 6.67568C57.9314 9.69482 62.0437 13.6509 65.0628 18.8564C68.2381 23.9056 69.7477 29.6836 69.7477 36.1383C69.7477 40.4068 69.071 44.1026 67.8217 47.5382C66.5724 50.9738 65.0627 53.8367 63.2929 56.1792C62.6162 57.1162 61.7834 57.949 60.8464 58.7819C59.0765 60.2915 58.6601 62.8942 60.1697 64.8202C64.8545 70.8585 67.9778 77.8337 67.9778 85.6418L68.134 146.753C68.134 148.679 66.4683 148.94 65.9477 148.94H49.2904C48.8739 148.94 47.2603 148.94 47.2603 147.014V85.4336C47.2603 81.3214 45.7507 77.7817 42.8877 74.7625C40.0247 71.7434 36.433 70.2338 32.2166 70.2338H25.0852C22.7428 70.2338 20.973 72.0036 20.973 74.3461L20.8168 146.701C20.8168 147.066 20.5565 148.731 18.7346 148.731ZM35.6001 22.6563H25.0331C22.6907 22.6563 20.9209 24.4261 20.9209 26.7686V45.404C20.9209 47.7464 22.6907 49.5163 25.0331 49.5163H35.6001C39.1398 49.5163 42.159 48.1628 44.9179 45.5601C47.6768 42.9574 49.1863 39.678 49.1863 35.9822C49.1863 32.4425 47.8328 29.2672 45.2301 26.6645C42.4713 24.0097 39.296 22.6563 35.6001 22.6563Z" fill="white"/>
</mask>
<g mask="url(#mask2_256_5245)">
<path d="M32.1133 129.888L58.0363 133.48L71.9868 93.7622" stroke="#FFAC17" stroke-width="5.20542" stroke-miterlimit="10" stroke-linecap="round" stroke-linejoin="round"/>
</g>
<path d="M288.585 148.992C282.807 148.992 277.341 147.483 272.552 144.464C267.763 141.444 263.807 137.488 260.788 132.543C257.925 127.598 256.415 122.132 256.415 116.094L256.571 108.702C256.571 102.664 258.081 97.1984 260.944 92.4094C263.807 87.4643 267.659 83.6643 272.604 80.6452C277.549 77.626 282.859 76.1165 288.637 76.1165C294.675 76.1165 300.037 77.626 304.669 80.489C309.458 83.352 313.31 87.3602 316.173 92.2532C319.036 97.1984 320.546 102.508 320.546 108.546L320.702 115.938C320.702 121.82 319.192 127.286 316.329 132.231C313.466 137.176 309.458 141.288 304.669 144.151C299.828 147.483 294.467 148.992 288.585 148.992ZM288.585 129.42C291.864 129.42 294.727 128.067 297.226 125.464C299.672 122.705 300.921 119.686 300.921 116.406L300.765 109.015C300.765 105.475 299.672 102.3 297.33 99.8531C294.987 97.4066 292.124 96.1573 288.585 96.1573C285.149 96.1573 282.286 97.4066 279.944 99.8531C277.497 102.3 276.404 105.319 276.404 109.015V116.406C276.404 119.946 277.653 122.965 279.944 125.568C282.286 128.014 285.149 129.42 288.585 129.42Z" fill="#FFAC17"/>
<mask id="mask3_256_5245" style="mask-type:luminance" maskUnits="userSpaceOnUse" x="256" y="76" width="65" height="73">
<path d="M288.587 148.993C282.809 148.993 277.344 147.483 272.555 144.464C267.766 141.445 263.81 137.489 260.791 132.544C257.928 127.599 256.418 122.133 256.418 116.095L256.574 108.703C256.574 102.665 258.084 97.1989 260.947 92.4099C263.81 87.4647 267.662 83.6648 272.607 80.6456C277.552 77.6265 282.862 76.1169 288.64 76.1169C294.678 76.1169 300.039 77.6265 304.672 80.4895C309.461 83.3525 313.313 87.3606 316.176 92.2537C319.039 97.1989 320.549 102.508 320.549 108.547L320.705 115.938C320.705 121.821 319.195 127.286 316.332 132.231C313.469 137.176 309.461 141.289 304.672 144.152C299.831 147.483 294.47 148.993 288.587 148.993ZM288.587 129.42C291.867 129.42 294.73 128.067 297.229 125.464C299.675 122.705 300.924 119.686 300.924 116.407L300.768 109.015C300.768 105.475 299.675 102.3 297.333 99.8536C294.99 97.4071 292.127 96.1578 288.587 96.1578C285.152 96.1578 282.289 97.4071 279.947 99.8536C277.5 102.3 276.407 105.319 276.407 109.015V116.407C276.407 119.947 277.656 122.966 279.947 125.568C282.289 128.015 285.152 129.42 288.587 129.42Z" fill="white"/>
</mask>
<g mask="url(#mask3_256_5245)">
<path d="M258.552 93.0342L308.784 70.9111L309.825 103.653L261.467 139.31L303.735 146.494" stroke="#18226C" stroke-width="5.20542" stroke-miterlimit="10" stroke-linecap="round" stroke-linejoin="round"/>
</g>
</svg>
