<svg width="261" height="100" viewBox="0 0 261 100" fill="none" xmlns="http://www.w3.org/2000/svg">
<path d="M129.639 48.4644C129.181 48.0715 128.679 47.7659 128.09 47.5258C127.5 47.2858 126.889 47.1766 126.235 47.1766C125.536 47.1766 124.86 47.3076 124.227 47.5695C123.594 47.8314 123.048 48.2025 122.59 48.6608C122.131 49.1191 121.76 49.6648 121.498 50.2977C121.236 50.9307 121.105 51.5855 121.105 52.3057C121.105 53.0041 121.236 53.6808 121.498 54.3137C121.76 54.9467 122.131 55.4923 122.59 55.9506C123.048 56.409 123.594 56.78 124.227 57.0419C124.86 57.3039 125.514 57.4348 126.235 57.4348C126.889 57.4348 127.5 57.3257 128.09 57.0856C128.679 56.8455 129.203 56.5399 129.639 56.1471C130.098 55.7542 130.469 55.274 130.753 54.7284C131.058 54.1827 131.233 53.5934 131.32 52.9387H136.755C136.667 54.3137 136.34 55.6014 135.772 56.8018C135.205 58.0023 134.441 59.0499 133.481 59.9448C132.52 60.8178 131.429 61.5381 130.207 62.0401C128.963 62.5639 127.653 62.8258 126.256 62.8258C124.794 62.8258 123.419 62.5421 122.153 61.9964C120.865 61.4508 119.752 60.7087 118.814 59.7483C117.853 58.788 117.111 57.6749 116.566 56.409C116.02 55.1431 115.736 53.7681 115.736 52.3057C115.736 50.8434 116.02 49.4902 116.566 48.2025C117.111 46.9366 117.853 45.8016 118.814 44.8631C119.774 43.9027 120.887 43.1607 122.153 42.615C123.419 42.0694 124.794 41.7856 126.256 41.7856C127.653 41.7856 128.985 42.0475 130.207 42.5714C131.451 43.0952 132.542 43.7936 133.481 44.6667" fill="#00A499"/>
<path d="M154.52 50.2978C154.258 49.6648 153.887 49.1192 153.429 48.6608C152.97 48.2025 152.425 47.8314 151.792 47.5695C151.159 47.3076 150.504 47.1767 149.784 47.1767C149.085 47.1767 148.409 47.3076 147.776 47.5695C147.143 47.8314 146.597 48.2025 146.139 48.6608C145.68 49.1192 145.309 49.6648 145.048 50.2978C144.786 50.9307 144.655 51.5855 144.655 52.3057V62.8258H139.264V36.3074H144.655V43.117C145.419 42.7023 146.226 42.375 147.099 42.1349C147.972 41.8948 148.867 41.7857 149.784 41.7857C151.246 41.7857 152.599 42.0694 153.887 42.615C155.153 43.1607 156.288 43.9028 157.226 44.8631C158.187 45.8234 158.929 46.9366 159.474 48.2025C160.02 49.4902 160.304 50.8434 160.304 52.3057V62.8258H154.913V52.3057C154.935 51.6073 154.804 50.9307 154.52 50.2978Z" fill="#00A499"/>
<path d="M179.797 60.6432C178.902 61.3416 177.898 61.8873 176.806 62.2583C175.715 62.6294 174.558 62.8258 173.358 62.8258C171.896 62.8258 170.521 62.5421 169.255 61.9964C167.967 61.4508 166.854 60.7087 165.915 59.7483C164.955 58.788 164.213 57.6749 163.667 56.409C163.122 55.1431 162.838 53.7681 162.838 52.3057C162.838 50.8434 163.122 49.4902 163.667 48.2025C164.213 46.9366 164.955 45.8016 165.915 44.8631C166.876 43.9027 167.989 43.1607 169.255 42.615C170.521 42.0694 171.896 41.7856 173.358 41.7856C174.82 41.7856 176.174 42.0694 177.461 42.615C178.727 43.1607 179.862 43.9027 180.801 44.8631C181.761 45.8234 182.503 46.9366 183.049 48.2025C183.594 49.4902 183.878 50.8434 183.878 52.3057C183.878 52.7641 183.856 53.1788 183.791 53.6153C183.725 54.03 183.66 54.4447 183.572 54.8375H168.884C169.342 55.6233 169.953 56.2562 170.739 56.7364C171.525 57.2165 172.398 57.4566 173.358 57.4566C173.925 57.4566 174.449 57.3693 174.951 57.1947C175.453 57.0201 175.912 56.78 176.348 56.4745L179.797 60.6432ZM173.358 47.1766C172.463 47.1766 171.656 47.3949 170.913 47.8096C170.193 48.2243 169.582 48.7699 169.102 49.4465H177.592C177.112 48.7699 176.501 48.2243 175.781 47.8096C175.06 47.3731 174.253 47.1766 173.358 47.1766Z" fill="#00A499"/>
<path d="M200.333 48.4644C199.874 48.0715 199.372 47.7659 198.783 47.5258C198.194 47.2858 197.583 47.1766 196.928 47.1766C196.23 47.1766 195.553 47.3076 194.92 47.5695C194.287 47.8314 193.741 48.2025 193.283 48.6608C192.825 49.1191 192.454 49.6648 192.192 50.2977C191.93 50.9307 191.799 51.5855 191.799 52.3057C191.799 53.0041 191.93 53.6808 192.192 54.3137C192.454 54.9467 192.825 55.4923 193.283 55.9506C193.741 56.409 194.287 56.78 194.92 57.0419C195.553 57.3039 196.208 57.4348 196.928 57.4348C197.583 57.4348 198.194 57.3257 198.783 57.0856C199.372 56.8455 199.896 56.5399 200.333 56.1471C200.791 55.7542 201.162 55.274 201.446 54.7284C201.751 54.1827 201.926 53.5934 202.013 52.9387H207.448C207.361 54.3137 207.033 55.6014 206.466 56.8018C205.898 58.0023 205.134 59.0499 204.174 59.9448C203.214 60.8178 202.123 61.5381 200.9 62.0401C199.656 62.5639 198.347 62.8258 196.95 62.8258C195.487 62.8258 194.112 62.5421 192.847 61.9964C191.559 61.4508 190.446 60.7087 189.507 59.7483C188.547 58.788 187.805 57.6749 187.259 56.409C186.713 55.1431 186.43 53.7681 186.43 52.3057C186.43 50.8434 186.713 49.4902 187.259 48.2025C187.805 46.9366 188.547 45.8016 189.507 44.8631C190.467 43.9027 191.581 43.1607 192.847 42.615C194.112 42.0694 195.487 41.7856 196.95 41.7856C198.347 41.7856 199.678 42.0475 200.9 42.5714C202.144 43.0952 203.236 43.7936 204.174 44.6667" fill="#00A499"/>
<path d="M215.35 62.8258H209.959V36.3074H215.35V49.512C216.419 49.512 217.423 49.3156 218.362 48.9009C219.3 48.4862 220.13 47.9406 220.828 47.2421C221.527 46.5437 222.094 45.7143 222.487 44.7758C222.902 43.8373 223.098 42.8333 223.098 41.7638H228.576C228.576 43.9246 228.118 45.9108 227.18 47.7223C226.263 49.5339 224.997 51.0398 223.426 52.2403C225.019 53.4843 226.285 55.0122 227.223 56.8237C228.162 58.6571 228.642 60.6432 228.642 62.804H223.12C223.12 61.7345 222.924 60.7305 222.509 59.7702C222.094 58.8099 221.549 57.9805 220.85 57.282C220.152 56.5836 219.322 56.0161 218.362 55.6233C217.402 55.2086 216.398 55.0121 215.328 55.0121V62.8258H215.35Z" fill="#00A499"/>
<path d="M231.172 41.7857V36.3074H236.563V41.7857H231.172ZM236.563 43.1389V62.8258H231.172V43.1389H236.563Z" fill="#6CC3C4"/>
<path d="M260.136 62.8258H254.745V52.3057C254.745 51.6073 254.614 50.9307 254.352 50.2977C254.09 49.6648 253.719 49.1191 253.261 48.6608C252.802 48.2025 252.257 47.8314 251.624 47.5695C250.991 47.3076 250.336 47.1766 249.616 47.1766C248.917 47.1766 248.241 47.3076 247.608 47.5695C246.975 47.8314 246.429 48.2025 245.971 48.6608C245.513 49.1191 245.141 49.6648 244.88 50.2977C244.618 50.9307 244.487 51.5855 244.487 52.3057V62.8258H239.096V52.3057C239.096 50.8434 239.379 49.4902 239.925 48.2025C240.471 46.9366 241.213 45.8016 242.173 44.8631C243.134 43.9027 244.247 43.1607 245.512 42.615C246.778 42.0694 248.153 41.7856 249.616 41.7856C251.078 41.7856 252.431 42.0694 253.719 42.615C254.985 43.1607 256.12 43.9027 257.058 44.8631C258.019 45.8234 258.761 46.9366 259.306 48.2025C259.852 49.4902 260.136 50.8434 260.136 52.3057V62.8258Z" fill="#6CC3C4"/>
<path d="M66.039 79.0641C65.3842 79.0641 64.7512 79.1296 64.1401 79.2824C63.1143 79.5225 62.1976 80.0245 61.2809 80.4828C57.8543 82.2071 53.7728 82.5345 49.7132 82.5345C31.2049 82.5345 16.2105 67.5401 16.2105 49.0317C16.2105 38.7081 20.8812 29.4976 28.1929 23.3427C29.677 22.0986 31.5104 20.5271 33.322 20.7017C35.9192 20.9418 36.3339 24.1284 41.0265 24.1502C45.8064 24.2375 50.2588 20.7017 51.0009 13.7393C51.7648 6.64586 45.1516 0.0544434 37.6435 0.0544434C36.2466 0.0544434 34.8716 0.272706 33.6057 0.665572C33.0164 0.883831 32.4489 1.10209 31.8596 1.34218C13.3949 8.93758 0.386719 27.0967 0.386719 48.3115C0.386719 76.3577 23.1074 99.0785 51.1537 99.0785C57.134 99.0785 62.8087 97.7907 68.1997 96.132C68.789 95.9574 69.3783 95.7609 69.924 95.4772C72.7613 94.0585 74.7038 91.112 74.7038 87.729C74.7038 82.9492 70.8189 79.0641 66.039 79.0641Z" fill="#00A499"/>
<path d="M59.4454 13.9795C60.9732 15.8565 63.3304 17.0788 65.9495 17.0788C70.5766 17.0788 74.3306 13.3247 74.3306 8.69765C74.3306 7.12619 73.8941 5.66385 73.152 4.39795C72.8465 3.96143 72.5191 3.52491 72.1917 3.08839C70.6639 1.38598 68.4376 0.294678 65.9495 0.294678C61.3224 0.294678 57.5684 4.04873 57.5684 8.67581C57.5684 10.3782 58.0922 11.9715 58.9652 13.3029C59.118 13.5212 59.2926 13.7394 59.4454 13.9795Z" fill="#6CC3C4"/>
<path d="M92.4919 18.9338C92.2082 18.4755 91.8808 18.0171 91.5315 17.6243C90.0037 15.9219 87.7775 14.8306 85.2894 14.8306C80.6623 14.8306 76.9082 18.5846 76.9082 23.2117C76.9082 24.9141 77.4321 26.5074 78.3051 27.8388C78.4797 28.057 78.6325 28.2753 78.8071 28.5154C82.8231 34.1246 85.1802 40.978 85.1802 48.3988C85.1802 55.7104 82.8885 62.4765 78.9817 68.0421C78.938 68.0857 78.9162 68.1512 78.8725 68.1949C77.9777 69.5262 77.4539 71.1413 77.4539 72.8656C77.4539 77.4927 81.2079 81.2467 85.835 81.2467C88.3668 81.2467 90.6367 80.1336 92.1645 78.3657C92.5356 77.9292 92.8848 77.4708 93.1467 76.947C98.6686 68.806 101.899 58.9843 101.899 48.3988C101.899 37.4204 98.4286 27.2495 92.4919 18.9338Z" fill="#6CC3C4"/>
<path d="M55.8664 76.0304C55.4299 74.2188 56.3466 71.5343 55.67 70.2465C54.5351 68.0858 53.9894 66.4052 54.0112 65.052C54.2295 57.3693 56.6522 57.3038 55.1025 55.4704C53.16 53.1569 52.5925 53.135 51.6104 53.397C47.9655 54.4228 46.6777 54.6629 45.1281 54.1609C40.7848 52.764 39.5188 54.772 38.995 56.3216C38.3621 58.2205 38.1438 58.286 37.5108 58.3514C34.3679 58.7225 32.6437 57.4129 31.6179 56.4962C30.6793 55.6669 34.0187 49.2282 34.8263 48.2679C37.9474 44.5575 36.4414 41.1745 35.4156 40.236C33.2985 38.2934 33.8005 37.4204 34.7172 36.7875C37.0525 35.216 36.0485 33.6009 35.3283 32.9461C32.5564 30.4143 38.4057 29.1047 38.8422 27.9698C39.4752 26.3329 38.2093 24.3904 36.9652 25.0451C31.8579 27.6642 22.2327 38.73 22.2327 50.0576C22.2327 53.8117 22.0145 57.9149 24.1753 60.7304C25.0265 61.8436 28.6059 63.3496 28.6059 63.3496C30.3738 64.2444 31.4651 63.917 31.4651 63.917C35.3719 62.4547 35.0446 64.7464 35.0446 64.7464C34.4553 69.0243 40.1082 70.814 40.1082 70.814C42.7273 71.5561 43.382 74.2625 43.382 74.2625C44.888 78.3003 49.0349 78.3439 51.4358 79.1952C52.0251 79.1733 57.1323 79.6535 57.6998 79.6098C57.7434 78.6277 56.1065 77.0344 55.8664 76.0304Z" fill="#046853"/>
<path d="M55.0819 23.3428C56.4569 24.8924 57.9847 27.2933 48.5996 28.4937C47.6174 28.6246 42.532 30.1525 44.2781 36.0891C44.6273 37.224 44.6491 37.726 43.7543 40.8253C43.165 42.8988 40.8951 51.8692 52.8557 51.0616C54.318 50.9525 55.8676 49.9485 57.832 47.8969C58.2248 47.4822 59.8618 47.0675 59.9709 48.7263C60.1673 51.5855 60.5384 54.5101 67.5663 57.3475C68.1775 57.5876 68.5921 57.9586 68.9413 59.6174C68.9413 59.6174 69.8362 62.302 73.2847 62.4548C76.7332 62.5857 76.5367 58.3078 76.5367 58.3078C76.5367 58.3078 77.6717 50.2104 75.9256 45.5397C75.3581 44.0337 76.253 43.5535 77.9336 39.4066C78.3047 38.4681 78.392 36.722 78.8503 35.3688C74.0704 26.8131 65.2527 20.8328 54.9728 20.0034C54.6017 20.3526 53.5541 21.6185 55.0819 23.3428Z" fill="#046853"/>
</svg>
