<svg width="246" height="225" viewBox="0 0 246 225" fill="none" xmlns="http://www.w3.org/2000/svg">
<path d="M23.7819 199.968C23.018 199.292 22.145 198.768 21.141 198.353C20.137 197.938 19.0894 197.742 17.9981 197.742C16.7976 197.742 15.6845 197.96 14.615 198.419C13.5456 198.877 12.6071 199.488 11.8214 200.274C11.0356 201.06 10.4245 201.998 9.96618 203.067C9.50784 204.137 9.28955 205.272 9.28955 206.451C9.28955 207.651 9.50784 208.764 9.96618 209.834C10.4245 210.903 11.0356 211.841 11.8214 212.627C12.6071 213.413 13.5456 214.024 14.615 214.482C15.6845 214.941 16.8195 215.159 17.9981 215.159C19.0894 215.159 20.137 214.963 21.141 214.548C22.145 214.133 23.018 213.609 23.7819 212.933C24.5458 212.256 25.1788 211.47 25.6808 210.532C26.1828 209.593 26.5102 208.589 26.6411 207.498H35.8517C35.6989 209.834 35.1532 212.016 34.1711 214.068C33.1889 216.119 31.9012 217.887 30.2861 219.393C28.671 220.899 26.8158 222.078 24.7205 222.973C22.6252 223.846 20.3771 224.304 17.9981 224.304C15.5099 224.304 13.1964 223.846 11.0356 222.907C8.87486 221.969 6.97601 220.703 5.3609 219.088C3.74578 217.473 2.45805 215.574 1.54137 213.413C0.602853 211.252 0.144531 208.917 0.144531 206.451C0.144531 203.984 0.602853 201.649 1.54137 199.488C2.47988 197.327 3.74578 195.428 5.3609 193.813C6.97601 192.198 8.87486 190.91 11.0356 189.994C13.1964 189.055 15.5317 188.597 17.9981 188.597C20.3771 188.597 22.6252 189.033 24.7205 189.928C26.8158 190.801 28.671 192.002 30.2861 193.508" fill="#00A499"/>
<path d="M66.0144 203.067C65.5561 201.998 64.945 201.059 64.1592 200.274C63.3735 199.488 62.435 198.877 61.3656 198.419C60.2961 197.96 59.1611 197.742 57.9825 197.742C56.7821 197.742 55.669 197.96 54.5995 198.419C53.5301 198.877 52.5915 199.488 51.8058 200.274C51.02 201.059 50.4089 201.998 49.9506 203.067C49.4922 204.137 49.274 205.272 49.274 206.45V224.304H40.1289V179.299H49.274V190.867C50.5618 190.147 51.9368 189.601 53.421 189.186C54.9051 188.772 56.4111 188.575 57.9825 188.575C60.4489 188.575 62.7842 189.033 64.945 189.972C67.1057 190.91 69.0046 192.176 70.6197 193.791C72.2348 195.407 73.5225 197.305 74.4392 199.466C75.3778 201.627 75.8361 203.962 75.8361 206.429V224.282H66.691V206.472C66.7129 205.272 66.4728 204.137 66.0144 203.067Z" fill="#00A499"/>
<path d="M108.925 220.616C107.397 221.816 105.716 222.733 103.861 223.366C102.006 223.999 100.042 224.326 98.0117 224.326C95.5236 224.326 93.2101 223.868 91.0493 222.929C88.8885 221.991 86.9897 220.725 85.3746 219.11C83.7595 217.495 82.4717 215.596 81.555 213.435C80.6165 211.274 80.1582 208.939 80.1582 206.472C80.1582 204.006 80.6165 201.671 81.555 199.51C82.4936 197.349 83.7595 195.45 85.3746 193.835C86.9897 192.22 88.8885 190.932 91.0493 190.016C93.2101 189.077 95.5454 188.619 98.0117 188.619C100.478 188.619 102.813 189.077 104.974 190.016C107.135 190.954 109.034 192.22 110.649 193.835C112.264 195.45 113.552 197.349 114.468 199.51C115.407 201.671 115.865 204.006 115.865 206.472C115.865 207.236 115.822 207.978 115.713 208.677C115.625 209.397 115.494 210.074 115.363 210.75H90.4381C91.202 212.082 92.2497 213.151 93.5811 213.959C94.9125 214.766 96.3966 215.181 98.0117 215.181C98.9721 215.181 99.8669 215.028 100.718 214.744C101.569 214.461 102.355 214.046 103.075 213.522L108.925 220.616ZM97.9899 197.764C96.4621 197.764 95.087 198.113 93.843 198.833C92.5989 199.554 91.5731 200.47 90.7655 201.627H105.192C104.385 200.492 103.359 199.554 102.115 198.833C100.893 198.113 99.5177 197.764 97.9899 197.764Z" fill="#00A499"/>
<path d="M143.78 199.968C143.016 199.292 142.143 198.768 141.139 198.353C140.135 197.938 139.088 197.742 137.996 197.742C136.796 197.742 135.683 197.96 134.613 198.419C133.544 198.877 132.605 199.488 131.819 200.274C131.034 201.06 130.423 201.998 129.964 203.067C129.506 204.137 129.288 205.272 129.288 206.451C129.288 207.651 129.506 208.764 129.964 209.834C130.423 210.903 131.034 211.841 131.819 212.627C132.605 213.413 133.544 214.024 134.613 214.482C135.683 214.941 136.818 215.159 137.996 215.159C139.088 215.159 140.135 214.963 141.139 214.548C142.143 214.133 143.016 213.609 143.78 212.933C144.544 212.256 145.177 211.47 145.679 210.532C146.181 209.593 146.508 208.589 146.639 207.498H155.85C155.697 209.834 155.151 212.016 154.169 214.068C153.187 216.119 151.899 217.887 150.284 219.393C148.669 220.899 146.814 222.078 144.719 222.973C142.623 223.846 140.375 224.304 137.996 224.304C135.508 224.304 133.194 223.846 131.034 222.907C128.873 221.969 126.974 220.703 125.359 219.088C123.744 217.473 122.456 215.574 121.539 213.413C120.601 211.252 120.143 208.917 120.143 206.451C120.143 203.984 120.601 201.649 121.539 199.488C122.478 197.327 123.744 195.428 125.359 193.813C126.974 192.198 128.873 190.91 131.034 189.994C133.194 189.055 135.53 188.597 137.996 188.597C140.375 188.597 142.623 189.033 144.719 189.928C146.814 190.801 148.669 192.002 150.284 193.508" fill="#00A499"/>
<path d="M169.274 224.326H160.129V179.321H169.274V201.758C171.085 201.758 172.788 201.409 174.381 200.732C175.974 200.034 177.371 199.095 178.572 197.916C179.75 196.716 180.711 195.341 181.387 193.748C182.086 192.154 182.413 190.452 182.413 188.64H191.711C191.711 192.307 190.925 195.668 189.354 198.746C187.782 201.823 185.665 204.377 183.002 206.429C185.709 208.524 187.87 211.121 189.463 214.22C191.056 217.32 191.864 220.703 191.864 224.369H182.5C182.5 222.558 182.151 220.855 181.475 219.219C180.776 217.603 179.838 216.185 178.659 215.006C177.459 213.806 176.062 212.867 174.447 212.191C172.832 211.492 171.107 211.165 169.296 211.165V224.326H169.274Z" fill="#00A499"/>
<path d="M196.141 188.619V179.321H205.286V188.619H196.141ZM205.286 190.889V224.326H196.141V190.889H205.286Z" fill="#6CC3C4"/>
<path d="M245.291 224.326H236.146V206.472C236.146 205.272 235.928 204.159 235.469 203.089C235.011 202.02 234.4 201.081 233.614 200.296C232.828 199.51 231.89 198.899 230.821 198.441C229.751 197.982 228.616 197.764 227.438 197.764C226.237 197.764 225.124 197.982 224.055 198.441C222.985 198.899 222.047 199.51 221.261 200.296C220.475 201.081 219.864 202.02 219.406 203.089C218.947 204.159 218.729 205.294 218.729 206.472V224.326H209.584V206.472C209.584 204.006 210.042 201.671 210.981 199.51C211.919 197.349 213.185 195.45 214.8 193.835C216.415 192.22 218.314 190.932 220.475 190.016C222.636 189.077 224.971 188.619 227.438 188.619C229.904 188.619 232.239 189.077 234.4 190.016C236.561 190.954 238.46 192.22 240.075 193.835C241.69 195.45 242.978 197.349 243.894 199.51C244.833 201.671 245.291 204.006 245.291 206.472V224.326Z" fill="#6CC3C4"/>
<path d="M147.644 134.905C146.552 134.905 145.461 135.036 144.435 135.254C142.689 135.647 141.14 136.52 139.59 137.306C133.763 140.231 126.844 140.798 119.947 140.798C88.5175 140.798 63.0466 115.327 63.0466 83.8981C63.0466 66.3937 70.9477 50.7228 83.3884 40.29C85.9202 38.1729 89.0195 35.5101 92.0969 35.7938C96.5057 36.1867 97.226 41.5995 105.192 41.665C113.29 41.8178 120.842 35.8157 122.129 23.986C123.417 11.9382 112.177 0.763306 99.4523 0.763306C97.0733 0.763306 94.7597 1.13435 92.599 1.81095C91.595 2.18199 90.6128 2.55303 89.6525 2.96772C58.2887 15.8668 36.2227 46.7068 36.2227 82.6977C36.2227 130.3 74.8109 168.866 122.391 168.866C132.54 168.866 142.165 166.706 151.354 163.89C152.358 163.584 153.362 163.257 154.279 162.777C159.081 160.354 162.398 155.378 162.398 149.616C162.376 141.497 155.785 134.905 147.644 134.905Z" fill="#00A499"/>
<path d="M136.49 24.3788C139.109 27.5872 143.081 29.617 147.534 29.617C155.391 29.617 161.786 23.2439 161.786 15.3647C161.786 12.702 161.044 10.2138 159.778 8.07488C159.254 7.3328 158.687 6.59072 158.141 5.84864C155.544 2.9458 151.746 1.11243 147.534 1.11243C139.676 1.11243 133.281 7.48558 133.281 15.3647C133.281 18.2676 134.154 20.974 135.638 23.222C135.922 23.6367 136.206 24.0078 136.49 24.3788Z" fill="#6CC3C4"/>
<path d="M192.583 32.8255C192.102 32.0398 191.557 31.2759 190.946 30.5993C188.348 27.6964 184.551 25.863 180.338 25.863C172.481 25.863 166.086 32.2362 166.086 40.1153C166.086 43.0182 166.959 45.7246 168.443 47.9727C168.727 48.3437 169.011 48.7147 169.273 49.1076C176.082 58.6019 180.098 70.2569 180.098 82.8504C180.098 95.2475 176.191 106.75 169.556 116.179C169.491 116.266 169.425 116.353 169.382 116.44C167.876 118.71 166.981 121.417 166.981 124.363C166.981 132.221 173.354 138.594 181.211 138.594C185.511 138.594 189.352 136.695 191.95 133.683C192.583 132.941 193.15 132.155 193.63 131.282C203.015 117.466 208.494 100.791 208.494 82.8286C208.537 64.2111 202.622 46.9468 192.583 32.8255Z" fill="#6CC3C4"/>
<path d="M130.378 129.754C129.636 126.677 131.208 122.115 130.051 119.954C128.108 116.288 127.17 113.45 127.235 111.137C127.606 98.085 131.71 97.9758 129.112 94.8766C125.817 90.9697 124.834 90.9042 123.176 91.3626C116.977 93.1087 114.816 93.5015 112.176 92.6721C104.798 90.3149 102.638 93.7198 101.765 96.3389C100.673 99.5691 100.324 99.6564 99.2546 99.7874C93.9291 100.42 90.9826 98.1941 89.2365 96.6663C87.665 95.2694 93.2962 84.3128 94.6712 82.6977C99.9531 76.4119 97.4212 70.6498 95.6751 69.0565C92.0738 65.739 92.9251 64.2767 94.4965 63.229C98.4689 60.5444 96.7446 57.8162 95.5224 56.7031C90.808 52.4034 100.739 50.199 101.503 48.2565C102.594 45.4628 100.455 42.1889 98.3161 43.2802C89.6512 47.7327 73.3254 66.5029 73.3254 85.7533C73.3254 92.1265 72.9762 99.089 76.6212 103.869C78.0617 105.768 84.1511 108.299 84.1511 108.299C87.1631 109.827 88.9965 109.26 88.9965 109.26C95.6315 106.75 95.0859 110.657 95.0859 110.657C94.0601 117.925 103.685 120.958 103.685 120.958C108.138 122.203 109.229 126.808 109.229 126.808C111.804 133.683 118.832 133.748 122.914 135.167C123.896 135.145 132.583 135.931 133.565 135.844C133.587 134.163 130.793 131.435 130.378 129.754Z" fill="#046853"/>
<path d="M129.069 40.2901C131.404 42.9092 133.98 46.9906 118.047 49.0422C116.388 49.2605 107.745 51.8578 110.714 61.9195C111.281 63.862 111.325 64.7132 109.841 69.9733C108.837 73.4872 104.973 88.7217 125.315 87.3467C127.803 87.1721 130.444 85.4696 133.74 81.9557C134.417 81.2572 137.167 80.5588 137.363 83.3525C137.69 88.2197 138.323 93.1523 150.24 97.9977C151.288 98.4124 152.008 99.0453 152.576 101.861C152.576 101.861 154.103 106.422 159.953 106.663C165.802 106.903 165.453 99.6346 165.453 99.6346C165.453 99.6346 167.395 85.9062 164.405 77.9615C163.445 75.3861 164.973 74.6003 167.81 67.5288C168.443 65.9355 168.596 62.9453 169.382 60.6754C161.262 46.1612 146.29 36.0122 128.851 34.5935C128.262 35.2265 126.472 37.3872 129.069 40.2901Z" fill="#046853"/>
</svg>
