<svg width="277" height="107" viewBox="0 0 277 107" fill="none" xmlns="http://www.w3.org/2000/svg">
<path d="M70.7561 85.0829C70.0577 85.0829 69.3811 85.1702 68.7482 85.3012C67.766 85.7813 66.7402 86.196 65.6926 86.5889C61.8294 88.0076 57.6824 88.7933 53.3173 88.7933C33.543 88.7933 17.501 72.7513 17.501 52.977C17.501 41.955 22.4773 32.1115 30.3128 25.5419L30.291 25.5201L30.2691 25.5419C30.2691 25.5419 30.291 25.5419 30.291 25.5201C31.8842 24.1887 33.5867 22.9883 35.3982 21.9406C35.049 21.5259 34.7871 21.1549 34.5907 20.8275C34.7871 21.1331 35.049 21.5259 35.3982 21.9406C35.3764 21.9625 35.3327 21.9625 35.3109 21.9843C36.9915 23.9923 40.3091 26.7205 43.9758 26.4586C49.6724 26.4586 54.3649 22.0498 54.8014 16.4623C54.8014 16.4405 54.8014 16.4405 54.8014 16.4187C54.8233 16.4187 54.8232 16.4187 54.8451 16.4187C54.8451 16.4187 54.8451 16.4187 54.8451 16.3969H54.8669C54.9106 15.9822 54.9106 15.5893 54.9106 15.1746C54.9106 7.16451 48.4064 0.6604 40.3964 0.6604C38.8904 0.6604 37.4498 0.878659 36.0748 1.31518C35.4419 1.55526 34.8307 1.79535 34.2196 2.03543C14.489 10.1547 0.585938 29.5579 0.585938 52.235C0.585938 82.2019 24.8781 106.472 54.8233 106.472C61.2182 106.472 67.3513 105.359 73.0479 103.329C73.659 103.111 74.2919 102.871 74.9031 102.631C77.9369 101.103 80.0103 97.982 80.0103 94.3589C80.0103 89.2298 75.8634 85.0829 70.7561 85.0829ZM62.8334 99.1606C61.9822 97.7637 61.502 96.105 61.502 94.3589C61.502 96.1268 61.9822 97.7637 62.8334 99.1606Z" fill="#00A499"/>
<path d="M99.9796 82.9658C99.6304 83.4678 99.2812 83.9698 98.9102 84.4718C99.3248 84.0135 99.6741 83.5115 99.9796 82.9658Z" fill="#69C3C4"/>
<path d="M99.3039 21.0024C98.9983 20.5004 98.6491 20.042 98.2781 19.6055C96.6411 17.7721 94.2621 16.6372 91.5993 16.6372C86.6449 16.6372 82.6289 20.6532 82.6289 25.6076C82.6289 27.441 83.1746 29.1434 84.1131 30.5621C84.2877 30.8022 84.4623 31.0423 84.6369 31.2824C88.9366 37.2627 91.4466 44.5962 91.4466 52.519C91.4466 60.3326 89.0021 67.557 84.8115 73.4936C84.7678 73.5591 84.7242 73.6028 84.7024 73.6682C83.742 75.0869 83.1964 76.8112 83.1964 78.6445C83.1964 83.599 87.2123 87.615 92.1668 87.615C94.8732 87.615 97.2959 86.4146 98.9328 84.5157C99.3039 84.0137 99.6531 83.5117 100.002 83.0097C105.895 74.323 109.344 63.8248 109.344 52.519C109.344 40.7548 105.612 29.8855 99.3039 21.0024Z" fill="#6CC3C4"/>
<path d="M63.5539 16.0915C65.2563 18.165 67.81 19.4963 70.7128 19.4963C75.7983 19.4963 79.9452 15.3712 79.9452 10.264C79.9452 8.53974 79.465 6.92463 78.6356 5.5496C78.2864 5.06943 77.9372 4.58926 77.5662 4.10909C75.8856 2.23206 73.4192 1.05347 70.7128 1.05347C65.6274 1.05347 61.4805 5.17856 61.4805 10.2858C61.4805 12.1628 62.0479 13.9089 63.0083 15.3712C63.2047 15.6113 63.3793 15.8514 63.5539 16.0915Z" fill="#6CC3C4"/>
<path d="M59.9088 82.0494C59.4287 80.1069 60.4326 77.2477 59.7124 75.8727C58.4901 73.5591 57.9008 71.7694 57.9445 70.3289C58.1628 62.1005 60.76 62.0351 59.1231 60.0925C57.0496 57.6262 56.4385 57.5826 55.3909 57.8881C51.484 58.9794 50.1308 59.2413 48.4721 58.7175C43.8231 57.2334 42.4699 59.3723 41.9243 61.0311C41.2477 63.0609 41.0076 63.1264 40.3528 63.2137C36.9917 63.6065 35.1365 62.2097 34.0452 61.2493C33.0412 60.3763 36.5988 53.4793 37.4718 52.4535C40.8112 48.4812 39.1961 44.8799 38.1048 43.8541C35.8349 41.7588 36.3587 40.8421 37.3627 40.1874C39.8508 38.5068 38.7814 36.7825 38.0175 36.0841C35.0491 33.3777 41.2914 31.9808 41.7715 30.7586C42.4481 29.0125 41.0949 26.939 39.7635 27.6156C34.3071 30.4312 24.0271 42.239 24.0271 54.3523C24.0271 58.3683 23.8088 62.7553 26.1005 65.7673C27.0172 66.9459 30.8367 68.561 30.8367 68.561C32.7356 69.5213 33.8924 69.1721 33.8924 69.1721C38.0829 67.6007 37.7337 70.067 37.7337 70.067C37.1008 74.6504 43.1465 76.5493 43.1465 76.5493C45.9403 77.335 46.6387 80.2379 46.6387 80.2379C48.2538 84.5594 52.6845 84.603 55.2599 85.4979C55.871 85.4761 61.3493 85.9781 61.9605 85.9344C61.9386 84.8213 60.1707 83.097 59.9088 82.0494Z" fill="#046853"/>
<path d="M59.0788 25.6947C60.563 27.3535 62.1781 29.9071 52.1382 31.2167C51.0906 31.3476 45.6559 32.9846 47.5329 39.3359C47.904 40.5582 47.9258 41.1038 46.9873 44.3995C46.3543 46.6258 43.9317 56.2073 56.7217 55.3343C58.2931 55.2251 59.9519 54.1557 62.0253 51.9513C62.44 51.5147 64.1861 51.0782 64.3171 52.8461C64.5353 55.9018 64.9282 59.0229 72.4363 62.0785C73.0911 62.3404 73.5494 62.7333 73.9204 64.523C73.9204 64.523 74.8808 67.404 78.5694 67.5568C82.2579 67.7096 82.0397 63.1261 82.0397 63.1261C82.0397 63.1261 83.2619 54.4831 81.3849 49.4849C80.7738 47.8698 81.7559 47.3678 83.5238 42.9154C83.9167 41.9114 84.0258 40.0343 84.506 38.5938C79.3987 29.4488 69.97 23.0538 58.9697 22.1589C58.5768 22.5081 57.4419 23.8614 59.0788 25.6947Z" fill="#046853"/>
<path d="M137.695 39.7508C137.215 39.3361 136.669 39.0087 136.036 38.7468C135.403 38.4849 134.748 38.3757 134.072 38.3757C133.33 38.3757 132.609 38.5067 131.955 38.7904C131.278 39.0742 130.711 39.467 130.209 39.9472C129.707 40.4492 129.335 41.0167 129.052 41.6933C128.768 42.3699 128.637 43.0683 128.637 43.8104C128.637 44.5525 128.768 45.2727 129.052 45.9275C129.335 46.6041 129.728 47.1716 130.209 47.6736C130.711 48.1756 131.278 48.5466 131.955 48.8304C132.631 49.1141 133.33 49.245 134.072 49.245C134.748 49.245 135.403 49.1141 136.036 48.874C136.669 48.6121 137.215 48.2847 137.695 47.87C138.175 47.4553 138.568 46.9533 138.873 46.364C139.179 45.7747 139.397 45.1418 139.485 44.4652H145.247C145.159 45.9275 144.81 47.3025 144.199 48.5684C143.588 49.8562 142.78 50.9693 141.754 51.9078C140.75 52.8463 139.572 53.5884 138.262 54.134C136.953 54.6797 135.556 54.9634 134.072 54.9634C132.522 54.9634 131.06 54.6797 129.707 54.0904C128.353 53.5011 127.175 52.7154 126.149 51.6895C125.145 50.6855 124.337 49.4851 123.748 48.1319C123.159 46.7787 122.875 45.3164 122.875 43.7667C122.875 42.2171 123.159 40.7766 123.748 39.4016C124.337 38.0484 125.123 36.8698 126.149 35.844C127.153 34.84 128.353 34.0324 129.707 33.4431C131.06 32.8538 132.522 32.5701 134.072 32.5701C135.556 32.5701 136.953 32.8538 138.262 33.3994C139.572 33.9451 140.729 34.6872 141.754 35.6257" fill="#00A499"/>
<path d="M164.128 41.693C163.844 41.0164 163.451 40.4489 162.971 39.9469C162.469 39.4449 161.902 39.0739 161.225 38.7902C160.549 38.5064 159.85 38.3755 159.108 38.3755C158.366 38.3755 157.646 38.5064 156.991 38.7902C156.314 39.0739 155.747 39.4668 155.245 39.9469C154.743 40.4489 154.372 41.0164 154.088 41.693C153.804 42.3696 153.673 43.068 153.673 43.8101V54.985H147.955V26.8296H153.673V34.0758C154.481 33.6393 155.332 33.2682 156.271 33.0281C157.187 32.7662 158.148 32.6571 159.13 32.6571C160.68 32.6571 162.12 32.9408 163.495 33.5301C164.848 34.1194 166.027 34.9052 167.053 35.931C168.057 36.935 168.864 38.1354 169.454 39.4886C170.043 40.8418 170.327 42.3041 170.327 43.8538V55.0286H164.608V43.8101C164.543 43.068 164.412 42.3478 164.128 41.693Z" fill="#00A499"/>
<path d="M190.952 52.6498C189.992 53.3919 188.944 53.9593 187.787 54.374C186.631 54.7669 185.408 54.9852 184.121 54.9852C182.571 54.9852 181.109 54.7014 179.755 54.1121C178.402 53.5228 177.224 52.7371 176.198 51.7113C175.194 50.7073 174.386 49.5069 173.797 48.1537C173.208 46.8005 172.924 45.3381 172.924 43.7885C172.924 42.2388 173.208 40.7983 173.797 39.4233C174.386 38.0701 175.172 36.8915 176.198 35.8657C177.202 34.8617 178.402 34.0541 179.755 33.4648C181.109 32.8755 182.571 32.5918 184.121 32.5918C185.67 32.5918 187.111 32.8755 188.486 33.4648C189.839 34.0541 191.018 34.8399 192.043 35.8657C193.047 36.8697 193.855 38.0701 194.444 39.4233C195.033 40.7765 195.317 42.2388 195.317 43.7885C195.317 44.2687 195.295 44.727 195.23 45.1635C195.164 45.6 195.099 46.0365 195.012 46.4512H179.428C179.908 47.2806 180.563 47.9572 181.392 48.4592C182.222 48.9612 183.16 49.2231 184.164 49.2231C184.753 49.2231 185.321 49.1358 185.867 48.9612C186.412 48.7866 186.892 48.5247 187.351 48.1973L190.952 52.6498ZM184.121 38.3538C183.16 38.3538 182.309 38.5721 181.523 39.0304C180.759 39.4669 180.105 40.0562 179.603 40.7765H188.638C188.136 40.0562 187.482 39.4888 186.718 39.0304C185.932 38.5721 185.059 38.3538 184.121 38.3538Z" fill="#00A499"/>
<path d="M212.755 39.7508C212.275 39.3361 211.73 39.0087 211.097 38.7468C210.464 38.4849 209.809 38.3757 209.132 38.3757C208.39 38.3757 207.67 38.5067 207.015 38.7904C206.338 39.0742 205.771 39.467 205.269 39.9472C204.767 40.4492 204.396 41.0167 204.112 41.6933C203.829 42.3699 203.698 43.0683 203.698 43.8104C203.698 44.5525 203.829 45.2727 204.112 45.9275C204.396 46.6041 204.789 47.1716 205.269 47.6736C205.771 48.1756 206.338 48.5466 207.015 48.8304C207.692 49.1141 208.39 49.245 209.132 49.245C209.809 49.245 210.464 49.1141 211.097 48.874C211.73 48.6121 212.275 48.2847 212.755 47.87C213.235 47.4553 213.628 46.9533 213.934 46.364C214.239 45.7747 214.458 45.1418 214.545 44.4652H220.307C220.22 45.9275 219.871 47.3025 219.259 48.5684C218.648 49.8562 217.841 50.9693 216.815 51.9078C215.811 52.8463 214.632 53.5884 213.323 54.134C212.013 54.6797 210.616 54.9634 209.132 54.9634C207.583 54.9634 206.12 54.6797 204.767 54.0904C203.414 53.5011 202.235 52.7154 201.209 51.6895C200.205 50.6855 199.398 49.4851 198.809 48.1319C198.219 46.7787 197.936 45.3164 197.936 43.7667C197.936 42.2171 198.219 40.7766 198.809 39.4016C199.398 38.0484 200.184 36.8698 201.209 35.844C202.213 34.84 203.414 34.0324 204.767 33.4431C206.12 32.8538 207.583 32.5701 209.132 32.5701C210.616 32.5701 212.013 32.8538 213.323 33.3994C214.632 33.9451 215.789 34.6872 216.815 35.6257" fill="#00A499"/>
<path d="M228.689 54.985H222.971V26.8296H228.689V40.8636C229.824 40.8636 230.894 40.6454 231.876 40.2089C232.88 39.7723 233.753 39.183 234.495 38.441C235.237 37.6989 235.826 36.8258 236.263 35.8219C236.699 34.8179 236.917 33.7702 236.917 32.6353H242.723C242.723 34.927 242.221 37.0441 241.239 38.9648C240.257 40.8855 238.925 42.4787 237.267 43.7665C238.969 45.076 240.322 46.6911 241.304 48.6336C242.308 50.5761 242.81 52.6933 242.81 54.985H236.961C236.961 53.85 236.743 52.7806 236.306 51.7766C235.87 50.7726 235.281 49.8777 234.538 49.1356C233.796 48.3936 232.923 47.8043 231.897 47.3677C230.893 46.9312 229.802 46.713 228.689 46.713V54.985Z" fill="#00A499"/>
<path d="M245.494 32.6353V26.8296H251.213V32.6353H245.494ZM251.213 34.0758V54.985H245.494V34.0758H251.213Z" fill="#6CC3C4"/>
<path d="M276.224 54.9851H270.506V43.8102C270.506 43.0681 270.353 42.3479 270.091 41.6931C269.807 41.0165 269.414 40.449 268.934 39.947C268.432 39.445 267.865 39.074 267.188 38.7902C266.512 38.5065 265.813 38.3756 265.071 38.3756C264.329 38.3756 263.609 38.5065 262.954 38.7902C262.277 39.074 261.71 39.4668 261.208 39.947C260.706 40.449 260.335 41.0165 260.051 41.6931C259.767 42.3697 259.636 43.0681 259.636 43.8102V54.9851H253.918V43.8102C253.918 42.2606 254.202 40.8201 254.791 39.445C255.38 38.0918 256.166 36.9132 257.192 35.8874C258.196 34.8834 259.396 34.0759 260.749 33.4866C262.103 32.8973 263.565 32.6135 265.115 32.6135C266.664 32.6135 268.105 32.8973 269.48 33.4866C270.833 34.0759 272.012 34.8616 273.037 35.8874C274.041 36.8914 274.849 38.0918 275.438 39.445C276.028 40.7982 276.311 42.2606 276.311 43.8102V54.9851H276.224Z" fill="#6CC3C4"/>
<path d="M130.361 68.1462C130.361 68.2117 130.339 68.2553 130.318 68.299C130.296 68.3426 130.252 68.3645 130.208 68.3863C130.165 68.4081 130.121 68.4299 130.056 68.4299C130.012 68.4299 129.947 68.4518 129.881 68.4518H129.226C129.117 68.4518 129.03 68.4299 128.986 68.3645C128.943 68.299 128.921 68.2335 128.899 68.1462L128.877 67.7097C128.746 67.8406 128.615 67.9498 128.462 68.0589C128.31 68.168 128.157 68.2553 127.982 68.3426C127.808 68.4299 127.633 68.4736 127.437 68.5172C127.24 68.5609 127.044 68.5827 126.847 68.5827C126.542 68.5827 126.236 68.5391 125.931 68.4518C125.625 68.3645 125.363 68.2553 125.101 68.1025C124.839 67.9498 124.621 67.7752 124.403 67.5569C124.185 67.3386 124.01 67.1204 123.857 66.8585C123.704 66.5966 123.595 66.3346 123.508 66.0291C123.421 65.7454 123.377 65.418 123.377 65.1124C123.377 64.785 123.421 64.4795 123.508 64.1957C123.595 63.912 123.704 63.6282 123.857 63.3663C124.01 63.1044 124.185 62.8862 124.403 62.6679C124.621 62.4497 124.839 62.275 125.101 62.1223C125.363 61.9695 125.625 61.8603 125.931 61.773C126.236 61.6857 126.52 61.6421 126.847 61.6421C127.066 61.6421 127.284 61.6639 127.48 61.7076C127.677 61.7512 127.873 61.8167 128.048 61.904C128.222 61.9913 128.397 62.1004 128.55 62.2096C128.702 62.3405 128.833 62.4715 128.964 62.6024L129.03 62.035C129.052 61.9695 129.074 61.9258 129.074 61.8822C129.095 61.8385 129.117 61.8167 129.139 61.7949C129.161 61.773 129.183 61.7512 129.226 61.7512C129.27 61.7512 129.314 61.7294 129.357 61.7294H129.881C129.947 61.7294 129.99 61.7294 130.056 61.7512C130.121 61.7512 130.165 61.773 130.208 61.7949C130.252 61.8167 130.296 61.8385 130.318 61.8822C130.339 61.9258 130.361 61.9695 130.361 62.035V68.1462ZM124.905 65.1124C124.905 65.3961 124.948 65.6581 125.058 65.8981C125.145 66.1382 125.298 66.3783 125.472 66.5529C125.647 66.7493 125.843 66.9021 126.083 67.0113C126.323 67.1204 126.585 67.1859 126.847 67.1859C127.131 67.1859 127.393 67.1204 127.633 67.0113C127.873 66.9021 128.091 66.7493 128.266 66.5529C128.441 66.3565 128.593 66.1382 128.703 65.8981C128.812 65.6581 128.855 65.3743 128.855 65.1124C128.855 64.8287 128.812 64.5668 128.703 64.3267C128.593 64.0866 128.462 63.8465 128.266 63.6719C128.091 63.4755 127.873 63.3227 127.633 63.2136C127.393 63.1044 127.131 63.0389 126.847 63.0389C126.564 63.0389 126.302 63.1044 126.083 63.2136C125.843 63.3227 125.647 63.4755 125.472 63.6719C125.298 63.8683 125.167 64.0866 125.058 64.3267C124.948 64.5668 124.905 64.8505 124.905 65.1124Z" fill="#046853"/>
<path d="M132.437 66.5746C132.502 66.6838 132.612 66.7929 132.721 66.8802C132.83 66.9675 132.939 67.033 133.07 67.0985C133.179 67.1421 133.31 67.1858 133.397 67.2076C133.506 67.2294 133.594 67.2513 133.659 67.2513C133.747 67.2513 133.877 67.2512 134.008 67.2294C134.139 67.2076 134.27 67.1639 134.38 67.1203C134.489 67.0766 134.598 66.9893 134.685 66.902C134.772 66.8147 134.816 66.6838 134.816 66.5528C134.816 66.4219 134.794 66.2909 134.729 66.2036C134.663 66.1163 134.576 66.0508 134.467 65.9853C134.358 65.9199 134.227 65.8762 134.096 65.8326C133.965 65.7889 133.812 65.7453 133.637 65.7016C133.266 65.6143 132.961 65.4834 132.699 65.3524C132.437 65.2214 132.219 65.0468 132.066 64.8722C131.913 64.6976 131.782 64.5012 131.695 64.2829C131.608 64.0647 131.586 63.8464 131.586 63.5845C131.586 63.3008 131.651 63.0389 131.76 62.7988C131.87 62.5587 132.022 62.3623 132.241 62.1876C132.437 62.013 132.699 61.8821 132.983 61.7948C133.266 61.7075 133.594 61.6638 133.921 61.6638C134.161 61.6638 134.38 61.6856 134.576 61.7293C134.772 61.7729 134.947 61.8384 135.122 61.9257C135.296 62.013 135.449 62.1222 135.58 62.2531C135.733 62.3841 135.864 62.5369 136.016 62.7115C136.06 62.7769 136.104 62.8424 136.104 62.8861C136.104 62.9516 136.06 63.017 135.995 63.0607C135.951 63.1043 135.886 63.148 135.798 63.2135C135.733 63.2789 135.645 63.3444 135.58 63.3881C135.514 63.4535 135.449 63.4972 135.383 63.5409C135.318 63.5845 135.274 63.6063 135.231 63.6063C135.143 63.6063 135.078 63.5627 135.012 63.4754C134.925 63.3881 134.86 63.3008 134.772 63.2353C134.685 63.1698 134.62 63.1043 134.532 63.0607C134.445 63.017 134.358 62.9734 134.249 62.9516C134.161 62.9297 134.052 62.9079 133.921 62.9079C133.834 62.9079 133.725 62.9297 133.616 62.9516C133.506 62.9734 133.419 63.017 133.332 63.0825C133.245 63.148 133.179 63.2135 133.114 63.2789C133.048 63.3662 133.026 63.4535 133.026 63.5409C133.026 63.65 133.07 63.7591 133.135 63.8246C133.201 63.9119 133.288 63.9774 133.419 64.021C133.528 64.0865 133.659 64.1301 133.768 64.1738C133.899 64.2174 134.008 64.2393 134.139 64.2829C134.467 64.3702 134.751 64.4794 135.034 64.5885C135.296 64.6976 135.536 64.8504 135.733 65.025C135.929 65.1996 136.082 65.3961 136.191 65.6143C136.3 65.8544 136.344 66.1163 136.344 66.4219C136.344 66.7492 136.278 67.033 136.147 67.2949C136.016 67.5568 135.842 67.7751 135.602 67.9497C135.383 68.1243 135.1 68.2552 134.794 68.3644C134.489 68.4517 134.139 68.4953 133.768 68.4953C133.55 68.4953 133.332 68.4735 133.092 68.4298C132.874 68.3862 132.655 68.2989 132.437 68.2116C132.219 68.1025 132.044 67.9933 131.87 67.8187C131.695 67.6659 131.542 67.4695 131.433 67.2731C131.389 67.1858 131.346 67.0985 131.346 67.033C131.346 66.9893 131.368 66.9457 131.389 66.9239C131.411 66.8802 131.433 66.8584 131.477 66.8366L132.066 66.3782C132.11 66.3564 132.175 66.3346 132.219 66.3346C132.262 66.3346 132.306 66.3564 132.35 66.3782C132.35 66.4655 132.393 66.531 132.437 66.5746Z" fill="#046853"/>
<path d="M138.22 66.5746C138.286 66.6838 138.395 66.7929 138.504 66.8802C138.613 66.9675 138.722 67.033 138.853 67.0985C138.962 67.1421 139.093 67.1858 139.181 67.2076C139.29 67.2294 139.377 67.2513 139.442 67.2513C139.53 67.2513 139.661 67.2512 139.792 67.2294C139.923 67.2076 140.054 67.1639 140.163 67.1203C140.272 67.0766 140.381 66.9893 140.468 66.902C140.556 66.8147 140.599 66.6838 140.599 66.5528C140.599 66.4219 140.577 66.2909 140.512 66.2036C140.446 66.1163 140.359 66.0508 140.25 65.9853C140.141 65.9199 140.01 65.8762 139.879 65.8326C139.748 65.7889 139.595 65.7453 139.421 65.7016C139.05 65.6143 138.744 65.4834 138.482 65.3524C138.22 65.2214 138.002 65.0468 137.849 64.8722C137.675 64.6976 137.565 64.5012 137.478 64.2829C137.391 64.0647 137.369 63.8464 137.369 63.5845C137.369 63.3008 137.435 63.0389 137.544 62.7988C137.653 62.5587 137.806 62.3623 138.024 62.1876C138.22 62.013 138.482 61.8821 138.766 61.7948C139.05 61.7075 139.377 61.6638 139.704 61.6638C139.944 61.6638 140.163 61.6856 140.359 61.7293C140.556 61.7729 140.73 61.8384 140.905 61.9257C141.079 62.013 141.232 62.1222 141.363 62.2531C141.494 62.3841 141.647 62.5369 141.8 62.7115C141.843 62.7769 141.887 62.8424 141.887 62.8861C141.887 62.9516 141.843 63.017 141.778 63.0607C141.734 63.1043 141.669 63.148 141.581 63.2135C141.516 63.2789 141.429 63.3444 141.363 63.3881C141.298 63.4535 141.232 63.4972 141.167 63.5409C141.101 63.5845 141.058 63.6063 141.014 63.6063C140.927 63.6063 140.861 63.5627 140.796 63.4754C140.708 63.3881 140.643 63.3008 140.556 63.2353C140.468 63.1698 140.403 63.1043 140.316 63.0607C140.228 63.017 140.141 62.9734 140.032 62.9516C139.944 62.9297 139.835 62.9079 139.704 62.9079C139.617 62.9079 139.508 62.9297 139.399 62.9516C139.29 62.9734 139.202 63.017 139.115 63.0825C139.028 63.148 138.962 63.2135 138.897 63.2789C138.831 63.3662 138.809 63.4535 138.809 63.5409C138.809 63.65 138.853 63.7591 138.919 63.8246C138.984 63.9119 139.071 63.9774 139.202 64.021C139.311 64.0865 139.442 64.1301 139.552 64.1738C139.683 64.2174 139.792 64.2393 139.923 64.2829C140.25 64.3702 140.534 64.4794 140.818 64.5885C141.079 64.6976 141.319 64.8504 141.516 65.025C141.712 65.1996 141.865 65.3961 141.974 65.6143C142.083 65.8544 142.127 66.1163 142.127 66.4219C142.127 66.7492 142.062 67.033 141.931 67.2949C141.8 67.5568 141.625 67.7751 141.385 67.9497C141.167 68.1243 140.883 68.2552 140.577 68.3644C140.272 68.4517 139.923 68.4953 139.552 68.4953C139.333 68.4953 139.115 68.4735 138.875 68.4298C138.657 68.3862 138.438 68.2989 138.22 68.2116C138.002 68.1025 137.827 67.9933 137.653 67.8187C137.478 67.6659 137.325 67.4695 137.216 67.2731C137.173 67.1858 137.129 67.0985 137.129 67.033C137.129 66.9893 137.151 66.9457 137.173 66.9239C137.194 66.8802 137.216 66.8584 137.26 66.8366L137.849 66.3782C137.893 66.3564 137.958 66.3346 138.002 66.3346C138.046 66.3346 138.089 66.3564 138.133 66.3782C138.133 66.4655 138.155 66.531 138.22 66.5746Z" fill="#046853"/>
<path d="M143.021 65.1341C143.021 64.8068 143.065 64.5012 143.152 64.2174C143.24 63.9119 143.349 63.65 143.502 63.3881C143.654 63.1262 143.829 62.9079 144.047 62.6896C144.266 62.4714 144.484 62.2968 144.746 62.144C145.008 61.9912 145.27 61.8821 145.575 61.7948C145.881 61.7075 146.164 61.6638 146.492 61.6638C146.797 61.6638 147.103 61.7075 147.409 61.7948C147.692 61.8821 147.976 61.9912 148.238 62.144C148.5 62.2968 148.718 62.4714 148.936 62.6896C149.155 62.9079 149.329 63.1262 149.482 63.3881C149.635 63.65 149.744 63.9119 149.831 64.2174C149.918 64.523 149.962 64.8286 149.962 65.1341C149.962 65.4615 149.918 65.7671 149.831 66.0508C149.744 66.3346 149.635 66.6183 149.482 66.8802C149.329 67.1421 149.155 67.3604 148.936 67.5786C148.718 67.7969 148.5 67.9715 148.238 68.1243C147.976 68.2771 147.714 68.3862 147.409 68.4735C147.125 68.5608 146.819 68.6044 146.492 68.6044C146.164 68.6044 145.859 68.5608 145.575 68.4735C145.291 68.3862 145.008 68.2771 144.746 68.1243C144.484 67.9715 144.266 67.7969 144.047 67.5786C143.829 67.3604 143.654 67.1421 143.502 66.8802C143.349 66.6183 143.24 66.3564 143.152 66.0508C143.065 65.7671 143.021 65.4615 143.021 65.1341ZM144.506 65.1341C144.506 65.4179 144.549 65.6798 144.658 65.9199C144.746 66.16 144.899 66.3782 145.073 66.5746C145.248 66.7711 145.466 66.902 145.706 67.0112C145.946 67.1203 146.208 67.1639 146.492 67.1639C146.776 67.1639 147.016 67.1203 147.256 67.0112C147.496 66.902 147.692 66.7492 147.867 66.5746C148.041 66.4 148.172 66.1818 148.26 65.9199C148.347 65.6798 148.412 65.396 148.412 65.1341C148.412 64.8504 148.369 64.5885 148.26 64.3484C148.172 64.0865 148.02 63.8682 147.867 63.6936C147.692 63.4972 147.496 63.3444 147.256 63.2353C147.016 63.1262 146.754 63.0607 146.492 63.0607C146.208 63.0607 145.946 63.1262 145.706 63.2353C145.466 63.3444 145.248 63.4972 145.073 63.6936C144.899 63.8901 144.768 64.1083 144.658 64.3484C144.549 64.5885 144.506 64.8504 144.506 65.1341Z" fill="#046853"/>
<path d="M155.593 66.7057C155.658 66.662 155.702 66.6402 155.745 66.6402C155.789 66.6402 155.811 66.6183 155.855 66.6183C155.92 66.6183 155.964 66.662 156.007 66.7057L156.138 66.8803L156.509 67.4041C156.531 67.4259 156.531 67.4477 156.553 67.4696C156.553 67.4914 156.575 67.5132 156.575 67.535C156.575 67.6005 156.553 67.6442 156.509 67.6878C156.466 67.7315 156.422 67.7751 156.357 67.8188C156.051 68.037 155.745 68.2116 155.396 68.3426C155.047 68.4735 154.676 68.539 154.261 68.539C153.956 68.539 153.65 68.4954 153.345 68.4081C153.061 68.3208 152.777 68.2116 152.515 68.0588C152.253 67.9061 152.035 67.7315 151.817 67.5132C151.599 67.2949 151.424 67.0767 151.271 66.8148C151.118 66.5529 151.009 66.2909 150.922 65.9854C150.835 65.7016 150.791 65.3743 150.791 65.0687C150.791 64.7413 150.835 64.4358 150.922 64.152C151.009 63.8683 151.118 63.5845 151.271 63.3226C151.424 63.0607 151.599 62.8425 151.817 62.6242C152.035 62.4059 152.253 62.2313 152.515 62.0786C152.777 61.9258 153.039 61.8166 153.345 61.7293C153.628 61.642 153.934 61.5984 154.261 61.5984C154.654 61.5984 155.025 61.6639 155.374 61.773C155.724 61.8821 156.029 62.0567 156.291 62.2532C156.335 62.2968 156.378 62.3405 156.444 62.3841C156.509 62.4278 156.509 62.4714 156.509 62.5587C156.509 62.5806 156.509 62.6024 156.509 62.6242C156.509 62.646 156.509 62.6679 156.488 62.7115L156.051 63.3663C155.986 63.4754 155.898 63.5191 155.811 63.5191C155.745 63.5191 155.68 63.4972 155.615 63.4318C155.44 63.279 155.222 63.148 154.982 63.0607C154.741 62.9734 154.501 62.9298 154.24 62.9298C153.978 62.9298 153.716 62.9953 153.476 63.1044C153.236 63.2135 153.017 63.3663 152.843 63.5627C152.668 63.7592 152.515 63.9774 152.406 64.2393C152.297 64.5012 152.253 64.7631 152.253 65.0469C152.253 65.3306 152.297 65.6143 152.406 65.8763C152.515 66.1382 152.646 66.3564 152.843 66.5529C153.017 66.7493 153.236 66.9021 153.476 67.0112C153.716 67.1203 153.978 67.1858 154.24 67.1858C154.545 67.1858 154.785 67.1422 155.003 67.033C155.222 66.9676 155.418 66.8584 155.593 66.7057Z" fill="#046853"/>
<path d="M157.668 59.7868C157.668 59.5685 157.777 59.4812 157.974 59.4812H158.847C158.934 59.4812 159.021 59.503 159.087 59.5685C159.152 59.6122 159.174 59.6995 159.174 59.8086V60.5943C159.174 60.6816 159.152 60.7471 159.087 60.8126C159.021 60.8781 158.956 60.9217 158.847 60.9217H157.974C157.755 60.9217 157.668 60.8126 157.668 60.5943V59.7868ZM157.668 62.1003C157.668 62.013 157.69 61.9257 157.755 61.882C157.799 61.8166 157.886 61.7948 157.995 61.7948H158.868C158.912 61.7948 158.956 61.7947 158.978 61.8166C159.021 61.8384 159.043 61.8602 159.087 61.882C159.108 61.9039 159.152 61.9475 159.174 61.9912C159.196 62.0348 159.196 62.0785 159.196 62.1221V68.1461C159.196 68.3643 159.087 68.4516 158.868 68.4516H157.995C157.777 68.4516 157.69 68.3425 157.69 68.1461V62.1003H157.668Z" fill="#046853"/>
<path d="M167.574 68.1462C167.574 68.2117 167.552 68.2553 167.53 68.299C167.509 68.3426 167.465 68.3645 167.421 68.3863C167.378 68.4081 167.334 68.4299 167.269 68.4299C167.225 68.4299 167.159 68.4518 167.094 68.4518H166.439C166.33 68.4518 166.243 68.4299 166.199 68.3645C166.155 68.299 166.134 68.2335 166.112 68.1462L166.09 67.7097C165.959 67.8406 165.828 67.9498 165.675 68.0589C165.523 68.168 165.37 68.2553 165.195 68.3426C165.021 68.4299 164.846 68.4736 164.649 68.5172C164.453 68.5609 164.257 68.5827 164.06 68.5827C163.755 68.5827 163.449 68.5391 163.143 68.4518C162.86 68.3645 162.576 68.2553 162.314 68.1025C162.052 67.9498 161.834 67.7752 161.616 67.5569C161.397 67.3386 161.223 67.1204 161.07 66.8585C160.917 66.5966 160.808 66.3346 160.721 66.0291C160.634 65.7454 160.59 65.418 160.59 65.1124C160.59 64.785 160.634 64.4795 160.721 64.1957C160.808 63.912 160.917 63.6282 161.07 63.3663C161.223 63.1044 161.397 62.8862 161.616 62.6679C161.834 62.4497 162.052 62.275 162.314 62.1223C162.576 61.9695 162.838 61.8603 163.143 61.773C163.427 61.6857 163.733 61.6421 164.06 61.6421C164.278 61.6421 164.497 61.6639 164.693 61.7076C164.89 61.7512 165.086 61.8167 165.261 61.904C165.435 61.9913 165.61 62.1004 165.763 62.2096C165.915 62.3405 166.046 62.4715 166.177 62.6024L166.243 62.035C166.265 61.9695 166.286 61.9258 166.286 61.8822C166.308 61.8385 166.33 61.8167 166.352 61.7949C166.374 61.773 166.396 61.7512 166.439 61.7512C166.483 61.7512 166.527 61.7294 166.57 61.7294H167.094C167.159 61.7294 167.203 61.7294 167.269 61.7512C167.334 61.7512 167.378 61.773 167.421 61.7949C167.465 61.8167 167.509 61.8385 167.53 61.8822C167.552 61.9258 167.574 61.9695 167.574 62.035V68.1462ZM162.118 65.1124C162.118 65.3961 162.161 65.6581 162.27 65.8981C162.358 66.1382 162.511 66.3783 162.685 66.5529C162.86 66.7493 163.056 66.9021 163.296 67.0113C163.536 67.1204 163.798 67.1859 164.06 67.1859C164.344 67.1859 164.606 67.1204 164.846 67.0113C165.086 66.9021 165.304 66.7493 165.479 66.5529C165.653 66.3565 165.806 66.1382 165.915 65.8981C166.025 65.6581 166.068 65.3743 166.068 65.1124C166.068 64.8287 166.025 64.5668 165.915 64.3267C165.806 64.0866 165.675 63.8465 165.479 63.6719C165.304 63.4755 165.086 63.3227 164.846 63.2136C164.606 63.1044 164.344 63.0389 164.06 63.0389C163.776 63.0389 163.515 63.1044 163.296 63.2136C163.078 63.3227 162.86 63.4755 162.685 63.6719C162.511 63.8683 162.38 64.0866 162.27 64.3267C162.161 64.5668 162.118 64.8505 162.118 65.1124Z" fill="#046853"/>
<path d="M171.352 68.4517C171.068 68.4517 170.806 68.408 170.566 68.3207C170.326 68.2334 170.108 68.1243 169.933 67.9715C169.759 67.8187 169.606 67.6223 169.497 67.404C169.388 67.1857 169.344 66.9238 169.344 66.6401V65.7671V63.0825H168.733C168.624 63.0825 168.558 63.0607 168.515 63.017C168.471 62.9734 168.449 62.8861 168.449 62.7987V62.0348C168.449 61.9257 168.471 61.8602 168.515 61.8166C168.558 61.7729 168.646 61.7511 168.733 61.7511H169.344C169.344 61.5765 169.344 61.3801 169.344 61.2055C169.344 61.0309 169.344 60.8344 169.344 60.6598C169.344 60.5943 169.366 60.5289 169.41 60.4852C169.453 60.4416 169.519 60.4197 169.606 60.3761C169.671 60.3543 169.737 60.3324 169.824 60.3106C169.912 60.2888 169.999 60.2451 170.086 60.2233C170.173 60.2015 170.261 60.1796 170.348 60.1578C170.435 60.136 170.501 60.136 170.566 60.136C170.675 60.136 170.741 60.1578 170.785 60.2233C170.806 60.2888 170.828 60.3542 170.828 60.4634C170.828 60.6816 170.828 60.8999 170.828 61.1182C170.828 61.3364 170.828 61.5547 170.828 61.7729H171.592C171.679 61.7729 171.745 61.7948 171.81 61.8384C171.854 61.8821 171.876 61.9694 171.876 62.0567V62.7769C171.876 62.8861 171.854 62.9734 171.81 63.017C171.767 63.0607 171.701 63.0825 171.592 63.0825H170.828C170.828 63.3007 170.828 63.4972 170.828 63.6718C170.828 63.8246 170.828 63.9773 170.828 64.0865C170.828 64.2174 170.828 64.3266 170.828 64.4357C170.828 64.5448 170.828 64.6539 170.828 64.7849C170.828 64.9159 170.828 65.0468 170.828 65.1996C170.828 65.3524 170.828 65.5488 170.828 65.7889V65.8107V65.8325V66.531C170.828 66.7711 170.872 66.9238 170.959 67.033C171.046 67.1421 171.199 67.1857 171.396 67.1857C171.461 67.1857 171.527 67.2076 171.57 67.2731C171.614 67.3167 171.636 67.3822 171.636 67.4695V68.1897C171.636 68.277 171.614 68.3425 171.57 68.408C171.505 68.4298 171.439 68.4517 171.352 68.4517Z" fill="#046853"/>
<path d="M172.924 59.7868C172.924 59.5685 173.033 59.4812 173.229 59.4812H174.102C174.19 59.4812 174.277 59.503 174.343 59.5685C174.408 59.6122 174.43 59.6995 174.43 59.8086V60.5943C174.43 60.6816 174.408 60.7471 174.343 60.8126C174.277 60.8781 174.212 60.9217 174.102 60.9217H173.229C173.011 60.9217 172.924 60.8126 172.924 60.5943V59.7868ZM172.924 62.1003C172.924 62.013 172.946 61.9257 173.011 61.882C173.055 61.8166 173.142 61.7948 173.251 61.7948H174.124C174.168 61.7948 174.212 61.7947 174.233 61.8166C174.277 61.8384 174.299 61.8602 174.343 61.882C174.364 61.9039 174.408 61.9475 174.43 61.9912C174.452 62.0348 174.452 62.0785 174.452 62.1221V68.1461C174.452 68.3643 174.343 68.4516 174.124 68.4516H173.251C173.033 68.4516 172.946 68.3425 172.946 68.1461V62.1003H172.924Z" fill="#046853"/>
<path d="M175.893 65.1341C175.893 64.8068 175.936 64.5012 176.024 64.2174C176.111 63.9119 176.22 63.65 176.373 63.3881C176.526 63.1262 176.7 62.9079 176.918 62.6896C177.137 62.4714 177.355 62.2968 177.617 62.144C177.879 61.9912 178.141 61.8821 178.446 61.7948C178.73 61.7075 179.035 61.6638 179.363 61.6638C179.668 61.6638 179.974 61.7075 180.28 61.7948C180.563 61.8821 180.847 61.9912 181.109 62.144C181.371 62.2968 181.589 62.4714 181.807 62.6896C182.026 62.9079 182.2 63.1262 182.353 63.3881C182.506 63.65 182.615 63.9119 182.702 64.2174C182.79 64.523 182.833 64.8286 182.833 65.1341C182.833 65.4615 182.79 65.7671 182.702 66.0508C182.615 66.3346 182.506 66.6183 182.353 66.8802C182.2 67.1421 182.026 67.3604 181.807 67.5786C181.589 67.7969 181.371 67.9715 181.109 68.1243C180.847 68.2771 180.585 68.3862 180.28 68.4735C179.996 68.5608 179.69 68.6044 179.363 68.6044C179.035 68.6044 178.73 68.5608 178.446 68.4735C178.162 68.3862 177.879 68.2771 177.617 68.1243C177.355 67.9715 177.137 67.7969 176.918 67.5786C176.7 67.3604 176.526 67.1421 176.373 66.8802C176.22 66.6183 176.111 66.3564 176.024 66.0508C175.936 65.7671 175.893 65.4615 175.893 65.1341ZM177.377 65.1341C177.377 65.4179 177.42 65.6798 177.53 65.9199C177.617 66.16 177.77 66.3782 177.944 66.5746C178.119 66.7711 178.337 66.902 178.577 67.0112C178.817 67.1203 179.079 67.1639 179.363 67.1639C179.647 67.1639 179.887 67.1203 180.127 67.0112C180.367 66.902 180.563 66.7492 180.738 66.5746C180.913 66.4 181.043 66.1818 181.131 65.9199C181.218 65.6798 181.284 65.396 181.284 65.1341C181.284 64.8504 181.24 64.5885 181.131 64.3484C181.043 64.0865 180.891 63.8682 180.738 63.6936C180.563 63.4972 180.367 63.3444 180.127 63.2353C179.887 63.1262 179.625 63.0607 179.363 63.0607C179.079 63.0607 178.817 63.1262 178.577 63.2353C178.337 63.3444 178.141 63.4972 177.944 63.6936C177.77 63.8901 177.639 64.1083 177.53 64.3484C177.442 64.5885 177.377 64.8504 177.377 65.1341Z" fill="#046853"/>
<path d="M184.052 61.9478C184.096 61.8823 184.14 61.8604 184.183 61.8386C184.205 61.8168 184.249 61.795 184.314 61.795C184.38 61.795 184.423 61.795 184.467 61.795H184.991C185.1 61.795 185.165 61.8386 185.209 61.9041C185.253 61.9696 185.296 62.0351 185.318 62.1224L185.384 62.6898C185.471 62.5807 185.558 62.4498 185.689 62.3406C185.798 62.2315 185.951 62.1224 186.104 62.0351C186.257 61.9478 186.453 61.8605 186.65 61.8168C186.846 61.7513 187.086 61.7295 187.348 61.7295C187.763 61.7295 188.134 61.795 188.461 61.9478C188.788 62.1005 189.05 62.297 189.269 62.5589C189.487 62.8208 189.661 63.1263 189.771 63.4756C189.88 63.8248 189.945 64.1958 189.945 64.6105V68.1027C189.945 68.2336 189.923 68.3209 189.858 68.3864C189.792 68.4519 189.705 68.4737 189.596 68.4737H188.788C188.657 68.4737 188.548 68.4519 188.505 68.3864C188.461 68.3427 188.439 68.2336 188.439 68.1027V64.6105C188.439 64.4359 188.417 64.2395 188.352 64.0649C188.286 63.8903 188.199 63.7375 188.068 63.5847C187.937 63.4537 187.806 63.3228 187.61 63.2573C187.435 63.17 187.217 63.1264 186.999 63.1264C186.846 63.1264 186.671 63.1482 186.497 63.2137C186.322 63.2791 186.169 63.3664 186.017 63.4974C185.864 63.6065 185.755 63.7593 185.667 63.9339C185.58 64.1085 185.515 64.3049 185.515 64.5014V67.9062C185.515 67.9717 185.515 68.0372 185.515 68.1027C185.515 68.1681 185.493 68.2336 185.471 68.2773C185.449 68.3209 185.405 68.3646 185.384 68.4082C185.34 68.43 185.296 68.4519 185.231 68.4519H184.358C184.249 68.4519 184.161 68.43 184.096 68.3646C184.052 68.3209 184.009 68.2336 184.009 68.1245V62.0787C183.987 62.0569 184.009 61.9914 184.052 61.9478Z" fill="#046853"/>
<path d="M194.182 65.1341C194.182 64.8068 194.225 64.5012 194.313 64.2174C194.4 63.9119 194.509 63.65 194.662 63.3881C194.815 63.1262 194.989 62.9079 195.207 62.6896C195.426 62.4714 195.644 62.2968 195.906 62.144C196.168 61.9912 196.43 61.8821 196.735 61.7948C197.019 61.7075 197.325 61.6638 197.652 61.6638C197.957 61.6638 198.263 61.7075 198.569 61.7948C198.852 61.8821 199.136 61.9912 199.398 62.144C199.66 62.2968 199.878 62.4714 200.096 62.6896C200.315 62.9079 200.489 63.1262 200.642 63.3881C200.795 63.65 200.904 63.9119 200.991 64.2174C201.079 64.523 201.122 64.8286 201.122 65.1341C201.122 65.4615 201.079 65.7671 200.991 66.0508C200.904 66.3346 200.795 66.6183 200.642 66.8802C200.489 67.1421 200.315 67.3604 200.096 67.5786C199.878 67.7969 199.66 67.9715 199.398 68.1243C199.136 68.2771 198.874 68.3862 198.569 68.4735C198.285 68.5608 197.979 68.6044 197.652 68.6044C197.325 68.6044 197.019 68.5608 196.735 68.4735C196.452 68.3862 196.168 68.2771 195.906 68.1243C195.644 67.9715 195.426 67.7969 195.207 67.5786C194.989 67.3604 194.815 67.1421 194.662 66.8802C194.509 66.6183 194.4 66.3564 194.313 66.0508C194.225 65.7671 194.182 65.4615 194.182 65.1341ZM195.666 65.1341C195.666 65.4179 195.709 65.6798 195.819 65.9199C195.906 66.16 196.059 66.3782 196.233 66.5746C196.408 66.7711 196.626 66.902 196.866 67.0112C197.106 67.1203 197.368 67.1639 197.652 67.1639C197.936 67.1639 198.176 67.1203 198.416 67.0112C198.656 66.902 198.852 66.7492 199.027 66.5746C199.202 66.4 199.333 66.1818 199.42 65.9199C199.507 65.6798 199.573 65.396 199.573 65.1341C199.573 64.8504 199.529 64.5885 199.42 64.3484C199.333 64.0865 199.18 63.8682 199.027 63.6936C198.852 63.4972 198.656 63.3444 198.416 63.2353C198.176 63.1262 197.914 63.0607 197.652 63.0607C197.368 63.0607 197.106 63.1262 196.866 63.2353C196.626 63.3444 196.408 63.4972 196.233 63.6936C196.059 63.8901 195.928 64.1083 195.819 64.3484C195.709 64.5885 195.666 64.8504 195.666 65.1341Z" fill="#046853"/>
<path d="M202.736 61.8168C202.736 61.5112 202.78 61.2057 202.867 60.9219C202.955 60.6382 203.107 60.3763 203.282 60.158C203.457 59.9398 203.697 59.7651 203.959 59.6342C204.22 59.5032 204.526 59.4377 204.853 59.4377H204.897C205.006 59.4377 205.072 59.4596 205.137 59.5251C205.203 59.5905 205.224 59.6778 205.224 59.7651V60.4854C205.224 60.5945 205.203 60.6818 205.137 60.7473C205.094 60.8128 205.006 60.8564 204.919 60.8564C204.875 60.8564 204.81 60.8783 204.722 60.9001C204.635 60.9219 204.57 60.9656 204.482 61.031C204.417 61.0965 204.351 61.162 204.286 61.2493C204.242 61.3366 204.199 61.4457 204.199 61.5549V62.4061H204.963C205.072 62.4061 205.137 62.4279 205.203 62.4934C205.268 62.537 205.29 62.6243 205.29 62.7553V63.4101C205.29 63.541 205.268 63.6283 205.203 63.6938C205.137 63.7593 205.072 63.7811 204.963 63.7811H204.199V68.1463C204.199 68.2554 204.155 68.3427 204.09 68.4082C204.024 68.4737 203.937 68.4955 203.849 68.4955H203.042C202.933 68.4955 202.845 68.4737 202.802 68.4082C202.736 68.3427 202.714 68.2554 202.714 68.1681V63.8029H202.191C202.082 63.8029 202.016 63.7811 201.951 63.7156C201.885 63.6501 201.863 63.5628 201.863 63.4319V62.7771C201.863 62.6462 201.885 62.5589 201.951 62.5152C202.016 62.4715 202.103 62.4279 202.191 62.4279H202.714V61.8168H202.736Z" fill="#046853"/>
<path d="M210.267 66.5746C210.333 66.6838 210.442 66.7929 210.551 66.8802C210.66 66.9675 210.769 67.033 210.9 67.0985C211.009 67.1421 211.14 67.1858 211.227 67.2076C211.337 67.2294 211.424 67.2513 211.489 67.2513C211.577 67.2513 211.708 67.2512 211.839 67.2294C211.969 67.2076 212.1 67.1639 212.21 67.1203C212.319 67.0766 212.428 66.9893 212.515 66.902C212.602 66.8147 212.646 66.6838 212.646 66.5528C212.646 66.4219 212.624 66.2909 212.559 66.2036C212.493 66.1163 212.406 66.0508 212.297 65.9853C212.188 65.9199 212.057 65.8762 211.926 65.8326C211.795 65.7889 211.642 65.7453 211.467 65.7016C211.096 65.6143 210.791 65.4834 210.529 65.3524C210.267 65.2214 210.049 65.0468 209.896 64.8722C209.743 64.6976 209.612 64.5012 209.525 64.2829C209.438 64.0647 209.416 63.8464 209.416 63.5845C209.416 63.3008 209.481 63.0389 209.59 62.7988C209.7 62.5587 209.852 62.3623 210.071 62.1876C210.267 62.013 210.529 61.8821 210.813 61.7948C211.096 61.7075 211.424 61.6638 211.751 61.6638C211.991 61.6638 212.21 61.6856 212.406 61.7293C212.602 61.7729 212.777 61.8384 212.952 61.9257C213.126 62.013 213.279 62.1222 213.41 62.2531C213.541 62.3841 213.694 62.5369 213.846 62.7115C213.89 62.7769 213.934 62.8424 213.934 62.8861C213.934 62.9516 213.89 63.017 213.825 63.0607C213.781 63.1043 213.716 63.148 213.628 63.2135C213.563 63.2789 213.475 63.3444 213.41 63.3881C213.345 63.4535 213.279 63.4972 213.214 63.5409C213.148 63.5845 213.104 63.6063 213.061 63.6063C212.973 63.6063 212.908 63.5627 212.843 63.4754C212.755 63.3881 212.69 63.3008 212.602 63.2353C212.515 63.1698 212.45 63.1043 212.362 63.0607C212.275 63.017 212.188 62.9734 212.079 62.9516C211.991 62.9297 211.882 62.9079 211.751 62.9079C211.664 62.9079 211.555 62.9297 211.446 62.9516C211.337 62.9734 211.249 63.017 211.162 63.0825C211.075 63.148 211.009 63.2135 210.944 63.2789C210.878 63.3662 210.856 63.4535 210.856 63.5409C210.856 63.65 210.9 63.7591 210.965 63.8246C211.031 63.9119 211.118 63.9774 211.249 64.021C211.358 64.0865 211.489 64.1301 211.598 64.1738C211.729 64.2174 211.839 64.2393 211.97 64.2829C212.297 64.3702 212.581 64.4794 212.864 64.5885C213.126 64.6976 213.366 64.8504 213.563 65.025C213.759 65.1996 213.912 65.3961 214.021 65.6143C214.13 65.8544 214.174 66.1163 214.174 66.4219C214.174 66.7492 214.108 67.033 213.977 67.2949C213.847 67.5568 213.672 67.7751 213.432 67.9497C213.214 68.1243 212.93 68.2552 212.624 68.3644C212.319 68.4517 211.969 68.4953 211.598 68.4953C211.38 68.4953 211.162 68.4735 210.922 68.4298C210.704 68.3862 210.485 68.2989 210.267 68.2116C210.049 68.1025 209.874 67.9933 209.7 67.8187C209.525 67.6659 209.372 67.4695 209.263 67.2731C209.219 67.1858 209.176 67.0985 209.176 67.033C209.176 66.9893 209.198 66.9457 209.219 66.9239C209.241 66.8802 209.263 66.8584 209.307 66.8366L209.896 66.3782C209.94 66.3564 210.005 66.3346 210.049 66.3346C210.092 66.3346 210.136 66.3564 210.18 66.3782C210.18 66.4655 210.223 66.531 210.267 66.5746Z" fill="#046853"/>
<path d="M221.113 68.2553C221.113 68.299 221.091 68.3208 221.069 68.3426C221.048 68.3645 221.004 68.3863 220.982 68.3863C220.938 68.3863 220.895 68.4081 220.851 68.4081C220.807 68.4081 220.764 68.4081 220.72 68.4081H220.196C220.087 68.4081 220.022 68.3863 219.978 68.3208C219.934 68.2553 219.891 68.1898 219.869 68.1025L219.803 67.6224C219.738 67.7315 219.629 67.8406 219.52 67.9498C219.411 68.0589 219.258 68.1462 219.105 68.2335C218.952 68.3208 218.756 68.3863 218.559 68.4299C218.363 68.4736 218.123 68.4954 217.861 68.4954C217.446 68.4954 217.075 68.4299 216.748 68.2772C216.42 68.1244 216.159 67.9279 215.94 67.666C215.722 67.4041 215.569 67.0986 215.438 66.7493C215.329 66.4001 215.264 66.0291 215.264 65.6144V62.1223C215.264 61.9913 215.286 61.904 215.351 61.8385C215.416 61.773 215.504 61.7512 215.613 61.7512H216.42C216.551 61.7512 216.661 61.773 216.704 61.8385C216.748 61.8822 216.77 61.9913 216.77 62.1223V65.6144C216.77 65.8108 216.791 65.9854 216.857 66.1601C216.922 66.3347 217.01 66.4874 217.119 66.6402C217.228 66.7712 217.381 66.9021 217.555 66.9676C217.73 67.0549 217.926 67.0986 218.167 67.0986C218.319 67.0986 218.494 67.0767 218.669 67.0113C218.843 66.9458 218.996 66.8803 219.149 66.7493C219.301 66.6402 219.411 66.4874 219.498 66.3128C219.585 66.1382 219.629 65.9418 219.629 65.7017V62.2969C219.629 62.2314 219.629 62.1659 219.629 62.1004C219.629 62.035 219.651 61.9695 219.672 61.9258C219.694 61.8822 219.716 61.8385 219.76 61.7949C219.803 61.7512 219.847 61.7512 219.934 61.7512H220.807C220.917 61.7512 221.004 61.773 221.069 61.8385C221.113 61.904 221.157 61.9695 221.157 62.0786V68.1244C221.2 68.168 221.178 68.2117 221.113 68.2553Z" fill="#046853"/>
<path d="M223.384 66.5746C223.45 66.6838 223.559 66.7929 223.668 66.8802C223.777 66.9675 223.886 67.033 224.017 67.0985C224.126 67.1421 224.236 67.1858 224.345 67.2076C224.454 67.2294 224.541 67.2513 224.607 67.2513C224.694 67.2513 224.825 67.2512 224.956 67.2294C225.087 67.2076 225.218 67.1639 225.327 67.1203C225.436 67.0766 225.545 66.9893 225.632 66.902C225.72 66.8147 225.763 66.6838 225.763 66.5528C225.763 66.4219 225.741 66.2909 225.676 66.2036C225.611 66.1163 225.523 66.0508 225.414 65.9853C225.305 65.9199 225.174 65.8762 225.043 65.8326C224.912 65.7889 224.759 65.7453 224.585 65.7016C224.214 65.6143 223.908 65.4834 223.646 65.3524C223.384 65.2214 223.166 65.0468 223.013 64.8722C222.86 64.6976 222.73 64.5012 222.642 64.2829C222.577 64.0647 222.533 63.8464 222.533 63.5845C222.533 63.3008 222.599 63.0389 222.708 62.7988C222.817 62.5587 222.97 62.3623 223.188 62.1876C223.384 62.013 223.624 61.8821 223.93 61.7948C224.214 61.7075 224.541 61.6638 224.868 61.6638C225.109 61.6638 225.327 61.6856 225.523 61.7293C225.72 61.7729 225.894 61.8384 226.069 61.9257C226.243 62.013 226.396 62.1222 226.527 62.2531C226.658 62.3841 226.811 62.5369 226.964 62.7115C227.007 62.7769 227.051 62.8424 227.051 62.8861C227.051 62.9516 227.007 63.017 226.942 63.0607C226.898 63.1043 226.833 63.148 226.745 63.2135C226.68 63.2789 226.593 63.3444 226.527 63.3881C226.462 63.4535 226.396 63.4972 226.331 63.5409C226.265 63.5845 226.222 63.6063 226.178 63.6063C226.113 63.6063 226.025 63.5627 225.96 63.4754C225.872 63.3881 225.807 63.3008 225.72 63.2353C225.654 63.1698 225.567 63.1043 225.48 63.0607C225.392 63.017 225.305 62.9734 225.218 62.9516C225.13 62.9297 225.021 62.9079 224.89 62.9079C224.803 62.9079 224.694 62.9297 224.585 62.9516C224.476 62.9734 224.388 63.017 224.301 63.0825C224.214 63.148 224.148 63.2135 224.083 63.2789C224.017 63.3662 223.995 63.4535 223.995 63.5409C223.995 63.65 224.039 63.7591 224.105 63.8246C224.17 63.9119 224.257 63.9774 224.366 64.021C224.476 64.0865 224.607 64.1301 224.716 64.1738C224.847 64.2174 224.956 64.2393 225.087 64.2829C225.414 64.3702 225.698 64.4794 225.982 64.5885C226.243 64.6976 226.484 64.8504 226.68 65.025C226.876 65.1996 227.029 65.3961 227.138 65.6143C227.247 65.8544 227.291 66.1163 227.291 66.4219C227.291 66.7492 227.226 67.033 227.095 67.2949C226.964 67.5568 226.789 67.7751 226.549 67.9497C226.309 68.1243 226.047 68.2552 225.741 68.3644C225.436 68.4517 225.087 68.4953 224.716 68.4953C224.497 68.4953 224.279 68.4735 224.039 68.4298C223.821 68.3862 223.603 68.2989 223.384 68.2116C223.166 68.1025 222.991 67.9933 222.817 67.8187C222.642 67.6659 222.489 67.4695 222.38 67.2731C222.337 67.1858 222.293 67.0985 222.293 67.033C222.293 66.9893 222.315 66.9457 222.337 66.9239C222.358 66.8802 222.38 66.8584 222.424 66.8366L223.013 66.3782C223.057 66.3564 223.122 66.3346 223.144 66.3346C223.188 66.3346 223.231 66.3564 223.275 66.3782C223.297 66.4655 223.341 66.531 223.384 66.5746Z" fill="#046853"/>
<path d="M230.848 68.4517C230.564 68.4517 230.302 68.408 230.062 68.3207C229.822 68.2334 229.604 68.1243 229.429 67.9715C229.255 67.8187 229.102 67.6223 228.993 67.404C228.884 67.1857 228.84 66.9238 228.84 66.6401V65.7671V63.0825H228.229C228.12 63.0825 228.054 63.0607 228.011 63.017C227.967 62.9734 227.945 62.8861 227.945 62.7987V62.0348C227.945 61.9257 227.967 61.8602 228.011 61.8166C228.054 61.7729 228.142 61.7511 228.229 61.7511H228.84C228.84 61.5765 228.84 61.3801 228.84 61.2055C228.84 61.0309 228.84 60.8344 228.84 60.6598C228.84 60.5943 228.862 60.5289 228.906 60.4852C228.949 60.4416 229.015 60.4197 229.102 60.3761C229.168 60.3543 229.233 60.3324 229.32 60.3106C229.408 60.2888 229.495 60.2451 229.582 60.2233C229.67 60.2015 229.757 60.1796 229.844 60.1578C229.931 60.136 229.997 60.136 230.062 60.136C230.172 60.136 230.237 60.1578 230.281 60.2233C230.324 60.2888 230.324 60.3542 230.324 60.4634C230.324 60.6816 230.324 60.8999 230.324 61.1182C230.324 61.3364 230.324 61.5547 230.324 61.7729H231.088C231.176 61.7729 231.241 61.7948 231.306 61.8384C231.35 61.8821 231.372 61.9694 231.372 62.0567V62.7769C231.372 62.8861 231.35 62.9734 231.306 63.017C231.263 63.0607 231.197 63.0825 231.088 63.0825H230.324C230.324 63.3007 230.324 63.4972 230.324 63.6718C230.324 63.8246 230.324 63.9773 230.324 64.0865C230.324 64.2174 230.324 64.3266 230.324 64.4357C230.324 64.5448 230.324 64.6539 230.324 64.7849C230.324 64.9159 230.324 65.0468 230.324 65.1996C230.324 65.3524 230.324 65.5488 230.324 65.7889V65.8107V65.8325V66.531C230.324 66.7711 230.368 66.9238 230.455 67.033C230.543 67.1421 230.695 67.1857 230.892 67.1857C230.957 67.1857 231.023 67.2076 231.066 67.2731C231.11 67.3167 231.132 67.3822 231.132 67.4695V68.1897C231.132 68.277 231.11 68.3425 231.066 68.408C231.001 68.4298 230.935 68.4517 230.848 68.4517Z" fill="#046853"/>
<path d="M239.098 68.1462C239.098 68.2117 239.076 68.2553 239.054 68.299C239.032 68.3426 238.988 68.3645 238.945 68.3863C238.901 68.4081 238.858 68.4299 238.792 68.4299C238.748 68.4299 238.683 68.4518 238.617 68.4518H237.963C237.853 68.4518 237.766 68.4299 237.723 68.3645C237.679 68.299 237.657 68.2335 237.635 68.1462L237.613 67.7097C237.482 67.8406 237.352 67.9498 237.199 68.0589C237.046 68.168 236.893 68.2553 236.719 68.3426C236.544 68.4299 236.369 68.4736 236.173 68.5172C235.976 68.5609 235.78 68.5827 235.584 68.5827C235.278 68.5827 234.973 68.5391 234.667 68.4518C234.383 68.3645 234.099 68.2553 233.838 68.1025C233.576 67.9498 233.357 67.7752 233.139 67.5569C232.921 67.3386 232.746 67.1204 232.593 66.8585C232.441 66.5966 232.332 66.3346 232.244 66.0291C232.157 65.7454 232.113 65.418 232.113 65.1124C232.113 64.785 232.157 64.4795 232.244 64.1957C232.332 63.912 232.441 63.6282 232.593 63.3663C232.746 63.1044 232.921 62.8862 233.139 62.6679C233.357 62.4497 233.576 62.275 233.838 62.1223C234.099 61.9695 234.361 61.8603 234.667 61.773C234.951 61.6857 235.256 61.6421 235.584 61.6421C235.802 61.6421 236.02 61.6639 236.217 61.7076C236.413 61.7512 236.609 61.8167 236.784 61.904C236.959 61.9913 237.133 62.1004 237.286 62.2096C237.439 62.3405 237.57 62.4715 237.701 62.6024L237.766 62.035C237.788 61.9695 237.81 61.9258 237.81 61.8822C237.832 61.8385 237.854 61.8167 237.875 61.7949C237.897 61.773 237.919 61.7512 237.963 61.7512C238.006 61.7512 238.05 61.7294 238.094 61.7294H238.617C238.683 61.7294 238.727 61.7294 238.792 61.7512C238.858 61.7512 238.901 61.773 238.945 61.7949C238.988 61.8167 239.032 61.8385 239.054 61.8822C239.076 61.9258 239.098 61.9695 239.098 62.035V68.1462ZM233.641 65.1124C233.641 65.3961 233.685 65.6581 233.794 65.8981C233.881 66.1382 234.034 66.3783 234.209 66.5529C234.383 66.7493 234.58 66.9021 234.82 67.0113C235.06 67.1204 235.322 67.1859 235.584 67.1859C235.867 67.1859 236.129 67.1204 236.369 67.0113C236.609 66.9021 236.828 66.7493 237.024 66.5529C237.199 66.3565 237.351 66.1382 237.461 65.8981C237.57 65.6581 237.613 65.3743 237.613 65.1124C237.613 64.8287 237.57 64.5668 237.461 64.3267C237.351 64.0866 237.221 63.8465 237.024 63.6719C236.849 63.4755 236.631 63.3227 236.369 63.2136C236.129 63.1044 235.867 63.0389 235.584 63.0389C235.3 63.0389 235.038 63.1044 234.82 63.2136C234.58 63.3227 234.383 63.4755 234.209 63.6719C234.034 63.8683 233.903 64.0866 233.794 64.3267C233.685 64.5668 233.641 64.8505 233.641 65.1124Z" fill="#046853"/>
<path d="M240.475 59.7868C240.475 59.5685 240.584 59.4812 240.78 59.4812H241.653C241.741 59.4812 241.828 59.503 241.893 59.5685C241.959 59.6122 241.981 59.6995 241.981 59.8086V60.5943C241.981 60.6816 241.959 60.7471 241.893 60.8126C241.828 60.8781 241.762 60.9217 241.653 60.9217H240.78C240.562 60.9217 240.475 60.8126 240.475 60.5943V59.7868ZM240.475 62.1003C240.475 62.013 240.496 61.9257 240.562 61.882C240.606 61.8166 240.693 61.7948 240.802 61.7948H241.675C241.719 61.7948 241.762 61.7947 241.784 61.8166C241.828 61.8384 241.85 61.8602 241.893 61.882C241.915 61.9039 241.959 61.9475 241.981 61.9912C242.002 62.0348 242.002 62.0785 242.002 62.1221V68.1461C242.002 68.3643 241.893 68.4516 241.675 68.4516H240.802C240.584 68.4516 240.496 68.3425 240.496 68.1461V62.1003H240.475Z" fill="#046853"/>
<path d="M243.771 61.9478C243.815 61.8823 243.858 61.8604 243.902 61.8386C243.924 61.8168 243.967 61.795 244.033 61.795C244.098 61.795 244.142 61.795 244.186 61.795H244.709C244.819 61.795 244.884 61.8386 244.928 61.9041C244.971 61.9696 245.015 62.0351 245.037 62.1224L245.102 62.6898C245.19 62.5807 245.277 62.4498 245.408 62.3406C245.517 62.2315 245.67 62.1224 245.823 62.0351C245.975 61.9478 246.172 61.8605 246.368 61.8168C246.565 61.7513 246.805 61.7295 247.067 61.7295C247.481 61.7295 247.852 61.795 248.18 61.9478C248.507 62.1005 248.769 62.297 248.987 62.5589C249.206 62.8208 249.38 63.1263 249.489 63.4756C249.598 63.8248 249.664 64.1958 249.664 64.6105V68.1027C249.664 68.2336 249.642 68.3209 249.577 68.3864C249.511 68.4519 249.424 68.4737 249.315 68.4737H248.507C248.376 68.4737 248.267 68.4519 248.223 68.3864C248.18 68.3427 248.158 68.2336 248.158 68.1027V64.6105C248.158 64.4359 248.136 64.2395 248.071 64.0649C248.005 63.8903 247.918 63.7375 247.787 63.5847C247.656 63.4537 247.525 63.3228 247.329 63.2573C247.154 63.17 246.936 63.1264 246.717 63.1264C246.565 63.1264 246.39 63.1482 246.215 63.2137C246.041 63.2791 245.888 63.3664 245.735 63.4974C245.583 63.6065 245.473 63.7593 245.386 63.9339C245.299 64.1085 245.233 64.3049 245.233 64.5014V67.9062C245.233 67.9717 245.233 68.0372 245.233 68.1027C245.233 68.1681 245.211 68.2336 245.19 68.2773C245.168 68.3209 245.124 68.3646 245.102 68.4082C245.059 68.43 245.015 68.4519 244.95 68.4519H244.076C243.967 68.4519 243.88 68.43 243.815 68.3646C243.771 68.3209 243.727 68.2336 243.727 68.1245V62.0787C243.705 62.0569 243.727 61.9914 243.771 61.9478Z" fill="#046853"/>
<path d="M257.519 68.1462C257.519 68.2117 257.498 68.2553 257.476 68.299C257.454 68.3426 257.41 68.3645 257.367 68.3863C257.323 68.4081 257.279 68.4299 257.214 68.4299C257.17 68.4299 257.105 68.4518 257.039 68.4518H256.385C256.275 68.4518 256.188 68.4299 256.144 68.3645C256.101 68.299 256.079 68.2335 256.057 68.1462L256.035 67.7097C255.904 67.8406 255.773 67.9498 255.621 68.0589C255.468 68.168 255.315 68.2553 255.14 68.3426C254.966 68.4299 254.791 68.4736 254.595 68.5172C254.398 68.5609 254.202 68.5827 254.005 68.5827C253.7 68.5827 253.394 68.5391 253.089 68.4518C252.805 68.3645 252.521 68.2553 252.259 68.1025C251.997 67.9498 251.779 67.7752 251.561 67.5569C251.343 67.3386 251.168 67.1204 251.015 66.8585C250.863 66.5966 250.753 66.3346 250.666 66.0291C250.579 65.7454 250.535 65.418 250.535 65.1124C250.535 64.785 250.579 64.4795 250.666 64.1957C250.753 63.912 250.863 63.6282 251.015 63.3663C251.168 63.1044 251.343 62.8862 251.561 62.6679C251.779 62.4497 251.997 62.275 252.259 62.1223C252.521 61.9695 252.783 61.8603 253.089 61.773C253.373 61.6857 253.678 61.6421 254.005 61.6421C254.224 61.6421 254.442 61.6639 254.638 61.7076C254.835 61.7512 255.031 61.8167 255.206 61.904C255.38 61.9913 255.555 62.1004 255.708 62.2096C255.861 62.3405 255.992 62.4715 256.123 62.6024L256.188 62.035C256.21 61.9695 256.232 61.9258 256.232 61.8822C256.254 61.8385 256.275 61.8167 256.297 61.7949C256.319 61.773 256.341 61.7512 256.385 61.7512C256.428 61.7512 256.472 61.7294 256.515 61.7294H257.039C257.105 61.7294 257.148 61.7294 257.214 61.7512C257.279 61.7512 257.323 61.773 257.367 61.7949C257.41 61.8167 257.454 61.8385 257.476 61.8822C257.498 61.9258 257.519 61.9695 257.519 62.035V68.1462ZM252.063 65.1124C252.063 65.3961 252.107 65.6581 252.216 65.8981C252.303 66.1382 252.456 66.3783 252.63 66.5529C252.805 66.7493 253.001 66.9021 253.242 67.0113C253.482 67.1204 253.744 67.1859 254.005 67.1859C254.289 67.1859 254.551 67.1204 254.791 67.0113C255.031 66.9021 255.25 66.7493 255.424 66.5529C255.599 66.3565 255.752 66.1382 255.861 65.8981C255.97 65.6581 256.013 65.3743 256.013 65.1124C256.013 64.8287 255.97 64.5668 255.861 64.3267C255.752 64.0866 255.621 63.8465 255.424 63.6719C255.25 63.4755 255.031 63.3227 254.791 63.2136C254.551 63.1044 254.289 63.0389 254.005 63.0389C253.722 63.0389 253.46 63.1044 253.242 63.2136C253.001 63.3227 252.805 63.4755 252.63 63.6719C252.456 63.8683 252.325 64.0866 252.216 64.3267C252.107 64.5668 252.063 64.8505 252.063 65.1124Z" fill="#046853"/>
<path d="M260.335 68.1461C260.313 68.2553 260.27 68.3207 260.226 68.3862C260.182 68.4299 260.117 68.4735 260.008 68.4735H259.222C259.004 68.4735 258.895 68.3644 258.895 68.168V60.1579C258.895 60.0706 258.916 59.9833 258.982 59.9396C259.047 59.8741 259.113 59.8523 259.2 59.8523H260.073C260.182 59.8523 260.27 59.8741 260.313 59.9396C260.379 60.0051 260.4 60.0706 260.4 60.1579V62.5587C260.662 62.2968 260.946 62.1004 261.274 61.9476C261.601 61.7948 261.972 61.7075 262.408 61.7075C262.889 61.7075 263.325 61.7948 263.74 61.9694C264.155 62.144 264.504 62.4059 264.809 62.7115C265.115 63.017 265.355 63.3881 265.53 63.8028C265.704 64.2175 265.791 64.6758 265.791 65.156C265.791 65.6362 265.704 66.0727 265.53 66.4874C265.355 66.9021 265.115 67.2731 264.809 67.5787C264.504 67.8842 264.155 68.1461 263.74 68.3207C263.325 68.4953 262.889 68.5826 262.408 68.5826C262.212 68.5826 261.994 68.5608 261.819 68.5172C261.623 68.4735 261.448 68.408 261.274 68.3207C261.099 68.2334 260.946 68.1461 260.793 68.037C260.641 67.9279 260.51 67.8187 260.379 67.6878L260.335 68.1461ZM264.286 65.1342C264.286 64.8504 264.242 64.5885 264.133 64.3484C264.045 64.0865 263.893 63.8683 263.718 63.6936C263.543 63.4972 263.347 63.3444 263.107 63.2353C262.867 63.1262 262.605 63.0607 262.343 63.0607C262.059 63.0607 261.797 63.1262 261.557 63.2353C261.317 63.3444 261.099 63.4972 260.903 63.6936C260.728 63.8901 260.575 64.1083 260.466 64.3484C260.357 64.6103 260.313 64.8723 260.313 65.1342V65.1778C260.313 65.4616 260.379 65.7235 260.488 65.9635C260.597 66.2036 260.75 66.4219 260.924 66.5965C261.099 66.7711 261.317 66.9239 261.557 67.033C261.797 67.1421 262.059 67.1858 262.343 67.1858C262.627 67.1858 262.867 67.1421 263.107 67.033C263.347 66.9239 263.543 66.7711 263.718 66.5965C263.893 66.4219 264.024 66.2036 264.133 65.9417C264.242 65.6798 264.286 65.4179 264.286 65.1342Z" fill="#046853"/>
<path d="M266.971 60.1142C266.971 60.0269 266.993 59.9396 267.037 59.8959C267.08 59.8304 267.167 59.8086 267.255 59.8086H268.171C268.237 59.8086 268.302 59.8304 268.368 59.8959C268.433 59.9614 268.455 60.0269 268.455 60.1142V68.1243C268.455 68.2334 268.433 68.2989 268.368 68.3643C268.302 68.408 268.237 68.4517 268.128 68.4517H267.255C267.146 68.4517 267.058 68.4298 267.015 68.3643C266.971 68.3207 266.949 68.2334 266.949 68.1243V60.1142H266.971Z" fill="#046853"/>
<path d="M275.396 67.7315C275.091 67.9935 274.741 68.1899 274.392 68.3427C274.021 68.4955 273.628 68.5609 273.192 68.5609C272.712 68.5609 272.275 68.4736 271.838 68.299C271.424 68.1244 271.053 67.8843 270.725 67.5569C270.398 67.2514 270.158 66.8803 269.961 66.4657C269.765 66.051 269.678 65.5926 269.678 65.1124C269.678 64.8069 269.721 64.5013 269.787 64.2176C269.874 63.9339 269.983 63.6501 270.114 63.41C270.245 63.1699 270.42 62.9299 270.638 62.7116C270.834 62.4933 271.075 62.3187 271.315 62.1659C271.555 62.0132 271.838 61.904 272.122 61.8167C272.406 61.7294 272.733 61.6858 273.039 61.6858C273.301 61.6858 273.563 61.7076 273.825 61.7731C274.087 61.8386 274.327 61.9259 274.567 62.0568C274.807 62.1659 275.025 62.3187 275.221 62.4933C275.418 62.6679 275.614 62.8644 275.767 63.0608C275.985 63.3446 276.138 63.6719 276.225 64.0211C276.313 64.3704 276.378 64.7414 276.378 65.1561C276.378 65.2652 276.378 65.3525 276.356 65.418C276.356 65.4835 276.335 65.549 276.291 65.5926C276.247 65.6363 276.204 65.6581 276.138 65.6799C276.073 65.7018 275.964 65.7017 275.854 65.7017H271.206C271.249 65.9637 271.336 66.1819 271.467 66.3784C271.598 66.5748 271.751 66.7276 271.926 66.8803C272.1 67.0113 272.297 67.1204 272.493 67.1859C272.69 67.2514 272.908 67.295 273.104 67.295C273.257 67.295 273.41 67.2732 273.563 67.2514C273.716 67.2296 273.846 67.1859 273.977 67.1204C274.108 67.0768 274.218 67.0113 274.327 66.9458C274.436 66.8803 274.523 66.8149 274.61 66.7276C274.654 66.6839 274.698 66.6621 274.741 66.6403C274.785 66.6184 274.829 66.5966 274.872 66.5966C274.894 66.5966 274.938 66.5966 274.981 66.6184C275.025 66.6403 275.069 66.6839 275.091 66.7276C275.178 66.8367 275.265 66.9458 275.331 67.0113C275.396 67.0986 275.462 67.1423 275.483 67.2077C275.527 67.2514 275.549 67.295 275.571 67.3387C275.593 67.3823 275.593 67.426 275.593 67.4478C275.593 67.5351 275.527 67.6224 275.396 67.7315ZM273.061 62.9735C272.864 62.9735 272.646 63.0172 272.45 63.0826C272.253 63.1481 272.079 63.2573 271.904 63.3882C271.751 63.5192 271.598 63.6719 271.489 63.8465C271.358 64.0212 271.271 64.2176 271.227 64.414H274.938C274.872 64.1958 274.807 63.9993 274.676 63.8247C274.567 63.6501 274.414 63.4973 274.261 63.3664C274.108 63.2354 273.912 63.1481 273.716 63.0608C273.541 63.0172 273.301 62.9735 273.061 62.9735Z" fill="#046853"/>
<path d="M126.063 81.0671C125.779 81.0671 125.517 81.0235 125.277 80.9362C125.037 80.8489 124.819 80.7397 124.644 80.587C124.47 80.4342 124.317 80.2378 124.208 80.0195C124.099 79.8012 124.055 79.5393 124.055 79.2556V78.3826V75.698H123.444C123.335 75.698 123.269 75.6761 123.226 75.6325C123.182 75.5888 123.16 75.5015 123.16 75.4142V74.6503C123.16 74.5412 123.182 74.4757 123.226 74.4321C123.269 74.3884 123.357 74.3666 123.444 74.3666H124.055C124.055 74.192 124.055 73.9955 124.055 73.8209C124.055 73.6463 124.055 73.4499 124.055 73.2753C124.055 73.2098 124.077 73.1443 124.121 73.1007C124.164 73.057 124.23 73.0352 124.317 72.9916C124.382 72.9697 124.448 72.9479 124.535 72.9261C124.623 72.9043 124.71 72.8606 124.797 72.8388C124.884 72.8169 124.972 72.7951 125.059 72.7733C125.146 72.7515 125.212 72.7515 125.277 72.7515C125.386 72.7515 125.452 72.7733 125.496 72.8388C125.517 72.9043 125.539 72.9697 125.539 73.0789C125.539 73.2971 125.539 73.5154 125.539 73.7336C125.539 73.9519 125.539 74.1701 125.539 74.3884H126.303C126.39 74.3884 126.456 74.4102 126.521 74.4539C126.565 74.4975 126.587 74.5848 126.587 74.6722V75.3924C126.587 75.5015 126.565 75.5888 126.521 75.6325C126.478 75.6761 126.412 75.698 126.303 75.698H125.539C125.539 75.9162 125.539 76.1127 125.539 76.2873C125.539 76.44 125.539 76.5928 125.539 76.702C125.539 76.8329 125.539 76.942 125.539 77.0512C125.539 77.1603 125.539 77.2694 125.539 77.4004C125.539 77.5313 125.539 77.6623 125.539 77.8151C125.539 77.9679 125.539 78.1643 125.539 78.4044V78.4262V78.448V79.1465C125.539 79.3865 125.583 79.5393 125.67 79.6485C125.757 79.7576 125.91 79.8012 126.107 79.8012C126.172 79.8012 126.238 79.8231 126.281 79.8885C126.325 79.9322 126.347 79.9977 126.347 80.085V80.8052C126.347 80.8925 126.325 80.958 126.281 81.0235C126.238 81.0453 126.15 81.0671 126.063 81.0671Z" fill="#046853"/>
<path d="M127.395 77.7276C127.395 77.4003 127.438 77.0947 127.525 76.811C127.613 76.5054 127.722 76.2435 127.875 75.9816C128.027 75.7197 128.202 75.5014 128.42 75.2831C128.639 75.0649 128.857 74.8903 129.119 74.7375C129.381 74.5847 129.643 74.4756 129.948 74.3883C130.232 74.301 130.537 74.2573 130.865 74.2573C131.17 74.2573 131.476 74.301 131.782 74.3883C132.065 74.4756 132.349 74.5847 132.611 74.7375C132.873 74.8903 133.091 75.0649 133.309 75.2831C133.528 75.5014 133.702 75.7197 133.855 75.9816C134.008 76.2435 134.117 76.5054 134.204 76.811C134.291 77.1165 134.335 77.4221 134.335 77.7276C134.335 78.055 134.291 78.3606 134.204 78.6443C134.117 78.9281 134.008 79.2118 133.855 79.4737C133.702 79.7356 133.528 79.9539 133.309 80.1721C133.091 80.3904 132.873 80.565 132.611 80.7178C132.349 80.8706 132.087 80.9797 131.782 81.067C131.498 81.1543 131.192 81.198 130.865 81.198C130.537 81.198 130.232 81.1543 129.948 81.067C129.664 80.9797 129.381 80.8706 129.119 80.7178C128.857 80.565 128.639 80.3904 128.42 80.1721C128.202 79.9539 128.027 79.7356 127.875 79.4737C127.722 79.2118 127.613 78.9499 127.525 78.6443C127.416 78.3606 127.395 78.055 127.395 77.7276ZM128.857 77.7276C128.857 78.0114 128.9 78.2733 129.01 78.5134C129.097 78.7535 129.25 78.9717 129.424 79.1681C129.599 79.3646 129.817 79.4955 130.057 79.6047C130.297 79.7138 130.559 79.7574 130.843 79.7574C131.127 79.7574 131.367 79.7138 131.607 79.6047C131.847 79.4955 132.043 79.3428 132.218 79.1681C132.393 78.9935 132.524 78.7753 132.611 78.5134C132.698 78.2733 132.764 77.9896 132.764 77.7276C132.764 77.4439 132.72 77.182 132.611 76.9419C132.524 76.68 132.371 76.4617 132.218 76.2871C132.043 76.0907 131.847 75.9379 131.607 75.8288C131.367 75.7197 131.105 75.6542 130.843 75.6542C130.559 75.6542 130.297 75.7197 130.057 75.8288C129.817 75.9379 129.621 76.0907 129.424 76.2871C129.25 76.4836 129.119 76.7018 129.01 76.9419C128.922 77.2038 128.857 77.4657 128.857 77.7276Z" fill="#046853"/>
<path d="M141.275 80.8488C141.275 80.8925 141.253 80.9143 141.231 80.9361C141.21 80.958 141.166 80.9798 141.144 80.9798C141.101 80.9798 141.057 81.0016 141.013 81.0016C140.97 81.0016 140.926 81.0016 140.882 81.0016H140.358C140.249 81.0016 140.184 80.9798 140.14 80.9143C140.097 80.8488 140.053 80.7834 140.031 80.6961L139.966 80.2159C139.878 80.325 139.791 80.4341 139.682 80.5433C139.573 80.6524 139.42 80.7397 139.267 80.827C139.114 80.9143 138.918 80.9798 138.722 81.0234C138.525 81.0671 138.285 81.0889 138.023 81.0889C137.608 81.0889 137.237 81.0234 136.91 80.8707C136.583 80.7179 136.321 80.5214 136.102 80.2595C135.884 79.9976 135.731 79.6921 135.6 79.3428C135.491 78.9936 135.426 78.6226 135.426 78.2079V74.7158C135.426 74.5848 135.448 74.4975 135.513 74.432C135.579 74.3665 135.666 74.3447 135.775 74.3447H136.583C136.714 74.3447 136.823 74.3665 136.866 74.432C136.91 74.4757 136.932 74.5848 136.932 74.7158V78.2079C136.932 78.4043 136.954 78.5789 137.019 78.7535C137.085 78.9282 137.172 79.0809 137.281 79.2337C137.39 79.3647 137.543 79.4956 137.717 79.5611C137.892 79.6484 138.089 79.6921 138.329 79.6921C138.481 79.6921 138.656 79.6702 138.831 79.6048C139.005 79.5393 139.158 79.4738 139.311 79.3428C139.464 79.2337 139.573 79.0809 139.66 78.9063C139.747 78.7317 139.813 78.5353 139.813 78.2952V74.8904C139.813 74.8249 139.813 74.7594 139.813 74.6939C139.813 74.6285 139.835 74.563 139.856 74.5193C139.878 74.4757 139.9 74.432 139.944 74.3884C139.987 74.3447 140.031 74.3447 140.118 74.3447H140.991C141.101 74.3447 141.188 74.3665 141.253 74.432C141.319 74.4975 141.341 74.563 141.341 74.6721V80.6961C141.362 80.7615 141.341 80.827 141.275 80.8488Z" fill="#046853"/>
<path d="M142.824 74.6938C142.824 74.5847 142.868 74.5192 142.933 74.4538C142.999 74.4101 143.086 74.3665 143.152 74.3665H143.828C143.915 74.3665 143.981 74.3883 144.025 74.4538C144.068 74.4974 144.112 74.5629 144.134 74.6502C144.156 74.7375 144.177 74.803 144.177 74.8903C144.199 74.9776 144.199 75.0649 144.221 75.1304C144.308 75.0212 144.374 74.9121 144.483 74.803C144.57 74.6938 144.679 74.6065 144.81 74.5192C144.941 74.4319 145.072 74.3665 145.225 74.3228C145.378 74.2791 145.552 74.2573 145.749 74.2573C145.923 74.2573 146.076 74.2792 146.229 74.301C146.36 74.3228 146.513 74.3665 146.622 74.4101C146.753 74.4538 146.884 74.5192 146.993 74.5847C147.124 74.6502 147.255 74.7593 147.386 74.8466C147.451 74.8903 147.495 74.9339 147.539 74.9776C147.582 75.0212 147.604 75.0867 147.604 75.1522C147.604 75.174 147.604 75.2177 147.582 75.2395C147.582 75.2613 147.56 75.305 147.539 75.3268L147.102 76.0034C147.08 76.047 147.037 76.0689 147.015 76.0689C146.971 76.0907 146.949 76.0907 146.927 76.0907C146.862 76.0907 146.818 76.0689 146.775 76.047C146.666 75.9816 146.556 75.9161 146.469 75.8724C146.382 75.807 146.273 75.7633 146.185 75.7197C146.098 75.676 146.011 75.6542 145.902 75.6324C145.814 75.6105 145.705 75.5887 145.574 75.5887C145.269 75.5887 145.007 75.6978 144.789 75.8943C144.57 76.0907 144.439 76.3744 144.352 76.7236V80.6741C144.352 80.8924 144.243 80.9797 144.025 80.9797H143.152C142.933 80.9797 142.824 80.8706 142.824 80.6741V74.6938Z" fill="#046853"/>
<path d="M148.586 72.3803C148.586 72.162 148.695 72.0747 148.892 72.0747H149.765C149.852 72.0747 149.939 72.0965 150.005 72.162C150.07 72.2057 150.092 72.293 150.092 72.4021V73.1878C150.092 73.2751 150.07 73.3406 150.005 73.4061C149.939 73.4716 149.874 73.5152 149.765 73.5152H148.892C148.673 73.5152 148.586 73.4061 148.586 73.1878V72.3803ZM148.586 74.7156C148.586 74.6283 148.608 74.541 148.673 74.4974C148.717 74.4319 148.804 74.4101 148.913 74.4101H149.786C149.83 74.4101 149.874 74.4101 149.895 74.4319C149.939 74.4537 149.961 74.4755 150.005 74.4974C150.026 74.5192 150.07 74.5629 150.092 74.6065C150.114 74.6502 150.114 74.6938 150.114 74.7375V80.7614C150.114 80.9797 150.005 81.067 149.786 81.067H148.913C148.695 81.067 148.608 80.9578 148.608 80.7614V74.7156H148.586Z" fill="#046853"/>
<path d="M152.515 79.1901C152.581 79.2992 152.69 79.4084 152.799 79.4957C152.908 79.583 153.017 79.6485 153.148 79.7139C153.257 79.7576 153.366 79.8012 153.475 79.8231C153.585 79.8449 153.672 79.8667 153.737 79.8667C153.825 79.8667 153.956 79.8667 154.087 79.8449C154.218 79.8231 154.349 79.7794 154.458 79.7358C154.567 79.6921 154.676 79.6048 154.763 79.5175C154.851 79.4302 154.894 79.2993 154.894 79.1683C154.894 79.0373 154.872 78.9064 154.807 78.8191C154.741 78.7318 154.654 78.6663 154.545 78.6008C154.436 78.5354 154.305 78.4917 154.174 78.448C154.043 78.4044 153.89 78.3607 153.716 78.3171C153.345 78.2298 153.039 78.0988 152.777 77.9679C152.515 77.8369 152.297 77.6623 152.144 77.4877C151.969 77.3131 151.86 77.1167 151.773 76.8984C151.708 76.6801 151.664 76.4619 151.664 76.2C151.664 75.9162 151.729 75.6543 151.839 75.4142C151.948 75.1742 152.1 74.9777 152.319 74.8031C152.515 74.6285 152.755 74.4976 153.061 74.4103C153.345 74.323 153.672 74.2793 153.999 74.2793C154.239 74.2793 154.458 74.3011 154.654 74.3448C154.851 74.3884 155.025 74.4539 155.2 74.5412C155.374 74.6285 155.527 74.7376 155.658 74.8686C155.811 74.9996 155.942 75.1523 156.095 75.3269C156.138 75.3924 156.182 75.4579 156.182 75.5016C156.182 75.567 156.138 75.6325 156.073 75.6762C156.029 75.7198 155.964 75.7635 155.876 75.8289C155.811 75.8944 155.724 75.9599 155.658 76.0035C155.593 76.069 155.527 76.1127 155.462 76.1563C155.396 76.2 155.352 76.2218 155.309 76.2218C155.243 76.2218 155.156 76.1782 155.091 76.0909C155.003 76.0036 154.938 75.9162 154.85 75.8508C154.785 75.7853 154.698 75.7198 154.61 75.6762C154.523 75.6325 154.436 75.5889 154.349 75.567C154.261 75.5452 154.152 75.5234 154.021 75.5234C153.934 75.5234 153.825 75.5452 153.716 75.567C153.606 75.5889 153.519 75.6325 153.432 75.698C153.344 75.7635 153.279 75.8289 153.214 75.8944C153.148 75.9817 153.126 76.069 153.126 76.1563C153.126 76.2655 153.17 76.3746 153.235 76.4401C153.301 76.5274 153.388 76.5929 153.497 76.6365C153.606 76.702 153.737 76.7456 153.847 76.7893C153.977 76.8329 154.087 76.8548 154.218 76.8984C154.545 76.9857 154.829 77.0948 155.112 77.204C155.374 77.3131 155.614 77.4659 155.811 77.6405C156.007 77.8151 156.16 78.0115 156.269 78.2298C156.378 78.4699 156.422 78.7318 156.422 79.0373C156.422 79.3647 156.356 79.6485 156.226 79.9104C156.095 80.1723 155.92 80.3906 155.68 80.5652C155.44 80.7398 155.178 80.8707 154.872 80.9798C154.567 81.0671 154.218 81.1108 153.847 81.1108C153.628 81.1108 153.41 81.089 153.17 81.0453C152.952 81.0017 152.733 80.9144 152.515 80.8271C152.297 80.7179 152.122 80.6088 151.948 80.4342C151.773 80.2814 151.62 80.085 151.511 79.8886C151.468 79.8012 151.424 79.7139 151.424 79.6485C151.424 79.6048 151.424 79.5612 151.467 79.5393C151.489 79.4957 151.511 79.4739 151.555 79.452L152.144 78.9937C152.188 78.9719 152.253 78.95 152.275 78.95C152.319 78.95 152.362 78.9719 152.406 78.9937C152.428 79.081 152.471 79.1246 152.515 79.1901Z" fill="#046853"/>
<path d="M157.712 74.4538C157.799 74.4102 157.908 74.3883 158.039 74.3883H158.563C158.672 74.3883 158.738 74.432 158.781 74.4975C158.825 74.5629 158.868 74.6284 158.89 74.7157L158.956 75.2177C159.043 75.1086 159.13 74.9776 159.24 74.8685C159.349 74.7594 159.48 74.6502 159.611 74.5848C159.763 74.4975 159.916 74.432 160.113 74.3883C160.309 74.3447 160.527 74.3228 160.789 74.3228C161.029 74.3228 161.248 74.3447 161.466 74.3883C161.662 74.432 161.837 74.4975 162.011 74.6066C162.164 74.6939 162.317 74.8248 162.448 74.9558C162.579 75.0868 162.688 75.2395 162.797 75.4141C162.884 75.2395 162.994 75.0868 163.146 74.9558C163.299 74.8248 163.452 74.6939 163.648 74.6066C163.845 74.5193 164.041 74.432 164.259 74.3883C164.478 74.3447 164.718 74.301 164.958 74.301C165.373 74.301 165.744 74.3665 166.049 74.5193C166.355 74.6721 166.617 74.8685 166.835 75.1304C167.053 75.3923 167.206 75.6979 167.315 76.0471C167.424 76.3963 167.468 76.7673 167.468 77.1602V80.6524C167.468 80.7833 167.446 80.8706 167.381 80.9361C167.315 81.0016 167.228 81.0234 167.119 81.0234H166.311C166.18 81.0234 166.071 81.0016 166.027 80.9361C165.984 80.8924 165.962 80.7833 165.962 80.6524V77.1166C165.962 76.9419 165.94 76.7455 165.875 76.5709C165.831 76.3963 165.744 76.2435 165.635 76.1126C165.525 75.9816 165.394 75.8725 165.22 75.7852C165.045 75.6979 164.849 75.6542 164.631 75.6542C164.434 75.6542 164.259 75.6979 164.085 75.7634C163.91 75.8288 163.779 75.938 163.648 76.0471C163.539 76.1781 163.43 76.3308 163.365 76.5054C163.299 76.68 163.255 76.8765 163.255 77.1166V80.6087C163.255 80.8706 163.146 80.9797 162.906 80.9797H162.099C161.968 80.9797 161.859 80.9579 161.815 80.8924C161.771 80.8488 161.75 80.7397 161.75 80.6087V77.0947C161.75 76.9201 161.728 76.7455 161.684 76.5709C161.64 76.3963 161.553 76.2435 161.444 76.1126C161.335 75.9816 161.204 75.8725 161.029 75.7852C160.855 75.6979 160.658 75.6542 160.44 75.6542C160.287 75.6542 160.113 75.6761 159.96 75.7415C159.807 75.807 159.654 75.8943 159.523 76.0034C159.392 76.1126 159.283 76.2654 159.196 76.4181C159.109 76.5927 159.065 76.7673 159.065 76.9856V80.6524C159.065 80.7397 159.043 80.827 158.978 80.8706C158.912 80.9361 158.847 80.9579 158.759 80.9579H157.886C157.777 80.9579 157.69 80.9361 157.624 80.8706C157.581 80.827 157.537 80.7397 157.537 80.6305V74.5848C157.581 74.5848 157.624 74.4975 157.712 74.4538Z" fill="#046853"/>
<path d="M178.816 80.7614C178.816 80.8269 178.794 80.8706 178.773 80.9142C178.751 80.9579 178.707 80.9797 178.664 81.0015C178.62 81.0234 178.576 81.0452 178.511 81.0452C178.467 81.0452 178.402 81.067 178.336 81.067H177.681C177.572 81.067 177.485 81.0452 177.441 80.9797C177.398 80.9142 177.376 80.8487 177.354 80.7614L177.332 80.3249C177.201 80.4559 177.07 80.565 176.917 80.6741C176.765 80.7833 176.612 80.8706 176.437 80.9579C176.263 81.0452 176.088 81.0888 175.892 81.1325C175.695 81.1761 175.499 81.198 175.302 81.198C174.997 81.198 174.691 81.1543 174.386 81.067C174.102 80.9797 173.818 80.8706 173.556 80.7178C173.294 80.565 173.076 80.3904 172.858 80.1721C172.64 79.9539 172.465 79.7356 172.312 79.4737C172.159 79.2118 172.05 78.9499 171.963 78.6443C171.876 78.3606 171.832 78.0332 171.832 77.7276C171.832 77.4003 171.876 77.0947 171.963 76.811C172.05 76.5272 172.159 76.2435 172.312 75.9816C172.465 75.7197 172.64 75.5014 172.858 75.2831C173.076 75.0649 173.294 74.8903 173.556 74.7375C173.818 74.5847 174.08 74.4756 174.386 74.3883C174.669 74.301 174.975 74.2573 175.302 74.2573C175.521 74.2573 175.739 74.2791 175.935 74.3228C176.132 74.3665 176.328 74.4319 176.503 74.5192C176.677 74.6065 176.852 74.7157 177.005 74.8248C177.158 74.9557 177.289 75.0867 177.419 75.2177L177.485 74.6502C177.507 74.5847 177.529 74.5411 177.529 74.4974C177.55 74.4538 177.572 74.4319 177.594 74.4101C177.616 74.3883 177.638 74.3665 177.681 74.3665C177.725 74.3665 177.769 74.3446 177.812 74.3446H178.336C178.402 74.3446 178.445 74.3446 178.511 74.3665C178.576 74.3665 178.62 74.3883 178.664 74.4101C178.707 74.4319 178.751 74.4538 178.773 74.4974C178.794 74.5411 178.816 74.5847 178.816 74.6502V80.7614ZM173.36 77.7276C173.36 78.0114 173.403 78.2733 173.513 78.5134C173.6 78.7535 173.753 78.9935 173.927 79.1681C174.102 79.3646 174.298 79.5174 174.538 79.6265C174.779 79.7356 175.04 79.8011 175.302 79.8011C175.586 79.8011 175.848 79.7356 176.088 79.6265C176.328 79.5174 176.546 79.3646 176.721 79.1681C176.896 78.9717 177.048 78.7535 177.158 78.5134C177.267 78.2733 177.31 77.9896 177.31 77.7276C177.31 77.4439 177.267 77.182 177.158 76.9419C177.048 76.7018 176.917 76.4617 176.721 76.2871C176.546 76.0907 176.328 75.9379 176.088 75.8288C175.848 75.7197 175.586 75.6542 175.302 75.6542C175.019 75.6542 174.757 75.7197 174.538 75.8288C174.298 75.9379 174.102 76.0907 173.927 76.2871C173.753 76.4836 173.622 76.7018 173.513 76.9419C173.403 77.182 173.36 77.4439 173.36 77.7276Z" fill="#046853"/>
<path d="M180.255 74.541C180.299 74.4755 180.343 74.4537 180.386 74.4319C180.408 74.4101 180.452 74.3882 180.517 74.3882C180.583 74.3882 180.626 74.3882 180.67 74.3882H181.194C181.303 74.3882 181.368 74.4319 181.412 74.4974C181.456 74.5628 181.499 74.6283 181.521 74.7156L181.587 75.2831C181.674 75.174 181.761 75.043 181.892 74.9339C182.001 74.8247 182.154 74.7156 182.307 74.6283C182.46 74.541 182.656 74.4537 182.853 74.4101C183.049 74.3446 183.289 74.3228 183.551 74.3228C183.966 74.3228 184.337 74.3882 184.664 74.541C184.992 74.6938 185.253 74.8902 185.472 75.1521C185.69 75.414 185.865 75.7196 185.974 76.0688C186.083 76.418 186.148 76.7891 186.148 77.2038V80.6959C186.148 80.8269 186.126 80.9142 186.061 80.9796C185.996 81.0451 185.908 81.067 185.799 81.067H184.992C184.861 81.067 184.751 81.0451 184.708 80.9796C184.664 80.936 184.642 80.8269 184.642 80.6959V77.2038C184.642 77.0292 184.62 76.8327 184.555 76.6581C184.49 76.4835 184.402 76.3307 184.271 76.178C184.14 76.047 184.009 75.916 183.813 75.8506C183.638 75.7633 183.42 75.7196 183.202 75.7196C183.049 75.7196 182.874 75.7414 182.7 75.8069C182.525 75.8724 182.372 75.9597 182.22 76.0907C182.067 76.1998 181.958 76.3526 181.87 76.5272C181.783 76.7018 181.718 76.8982 181.718 77.0946V80.4995C181.718 80.565 181.718 80.6304 181.718 80.6959C181.718 80.7614 181.696 80.8269 181.674 80.8705C181.652 80.9142 181.609 80.9578 181.587 81.0015C181.543 81.0233 181.499 81.0451 181.434 81.0451H180.561C180.452 81.0451 180.364 81.0233 180.299 80.9578C180.255 80.9142 180.212 80.8269 180.212 80.7177V74.672C180.19 74.6502 180.212 74.6065 180.255 74.541Z" fill="#046853"/>
<path d="M192.479 80.303C192.348 80.434 192.217 80.5431 192.065 80.6522C191.912 80.7614 191.759 80.8487 191.584 80.936C191.41 81.0233 191.235 81.0669 191.039 81.1324C190.842 81.1761 190.646 81.1979 190.449 81.1979C189.969 81.1979 189.533 81.1106 189.118 80.936C188.703 80.7614 188.354 80.4995 188.049 80.1939C187.743 79.8883 187.503 79.5173 187.328 79.1026C187.154 78.6879 187.066 78.2296 187.066 77.7712C187.066 77.291 187.154 76.8327 187.328 76.418C187.503 76.0033 187.743 75.6323 188.049 75.3267C188.354 75.0212 188.703 74.7592 189.118 74.5846C189.533 74.41 189.969 74.3227 190.449 74.3227C190.886 74.3227 191.257 74.3882 191.584 74.541C191.912 74.6938 192.195 74.8902 192.457 75.1739V72.7731C192.457 72.6858 192.479 72.5985 192.545 72.5548C192.61 72.4894 192.676 72.4675 192.785 72.4675H193.636C193.723 72.4675 193.789 72.4894 193.854 72.5548C193.92 72.6203 193.963 72.6858 193.963 72.7731V80.7832C193.963 81.0015 193.854 81.0888 193.636 81.0888H192.85C192.741 81.0888 192.676 81.0669 192.632 81.0015C192.588 80.9578 192.567 80.8705 192.523 80.7614L192.479 80.303ZM188.572 77.7276C188.572 78.0113 188.616 78.2732 188.725 78.5133C188.812 78.7534 188.965 78.9716 189.14 79.1681C189.314 79.3645 189.511 79.4955 189.751 79.6046C189.991 79.7137 190.253 79.7574 190.515 79.7574C190.799 79.7574 191.061 79.7137 191.301 79.6046C191.541 79.4955 191.759 79.3427 191.934 79.1681C192.108 78.9935 192.261 78.7752 192.37 78.5351C192.479 78.295 192.523 78.0331 192.545 77.7494V77.7057C192.545 77.422 192.501 77.1601 192.392 76.92C192.283 76.6581 192.152 76.4398 191.955 76.2652C191.781 76.0688 191.563 75.916 191.322 75.8069C191.082 75.6978 190.82 75.6323 190.537 75.6323C190.253 75.6323 189.991 75.6978 189.773 75.8069C189.533 75.916 189.336 76.0688 189.162 76.2652C188.987 76.4617 188.856 76.6799 188.747 76.92C188.638 77.2038 188.572 77.4657 188.572 77.7276Z" fill="#046853"/>
<path d="M204.134 80.3251C203.829 80.587 203.48 80.7834 203.13 80.9362C202.759 81.089 202.367 81.1544 201.93 81.1544C201.45 81.1544 201.013 81.0672 200.577 80.8925C200.162 80.7179 199.791 80.4779 199.464 80.1505C199.136 79.8449 198.896 79.4739 198.7 79.0592C198.503 78.6445 198.416 78.1861 198.416 77.706C198.416 77.4004 198.46 77.0948 198.525 76.8111C198.612 76.5274 198.722 76.2436 198.853 76.0035C198.983 75.7635 199.158 75.5234 199.376 75.3051C199.573 75.0869 199.813 74.9123 200.053 74.7595C200.293 74.6067 200.577 74.4976 200.861 74.4103C201.144 74.323 201.472 74.2793 201.777 74.2793C202.039 74.2793 202.301 74.3011 202.563 74.3666C202.825 74.4321 203.065 74.5194 203.305 74.6503C203.545 74.7595 203.763 74.9123 203.96 75.0869C204.156 75.2615 204.353 75.4579 204.505 75.6543C204.724 75.9381 204.876 76.2655 204.964 76.6147C205.051 76.9639 205.117 77.3349 205.117 77.7496C205.117 77.8587 205.117 77.9461 205.095 78.0115C205.095 78.077 205.073 78.1425 205.029 78.1861C204.986 78.2298 204.942 78.2516 204.876 78.2734C204.811 78.2953 204.702 78.2953 204.593 78.2953H199.944C199.987 78.5572 200.075 78.7754 200.206 78.9719C200.337 79.1683 200.489 79.3211 200.664 79.4739C200.839 79.6048 201.035 79.7139 201.232 79.7794C201.428 79.8449 201.646 79.8886 201.843 79.8886C201.995 79.8886 202.148 79.8667 202.301 79.8449C202.454 79.8231 202.585 79.7794 202.716 79.7139C202.847 79.6703 202.956 79.6048 203.065 79.5393C203.174 79.4739 203.261 79.4084 203.349 79.3211C203.392 79.2774 203.436 79.2556 203.48 79.2338C203.523 79.2119 203.567 79.1901 203.611 79.1901C203.632 79.1901 203.676 79.1901 203.72 79.212C203.763 79.2338 203.807 79.2774 203.829 79.3211C203.916 79.4302 204.003 79.5393 204.069 79.6048C204.134 79.6921 204.2 79.7358 204.222 79.8013C204.244 79.8667 204.287 79.8886 204.309 79.9322C204.331 79.9759 204.331 80.0195 204.331 80.0413C204.331 80.1286 204.265 80.2378 204.134 80.3251ZM201.799 75.5888C201.603 75.5888 201.384 75.6325 201.188 75.698C200.991 75.7635 200.817 75.8726 200.642 76.0035C200.489 76.1345 200.337 76.2873 200.228 76.4619C200.097 76.6365 200.009 76.8329 199.966 77.0294H203.676C203.611 76.8111 203.545 76.6147 203.414 76.4401C203.305 76.2655 203.152 76.1127 202.999 75.9817C202.847 75.8508 202.65 75.7635 202.454 75.6762C202.257 75.6325 202.039 75.5888 201.799 75.5888Z" fill="#046853"/>
<path d="M206.447 74.541C206.49 74.4755 206.534 74.4537 206.578 74.4319C206.599 74.4101 206.643 74.3882 206.709 74.3882C206.774 74.3882 206.818 74.3882 206.861 74.3882H207.385C207.494 74.3882 207.56 74.4319 207.604 74.4974C207.647 74.5628 207.691 74.6283 207.713 74.7156L207.778 75.2831C207.865 75.174 207.953 75.043 208.084 74.9339C208.193 74.8247 208.346 74.7156 208.498 74.6283C208.651 74.541 208.848 74.4537 209.044 74.4101C209.24 74.3446 209.481 74.3228 209.742 74.3228C210.157 74.3228 210.528 74.3882 210.856 74.541C211.183 74.6938 211.445 74.8902 211.663 75.1521C211.881 75.414 212.056 75.7196 212.165 76.0688C212.274 76.418 212.34 76.7891 212.34 77.2038V80.6959C212.34 80.8269 212.318 80.9142 212.252 80.9796C212.187 81.0451 212.1 81.067 211.99 81.067H211.183C211.052 81.067 210.943 81.0451 210.899 80.9796C210.856 80.936 210.834 80.8269 210.834 80.6959V77.2038C210.834 77.0292 210.812 76.8327 210.746 76.6581C210.681 76.4835 210.594 76.3307 210.463 76.178C210.332 76.047 210.201 75.916 210.004 75.8506C209.83 75.7633 209.611 75.7196 209.393 75.7196C209.24 75.7196 209.066 75.7414 208.891 75.8069C208.717 75.8724 208.564 75.9597 208.411 76.0907C208.258 76.1998 208.149 76.3526 208.062 76.5272C207.975 76.7018 207.909 76.8982 207.909 77.0946V80.4995C207.909 80.565 207.909 80.6304 207.909 80.6959C207.909 80.7614 207.887 80.8269 207.865 80.8705C207.844 80.9142 207.8 80.9578 207.778 81.0015C207.734 81.0233 207.691 81.0451 207.625 81.0451H206.752C206.643 81.0451 206.556 81.0233 206.49 80.9578C206.447 80.9142 206.403 80.8269 206.403 80.7177V74.672C206.381 74.6502 206.403 74.6065 206.447 74.541Z" fill="#046853"/>
<path d="M212.95 74.8251C212.95 74.8033 212.928 74.7814 212.928 74.7596C212.928 74.7378 212.928 74.716 212.906 74.6941C212.906 74.6723 212.906 74.6505 212.906 74.6287C212.906 74.5632 212.928 74.5195 212.972 74.4759C213.015 74.4322 213.081 74.4104 213.19 74.4104H214.129C214.216 74.4104 214.281 74.4322 214.325 74.4759C214.369 74.5195 214.412 74.585 214.456 74.6505L214.543 74.8906C214.609 75.087 214.696 75.3053 214.783 75.5672C214.871 75.8073 214.958 76.0692 215.067 76.3311C215.154 76.593 215.263 76.8549 215.351 77.1168C215.438 77.3787 215.525 77.6188 215.613 77.8589C215.7 78.099 215.765 78.2954 215.831 78.47C215.896 78.6446 215.94 78.7756 215.984 78.8847C216.049 78.7101 216.115 78.5137 216.202 78.2954C216.289 78.0771 216.355 77.8371 216.464 77.597C216.551 77.3569 216.638 77.095 216.748 76.8331C216.835 76.5712 216.944 76.3093 217.031 76.0473C217.119 75.7854 217.206 75.5453 217.293 75.3053C217.381 75.0652 217.446 74.8687 217.512 74.6723C217.555 74.585 217.599 74.5195 217.643 74.4977C217.686 74.454 217.752 74.4322 217.839 74.4322H218.821C218.93 74.4322 218.996 74.454 219.039 74.4759C219.083 74.4977 219.105 74.5632 219.105 74.6068C219.105 74.6287 219.105 74.6723 219.083 74.716C219.083 74.7596 219.061 74.7814 219.061 74.8033L216.551 80.8709C216.529 80.9145 216.486 80.9582 216.442 81.0236C216.398 81.0891 216.333 81.0891 216.224 81.0891H215.744C215.613 81.0891 215.525 81.0673 215.482 81.0236C215.438 80.98 215.416 80.9363 215.394 80.8709L212.95 74.8251Z" fill="#046853"/>
<path d="M220.002 72.3803C220.002 72.162 220.111 72.0747 220.308 72.0747H221.181C221.268 72.0747 221.355 72.0965 221.421 72.162C221.486 72.2057 221.508 72.293 221.508 72.4021V73.1878C221.508 73.2751 221.486 73.3406 221.421 73.4061C221.355 73.4716 221.29 73.5152 221.181 73.5152H220.308C220.089 73.5152 220.002 73.4061 220.002 73.1878V72.3803ZM220.002 74.7156C220.002 74.6283 220.024 74.541 220.089 74.4974C220.133 74.4319 220.22 74.4101 220.329 74.4101H221.202C221.246 74.4101 221.29 74.4101 221.312 74.4319C221.355 74.4537 221.377 74.4755 221.421 74.4974C221.442 74.5192 221.486 74.5629 221.508 74.6065C221.53 74.6502 221.53 74.6938 221.53 74.7375V80.7614C221.53 80.9797 221.421 81.067 221.202 81.067H220.329C220.111 81.067 220.024 80.9578 220.024 80.7614V74.7156H220.002Z" fill="#046853"/>
<path d="M223.209 74.6938C223.209 74.5847 223.253 74.5192 223.318 74.4538C223.384 74.4101 223.471 74.3665 223.536 74.3665H224.213C224.3 74.3665 224.366 74.3883 224.409 74.4538C224.453 74.5192 224.497 74.5629 224.519 74.6502C224.54 74.7375 224.562 74.803 224.562 74.8903C224.562 74.9776 224.584 75.0649 224.606 75.1304C224.693 75.0212 224.759 74.9121 224.868 74.803C224.955 74.6938 225.064 74.6065 225.195 74.5192C225.326 74.4319 225.457 74.3665 225.61 74.3228C225.763 74.2791 225.937 74.2573 226.134 74.2573C226.308 74.2573 226.461 74.2792 226.614 74.301C226.745 74.3228 226.898 74.3665 227.007 74.4101C227.138 74.4538 227.269 74.5192 227.378 74.5847C227.509 74.6502 227.64 74.7593 227.771 74.8466C227.836 74.8903 227.88 74.9339 227.923 74.9776C227.967 75.0212 227.989 75.0867 227.989 75.1522C227.989 75.174 227.989 75.2177 227.967 75.2395C227.967 75.2613 227.945 75.305 227.923 75.3268L227.487 76.0034C227.465 76.047 227.421 76.0689 227.4 76.0689C227.356 76.0907 227.334 76.0907 227.312 76.0907C227.247 76.0907 227.203 76.0689 227.159 76.047C227.05 75.9816 226.941 75.9161 226.854 75.8724C226.767 75.807 226.657 75.7633 226.57 75.7197C226.483 75.676 226.396 75.6542 226.286 75.6324C226.199 75.6105 226.09 75.5887 225.959 75.5887C225.653 75.5887 225.392 75.6978 225.173 75.8943C224.955 76.0907 224.824 76.3744 224.737 76.7236V80.6741C224.737 80.8924 224.628 80.9797 224.409 80.9797H223.536C223.318 80.9797 223.209 80.8706 223.209 80.6741V74.6938Z" fill="#046853"/>
<path d="M228.709 77.7276C228.709 77.4003 228.753 77.0947 228.84 76.811C228.927 76.5054 229.036 76.2435 229.189 75.9816C229.342 75.7197 229.517 75.5014 229.735 75.2831C229.953 75.0649 230.171 74.8903 230.433 74.7375C230.695 74.5847 230.957 74.4756 231.263 74.3883C231.546 74.301 231.852 74.2573 232.179 74.2573C232.485 74.2573 232.79 74.301 233.096 74.3883C233.38 74.4756 233.663 74.5847 233.925 74.7375C234.187 74.8903 234.406 75.0649 234.624 75.2831C234.842 75.5014 235.017 75.7197 235.169 75.9816C235.322 76.2435 235.431 76.5054 235.519 76.811C235.606 77.1165 235.65 77.4221 235.65 77.7276C235.65 78.055 235.606 78.3606 235.519 78.6443C235.431 78.9281 235.322 79.2118 235.169 79.4737C235.017 79.7356 234.842 79.9539 234.624 80.1721C234.406 80.3904 234.187 80.565 233.925 80.7178C233.663 80.8706 233.402 80.9797 233.096 81.067C232.812 81.1543 232.507 81.198 232.179 81.198C231.852 81.198 231.546 81.1543 231.263 81.067C230.979 80.9797 230.695 80.8706 230.433 80.7178C230.171 80.565 229.953 80.3904 229.735 80.1721C229.517 79.9539 229.342 79.7356 229.189 79.4737C229.036 79.2118 228.927 78.9499 228.84 78.6443C228.753 78.3606 228.709 78.055 228.709 77.7276ZM230.193 77.7276C230.193 78.0114 230.237 78.2733 230.346 78.5134C230.433 78.7535 230.586 78.9717 230.761 79.1681C230.935 79.3646 231.153 79.4955 231.394 79.6047C231.634 79.7138 231.896 79.7574 232.179 79.7574C232.463 79.7574 232.703 79.7138 232.943 79.6047C233.183 79.4955 233.38 79.3428 233.554 79.1681C233.729 78.9935 233.86 78.7753 233.947 78.5134C234.034 78.2733 234.1 77.9896 234.1 77.7276C234.1 77.4439 234.056 77.182 233.947 76.9419C233.86 76.68 233.707 76.4617 233.554 76.2871C233.38 76.0907 233.183 75.9379 232.943 75.8288C232.703 75.7197 232.441 75.6542 232.179 75.6542C231.896 75.6542 231.634 75.7197 231.394 75.8288C231.153 75.9379 230.935 76.0907 230.761 76.2871C230.586 76.4836 230.455 76.7018 230.346 76.9419C230.237 77.2038 230.193 77.4657 230.193 77.7276Z" fill="#046853"/>
<path d="M236.873 74.541C236.916 74.4755 236.96 74.4537 237.003 74.4319C237.025 74.4101 237.069 74.3882 237.134 74.3882C237.2 74.3882 237.244 74.3882 237.287 74.3882H237.811C237.92 74.3882 237.986 74.4319 238.029 74.4974C238.073 74.5628 238.117 74.6283 238.138 74.7156L238.204 75.2831C238.291 75.174 238.379 75.043 238.509 74.9339C238.619 74.8247 238.771 74.7156 238.924 74.6283C239.077 74.541 239.273 74.4537 239.47 74.4101C239.666 74.3446 239.906 74.3228 240.168 74.3228C240.583 74.3228 240.954 74.3882 241.281 74.541C241.609 74.6938 241.871 74.8902 242.089 75.1521C242.307 75.414 242.482 75.7196 242.591 76.0688C242.7 76.418 242.766 76.7891 242.766 77.2038V80.6959C242.766 80.8269 242.744 80.9142 242.678 80.9796C242.613 81.0451 242.525 81.067 242.416 81.067H241.609C241.478 81.067 241.369 81.0451 241.325 80.9796C241.281 80.936 241.26 80.8269 241.26 80.6959V77.2038C241.26 77.0292 241.238 76.8327 241.172 76.6581C241.107 76.4835 241.019 76.3307 240.889 76.178C240.758 76.047 240.627 75.916 240.43 75.8506C240.256 75.7633 240.037 75.7196 239.819 75.7196C239.666 75.7196 239.492 75.7414 239.317 75.8069C239.142 75.8724 238.99 75.9597 238.837 76.0907C238.684 76.1998 238.575 76.3526 238.488 76.5272C238.4 76.7018 238.335 76.8982 238.335 77.0946V80.4995C238.335 80.565 238.335 80.6304 238.335 80.6959C238.335 80.7614 238.313 80.8269 238.291 80.8705C238.269 80.9142 238.226 80.9578 238.204 81.0015C238.16 81.0233 238.117 81.0451 238.051 81.0451H237.178C237.069 81.0451 236.982 81.0233 236.916 80.9578C236.873 80.9142 236.829 80.8269 236.829 80.7177V74.672C236.807 74.6502 236.829 74.6065 236.873 74.541Z" fill="#046853"/>
<path d="M244.096 74.4538C244.184 74.4102 244.293 74.3883 244.424 74.3883H244.948C245.057 74.3883 245.122 74.432 245.166 74.4975C245.21 74.5629 245.253 74.6284 245.275 74.7157L245.341 75.2177C245.428 75.1086 245.515 74.9776 245.624 74.8685C245.733 74.7594 245.864 74.6502 245.995 74.5848C246.148 74.4975 246.301 74.432 246.497 74.3883C246.694 74.3447 246.912 74.3228 247.174 74.3228C247.414 74.3228 247.632 74.3447 247.851 74.3883C248.047 74.432 248.222 74.4975 248.396 74.6066C248.549 74.6939 248.702 74.8248 248.833 74.9558C248.964 75.0868 249.073 75.2395 249.182 75.4141C249.269 75.2395 249.378 75.0868 249.531 74.9558C249.684 74.8248 249.837 74.6939 250.033 74.6066C250.23 74.5193 250.426 74.432 250.644 74.3883C250.863 74.3447 251.103 74.301 251.343 74.301C251.757 74.301 252.128 74.3665 252.434 74.5193C252.74 74.6721 253.001 74.8685 253.22 75.1304C253.438 75.3923 253.591 75.6979 253.7 76.0471C253.809 76.3963 253.853 76.7673 253.853 77.1602V80.6524C253.853 80.7833 253.831 80.8706 253.765 80.9361C253.7 81.0016 253.613 81.0234 253.503 81.0234H252.696C252.565 81.0234 252.456 81.0016 252.412 80.9361C252.368 80.8924 252.347 80.7833 252.347 80.6524V77.1166C252.347 76.9419 252.325 76.7455 252.259 76.5709C252.216 76.3963 252.128 76.2435 252.019 76.1126C251.91 75.9816 251.779 75.8725 251.605 75.7852C251.43 75.6979 251.234 75.6542 251.015 75.6542C250.819 75.6542 250.644 75.6979 250.47 75.7634C250.295 75.8288 250.164 75.938 250.033 76.0471C249.924 76.1781 249.815 76.3308 249.749 76.5054C249.684 76.68 249.64 76.8765 249.64 77.1166V80.6087C249.64 80.8706 249.531 80.9797 249.291 80.9797H248.483C248.353 80.9797 248.243 80.9579 248.2 80.8924C248.156 80.8488 248.134 80.7397 248.134 80.6087V77.0947C248.134 76.9201 248.112 76.7455 248.069 76.5709C248.025 76.3963 247.938 76.2435 247.829 76.1126C247.72 75.9816 247.589 75.8725 247.414 75.7852C247.239 75.6979 247.043 75.6542 246.825 75.6542C246.672 75.6542 246.497 75.6761 246.345 75.7415C246.192 75.807 246.039 75.8943 245.908 76.0034C245.777 76.1126 245.668 76.2654 245.581 76.4181C245.493 76.5927 245.45 76.7673 245.45 76.9856V80.6524C245.45 80.7397 245.428 80.827 245.362 80.8706C245.297 80.9361 245.231 80.9579 245.144 80.9579H244.271C244.162 80.9579 244.075 80.9361 244.009 80.8706C243.966 80.827 243.922 80.7397 243.922 80.6305V74.5848C243.966 74.5848 244.009 74.4975 244.096 74.4538Z" fill="#046853"/>
<path d="M260.662 80.3251C260.356 80.587 260.007 80.7834 259.658 80.9362C259.287 81.089 258.894 81.1544 258.457 81.1544C257.977 81.1544 257.541 81.0672 257.104 80.8925C256.668 80.7179 256.318 80.4779 255.991 80.1505C255.664 79.8449 255.424 79.4739 255.227 79.0592C255.031 78.6445 254.943 78.1861 254.943 77.706C254.943 77.4004 254.987 77.0948 255.052 76.8111C255.14 76.5274 255.249 76.2436 255.38 76.0035C255.511 75.7635 255.685 75.5234 255.904 75.3051C256.1 75.0869 256.34 74.9123 256.58 74.7595C256.82 74.6067 257.104 74.4976 257.388 74.4103C257.672 74.323 257.999 74.2793 258.305 74.2793C258.566 74.2793 258.828 74.3011 259.09 74.3666C259.352 74.4321 259.592 74.5194 259.832 74.6503C260.072 74.7595 260.291 74.9123 260.487 75.0869C260.684 75.2615 260.858 75.4579 261.033 75.6543C261.251 75.9381 261.404 76.2655 261.491 76.6147C261.578 76.9639 261.644 77.3349 261.644 77.7496C261.644 77.8587 261.644 77.9461 261.622 78.0115C261.622 78.077 261.6 78.1425 261.557 78.1861C261.513 78.2298 261.469 78.2516 261.404 78.2734C261.338 78.2953 261.229 78.2953 261.12 78.2953H256.471C256.515 78.5572 256.602 78.7754 256.733 78.9719C256.864 79.1683 257.017 79.3211 257.191 79.4739C257.366 79.6048 257.562 79.7139 257.759 79.7794C257.955 79.8449 258.174 79.8886 258.37 79.8886C258.523 79.8886 258.676 79.8667 258.828 79.8449C258.981 79.8231 259.112 79.7794 259.243 79.7139C259.374 79.6703 259.483 79.6048 259.592 79.5393C259.701 79.4739 259.789 79.4084 259.876 79.3211C259.92 79.2774 259.963 79.2556 260.007 79.2338C260.051 79.2119 260.094 79.1901 260.138 79.1901C260.16 79.1901 260.203 79.1901 260.247 79.212C260.291 79.2338 260.334 79.2774 260.356 79.3211C260.443 79.4302 260.531 79.5393 260.596 79.6048C260.662 79.6921 260.727 79.7358 260.749 79.8013C260.793 79.8449 260.815 79.8886 260.836 79.9322C260.858 79.9759 260.858 80.0195 260.858 80.0413C260.858 80.1286 260.793 80.2378 260.662 80.3251ZM258.326 75.5888C258.13 75.5888 257.912 75.6325 257.715 75.698C257.519 75.7635 257.344 75.8726 257.17 76.0035C257.017 76.1345 256.864 76.2873 256.755 76.4619C256.624 76.6365 256.537 76.8329 256.493 77.0294H260.203C260.138 76.8111 260.072 76.6147 259.941 76.4401C259.832 76.2655 259.68 76.1127 259.527 75.9817C259.374 75.8508 259.178 75.7635 258.981 75.6762C258.785 75.6325 258.566 75.5888 258.326 75.5888Z" fill="#046853"/>
<path d="M262.978 74.541C263.022 74.4755 263.065 74.4537 263.109 74.4319C263.131 74.4101 263.174 74.3882 263.24 74.3882C263.305 74.3882 263.349 74.3882 263.393 74.3882H263.917C264.026 74.3882 264.091 74.4319 264.135 74.4974C264.178 74.5628 264.222 74.6283 264.244 74.7156L264.309 75.2831C264.397 75.174 264.484 75.043 264.615 74.9339C264.724 74.8247 264.877 74.7156 265.03 74.6283C265.182 74.541 265.379 74.4537 265.575 74.4101C265.772 74.3446 266.012 74.3228 266.274 74.3228C266.688 74.3228 267.059 74.3882 267.387 74.541C267.714 74.6938 267.976 74.8902 268.194 75.1521C268.413 75.414 268.587 75.7196 268.696 76.0688C268.805 76.418 268.871 76.7891 268.871 77.2038V80.6959C268.871 80.8269 268.849 80.9142 268.784 80.9796C268.718 81.0451 268.631 81.067 268.522 81.067H267.714C267.583 81.067 267.474 81.0451 267.43 80.9796C267.387 80.936 267.365 80.8269 267.365 80.6959V77.2038C267.365 77.0292 267.343 76.8327 267.278 76.6581C267.212 76.4835 267.125 76.3307 266.994 76.178C266.863 76.047 266.732 75.916 266.536 75.8506C266.361 75.7633 266.143 75.7196 265.924 75.7196C265.772 75.7196 265.597 75.7414 265.422 75.8069C265.248 75.8724 265.095 75.9597 264.942 76.0907C264.79 76.2216 264.68 76.3526 264.593 76.5272C264.506 76.7018 264.44 76.8982 264.44 77.0946V80.4995C264.44 80.565 264.44 80.6304 264.44 80.6959C264.44 80.7614 264.418 80.8269 264.397 80.8705C264.375 80.9142 264.353 80.9578 264.309 81.0015C264.266 81.0233 264.222 81.0451 264.157 81.0451H263.284C263.174 81.0451 263.087 81.0233 263.022 80.9578C262.978 80.9142 262.934 80.8269 262.934 80.7177V74.672C262.913 74.6502 262.934 74.6065 262.978 74.541Z" fill="#046853"/>
<path d="M272.448 81.0671C272.164 81.0671 271.902 81.0235 271.662 80.9362C271.422 80.8489 271.204 80.7397 271.029 80.587C270.854 80.4342 270.702 80.2378 270.593 80.0195C270.483 79.8012 270.44 79.5393 270.44 79.2556V78.3826V75.698H269.829C269.72 75.698 269.654 75.6761 269.61 75.6325C269.567 75.5888 269.545 75.5015 269.545 75.4142V74.6503C269.545 74.5412 269.567 74.4757 269.61 74.4321C269.654 74.3884 269.741 74.3666 269.829 74.3666H270.44C270.44 74.192 270.44 73.9955 270.44 73.8209C270.44 73.6463 270.44 73.4499 270.44 73.2753C270.44 73.2098 270.462 73.1443 270.505 73.1007C270.549 73.057 270.614 73.0352 270.702 72.9916C270.767 72.9697 270.833 72.9479 270.92 72.9261C271.007 72.9043 271.095 72.8606 271.182 72.8388C271.269 72.8169 271.357 72.7951 271.444 72.7733C271.531 72.7515 271.597 72.7515 271.662 72.7515C271.771 72.7515 271.837 72.7733 271.88 72.8388C271.924 72.9043 271.924 72.9697 271.924 73.0789C271.924 73.2971 271.924 73.5154 271.924 73.7336C271.924 73.9519 271.924 74.1701 271.924 74.3884H272.688C272.775 74.3884 272.841 74.4102 272.906 74.4539C272.95 74.4975 272.972 74.5848 272.972 74.6722V75.3924C272.972 75.5015 272.95 75.5888 272.906 75.6325C272.862 75.6761 272.797 75.698 272.688 75.698H271.924C271.924 75.9162 271.924 76.1127 271.924 76.2873C271.924 76.44 271.924 76.5928 271.924 76.702C271.924 76.8329 271.924 76.942 271.924 77.0512C271.924 77.1603 271.924 77.2694 271.924 77.4004C271.924 77.5313 271.924 77.6623 271.924 77.8151C271.924 77.9679 271.924 78.1643 271.924 78.4044V78.4262V78.448V79.1465C271.924 79.3865 271.968 79.5393 272.055 79.6485C272.142 79.7576 272.295 79.8012 272.491 79.8012C272.557 79.8012 272.622 79.8231 272.666 79.8885C272.71 79.9322 272.732 79.9977 272.732 80.085V80.8052C272.732 80.8925 272.71 80.958 272.666 81.0235C272.601 81.0453 272.535 81.0671 272.448 81.0671Z" fill="#046853"/>
</svg>
