<svg width="244" height="264" viewBox="0 0 244 264" fill="none" xmlns="http://www.w3.org/2000/svg">
<path d="M146.866 132.243C145.774 132.243 144.727 132.374 143.701 132.592C141.977 132.985 140.449 133.836 138.921 134.6C133.181 137.481 126.371 138.027 119.561 138.027C88.5905 138.027 63.4689 112.905 63.4689 81.9343C63.4689 64.6701 71.2608 49.2392 83.5269 38.9592C86.0151 36.8639 89.0707 34.2448 92.1263 34.5285C96.4697 34.9214 97.1681 40.2469 105.025 40.3124C113.014 40.4652 120.456 34.5285 121.722 22.8953C123.01 11.0002 111.922 0 99.3507 0C96.9935 0 94.7236 0.349213 92.5847 1.02582C91.6025 1.39686 90.6422 1.7679 89.66 2.16076C58.7545 14.8634 36.9941 45.2669 36.9941 80.7558C36.9941 127.681 75.0366 165.724 121.962 165.724C131.98 165.724 141.453 163.585 150.511 160.813C151.515 160.508 152.497 160.18 153.392 159.722C158.128 157.343 161.38 152.432 161.38 146.757C161.38 138.725 154.876 132.243 146.866 132.243Z" fill="#00A499"/>
<path d="M135.842 23.2882C138.418 26.4529 142.347 28.4609 146.734 28.4609C154.482 28.4609 160.768 22.1751 160.768 14.4269C160.768 11.8078 160.047 9.34144 158.781 7.24615C158.258 6.50407 157.712 5.78382 157.166 5.06356C154.591 2.20437 150.859 0.392822 146.712 0.392822C138.964 0.392822 132.678 6.67868 132.678 14.4269C132.678 17.2861 133.529 19.9488 135.013 22.1751C135.319 22.5243 135.581 22.9171 135.842 23.2882Z" fill="#6CC3C4"/>
<path d="M191.172 31.6039C190.714 30.8182 190.168 30.0761 189.557 29.4213C186.982 26.5622 183.249 24.7506 179.102 24.7506C171.354 24.7506 165.068 31.0365 165.068 38.7847C165.068 41.6438 165.92 44.3066 167.404 46.5328C167.687 46.9039 167.949 47.2749 168.233 47.646C174.955 57.0093 178.906 68.5115 178.906 80.9086C178.906 93.1311 175.065 104.481 168.517 113.778C168.451 113.866 168.386 113.953 168.342 114.04C166.836 116.267 165.985 118.951 165.985 121.832C165.985 129.58 172.271 135.866 180.019 135.866C184.253 135.866 188.051 133.989 190.626 131.021C191.259 130.301 191.805 129.515 192.285 128.664C201.539 115.044 206.93 98.6094 206.93 80.9086C206.887 62.5312 201.081 45.507 191.172 31.6039Z" fill="#6CC3C4"/>
<path d="M129.842 127.158C129.1 124.124 130.65 119.628 129.515 117.489C127.616 113.866 126.677 111.072 126.743 108.802C127.092 95.9467 131.152 95.8376 128.576 92.782C125.324 88.9188 124.364 88.8533 122.727 89.3116C116.616 91.0359 114.498 91.4288 111.901 90.5994C104.633 88.264 102.494 91.647 101.643 94.2225C100.574 97.409 100.224 97.4964 99.1767 97.6273C93.9167 98.2603 91.0138 96.0558 89.3114 94.5499C87.7618 93.1748 93.3274 82.371 94.6587 80.7777C99.8751 74.5792 97.3651 68.9044 95.6627 67.333C92.1051 64.0591 92.9345 62.6186 94.506 61.571C98.4128 58.93 96.7104 56.2236 95.5318 55.1323C90.8829 50.8981 100.683 48.7155 101.425 46.7948C102.494 44.0448 100.377 40.8145 98.2818 41.884C89.7261 46.2928 73.6186 64.7794 73.6186 83.7679C73.6186 90.0537 73.2694 96.9071 76.8706 101.643C78.2893 103.498 84.2914 106.03 84.2914 106.03C87.2598 107.536 89.0713 106.991 89.0713 106.991C95.6191 104.524 95.0734 108.366 95.0734 108.366C94.0694 115.525 103.542 118.537 103.542 118.537C107.929 119.759 108.998 124.32 108.998 124.32C111.53 131.086 118.449 131.174 122.487 132.571C123.469 132.549 132.025 133.334 132.985 133.247C132.985 131.501 130.257 128.816 129.842 127.158Z" fill="#046853"/>
<path d="M128.555 38.9593C130.868 41.5347 133.4 45.5725 117.707 47.6023C116.07 47.8206 107.537 50.3742 110.483 60.305C111.05 62.2257 111.094 63.0551 109.632 68.2496C108.65 71.7199 104.83 86.7361 124.866 85.3829C127.333 85.2083 129.93 83.5277 133.182 80.0792C133.837 79.3808 136.565 78.7042 136.761 81.4543C137.089 86.256 137.7 91.1231 149.464 95.8812C150.49 96.2959 151.188 96.9288 151.778 99.7007C151.778 99.7007 153.284 104.197 159.046 104.437C164.829 104.677 164.48 97.5181 164.48 97.5181C164.48 97.5181 166.401 83.9861 163.433 76.1506C162.472 73.6188 164 72.833 166.772 65.8706C167.405 64.2991 167.536 61.3526 168.322 59.1046C160.311 44.8086 145.557 34.7905 128.358 33.3937C127.747 33.9611 125.979 36.1001 128.555 38.9593Z" fill="#046853"/>
<path d="M24.4022 196.477C23.6601 195.822 22.7871 195.298 21.8049 194.883C20.8227 194.491 19.7751 194.294 18.7056 194.294C17.527 194.294 16.4139 194.512 15.3663 194.971C14.3186 195.407 13.4019 196.018 12.6162 196.804C11.8523 197.59 11.2412 198.485 10.7828 199.554C10.3463 200.602 10.1062 201.737 10.1062 202.893C10.1062 204.072 10.3245 205.185 10.7828 206.233C11.2193 207.28 11.8305 208.197 12.6162 208.983C13.4019 209.747 14.2968 210.358 15.3663 210.816C16.4139 211.253 17.527 211.493 18.7056 211.493C19.7751 211.493 20.8227 211.296 21.8049 210.904C22.7871 210.511 23.6601 209.987 24.4022 209.31C25.1443 208.656 25.7772 207.87 26.2792 206.953C26.7812 206.036 27.0868 205.032 27.2395 203.963H36.3191C36.1882 206.255 35.6207 208.415 34.6603 210.445C33.7 212.475 32.4123 214.221 30.819 215.683C29.2257 217.168 27.3923 218.346 25.3189 219.197C23.2454 220.07 21.041 220.507 18.7056 220.507C16.2611 220.507 13.9694 220.049 11.8305 219.132C9.69153 218.215 7.83633 216.971 6.22122 215.356C4.62793 213.763 3.36203 211.886 2.44534 209.747C1.52865 207.608 1.07031 205.316 1.07031 202.872C1.07031 200.427 1.52865 198.135 2.44534 195.996C3.36203 193.858 4.6061 192.002 6.22122 190.387C7.81451 188.794 9.69153 187.528 11.8305 186.611C13.9694 185.695 16.2611 185.236 18.7056 185.236C21.0628 185.236 23.2672 185.673 25.3189 186.546C27.3923 187.419 29.2257 188.598 30.819 190.06" fill="#00A499"/>
<path d="M66.0675 199.532C65.631 198.485 65.0199 197.568 64.2342 196.782C63.4484 196.018 62.5536 195.407 61.4841 194.949C60.4365 194.512 59.3015 194.272 58.1447 194.272C56.9661 194.272 55.853 194.49 54.8054 194.949C53.7577 195.385 52.8411 195.996 52.0553 196.782C51.2914 197.568 50.6803 198.463 50.2219 199.532C49.7854 200.58 49.5453 201.715 49.5453 202.872V220.485H40.5312V176.113H49.5453V187.528C50.8112 186.83 52.1644 186.262 53.6268 185.869C55.0891 185.476 56.5951 185.28 58.1447 185.28C60.5892 185.28 62.881 185.738 65.0199 186.655C67.1588 187.572 69.014 188.838 70.6291 190.431C72.2224 192.024 73.4883 193.901 74.405 196.04C75.3217 198.179 75.78 200.471 75.78 202.915V220.529H66.766V202.915C66.7441 201.715 66.504 200.602 66.0675 199.532Z" fill="#00A499"/>
<path d="M108.345 216.84C106.839 218.019 105.18 218.914 103.347 219.547C101.514 220.18 99.5929 220.507 97.563 220.507C95.1185 220.507 92.8268 220.049 90.6879 219.132C88.549 218.215 86.6938 216.971 85.0786 215.356C83.4853 213.763 82.2194 211.886 81.3028 209.747C80.3861 207.608 79.9277 205.316 79.9277 202.872C79.9277 200.427 80.3861 198.135 81.3028 195.996C82.2194 193.858 83.4635 192.002 85.0786 190.387C86.6719 188.794 88.549 187.528 90.6879 186.611C92.8268 185.695 95.1185 185.236 97.563 185.236C100.008 185.236 102.299 185.695 104.438 186.611C106.577 187.528 108.432 188.794 110.047 190.387C111.641 191.981 112.907 193.858 113.823 195.996C114.74 198.135 115.198 200.427 115.198 202.872C115.198 203.614 115.155 204.356 115.067 205.054C114.98 205.753 114.849 206.429 114.718 207.106H90.1204C90.8625 208.415 91.9101 209.485 93.2197 210.271C94.5292 211.078 95.9916 211.471 97.5849 211.471C98.5234 211.471 99.4182 211.34 100.269 211.056C101.121 210.773 101.885 210.38 102.583 209.856L108.345 216.84ZM97.5849 194.294C96.0789 194.294 94.7257 194.643 93.5034 195.342C92.2812 196.04 91.2772 196.957 90.4696 198.092H104.7C103.893 196.957 102.889 196.04 101.666 195.342C100.444 194.643 99.0909 194.294 97.5849 194.294Z" fill="#00A499"/>
<path d="M142.721 196.477C141.978 195.822 141.105 195.298 140.123 194.883C139.141 194.491 138.093 194.294 137.024 194.294C135.845 194.294 134.732 194.512 133.685 194.971C132.637 195.407 131.72 196.018 130.935 196.804C130.171 197.59 129.56 198.485 129.101 199.554C128.665 200.602 128.425 201.737 128.425 202.893C128.425 204.072 128.643 205.185 129.101 206.233C129.538 207.28 130.149 208.197 130.935 208.983C131.72 209.747 132.615 210.358 133.685 210.816C134.732 211.253 135.845 211.493 137.024 211.493C138.093 211.493 139.141 211.296 140.123 210.904C141.105 210.511 141.978 209.987 142.721 209.31C143.463 208.656 144.096 207.87 144.598 206.953C145.1 206.036 145.405 205.032 145.558 203.963H154.637C154.507 206.255 153.939 208.415 152.979 210.445C152.018 212.475 150.731 214.221 149.137 215.683C147.544 217.168 145.711 218.346 143.637 219.197C141.564 220.07 139.359 220.507 137.024 220.507C134.579 220.507 132.288 220.049 130.149 219.132C128.01 218.215 126.155 216.971 124.54 215.356C122.946 213.763 121.68 211.886 120.764 209.747C119.847 207.608 119.389 205.316 119.389 202.872C119.389 200.427 119.847 198.135 120.764 195.996C121.68 193.858 122.924 192.002 124.54 190.387C126.133 188.794 128.01 187.528 130.149 186.611C132.288 185.695 134.579 185.236 137.024 185.236C139.381 185.236 141.586 185.673 143.637 186.546C145.711 187.419 147.544 188.598 149.137 190.06" fill="#00A499"/>
<path d="M167.864 220.485H158.85V176.113H167.864V198.223C169.653 198.223 171.334 197.873 172.905 197.197C174.477 196.52 175.852 195.582 177.031 194.425C178.209 193.246 179.126 191.871 179.802 190.3C180.479 188.728 180.828 187.048 180.828 185.258H189.995C189.995 188.881 189.209 192.199 187.682 195.233C186.132 198.266 184.037 200.776 181.418 202.806C184.102 204.88 186.219 207.433 187.791 210.489C189.362 213.544 190.148 216.884 190.148 220.485H180.916C180.916 218.695 180.566 217.015 179.89 215.421C179.213 213.828 178.275 212.431 177.118 211.275C175.939 210.096 174.564 209.179 172.971 208.503C171.378 207.826 169.675 207.477 167.907 207.477V220.485H167.864Z" fill="#00A499"/>
<path d="M194.338 185.28V176.113H203.352V185.28H194.338ZM203.352 187.528V220.485H194.338V187.528H203.352Z" fill="#6CC3C4"/>
<path d="M242.791 220.485H233.777V202.872C233.777 201.693 233.559 200.58 233.101 199.532C232.664 198.485 232.053 197.568 231.267 196.782C230.482 196.018 229.587 195.407 228.517 194.949C227.47 194.512 226.335 194.272 225.178 194.272C223.999 194.272 222.886 194.491 221.839 194.949C220.791 195.385 219.874 195.996 219.089 196.782C218.325 197.568 217.713 198.463 217.255 199.532C216.819 200.58 216.579 201.715 216.579 202.872V220.485H207.564V202.872C207.564 200.427 208.023 198.135 208.939 195.996C209.856 193.858 211.1 192.002 212.715 190.387C214.309 188.794 216.186 187.528 218.325 186.611C220.464 185.695 222.755 185.236 225.2 185.236C227.644 185.236 229.936 185.695 232.075 186.611C234.214 187.528 236.069 188.794 237.684 190.387C239.277 191.981 240.543 193.858 241.46 195.996C242.377 198.135 242.835 200.427 242.835 202.872V220.485H242.791Z" fill="#6CC3C4"/>
<path d="M0.0218272 242.551C0.0436531 242.442 0.0873035 242.333 0.109129 242.246C0.152781 242.158 0.174609 242.071 0.196435 241.984L4.69256 230.765C4.71439 230.7 4.75804 230.634 4.82352 230.569C4.889 230.503 4.99813 230.46 5.12908 230.46H6.48229C6.61324 230.46 6.72237 230.503 6.76602 230.569C6.8315 230.634 6.87515 230.7 6.89698 230.743L7.18072 231.398L11.5895 242.442C11.5895 242.464 11.5895 242.486 11.6114 242.529C11.6114 242.573 11.6332 242.617 11.6332 242.639C11.6332 242.813 11.5022 242.879 11.2622 242.879H9.62521C9.49426 242.879 9.40695 242.857 9.34148 242.813C9.276 242.77 9.21052 242.682 9.16687 242.573L9.01409 242.18C8.90496 241.918 8.79583 241.635 8.6867 241.373C8.57757 241.111 8.46844 240.827 8.38114 240.565H3.23023C3.07745 240.958 2.9465 241.329 2.81554 241.656C2.68459 241.984 2.55363 242.289 2.46633 242.551C2.37902 242.748 2.24807 242.857 2.02981 242.857H0.349215C0.240086 242.857 0.152783 242.835 0.0873055 242.791C0.0218279 242.748 0 242.704 0 242.617C0 242.595 1.33182e-06 242.573 0.0218272 242.551ZM5.82751 233.624C5.52195 234.388 5.21639 235.196 4.93265 236.025C4.62709 236.855 4.34335 237.64 4.03779 238.404H7.59541L5.82751 233.624Z" fill="#046853"/>
<path d="M14.3627 239.867C14.4718 240.041 14.6246 240.216 14.7992 240.347C14.9738 240.478 15.1702 240.587 15.3448 240.674C15.5413 240.761 15.7159 240.827 15.8905 240.87C16.0651 240.914 16.196 240.936 16.3052 240.936C16.458 240.936 16.6544 240.914 16.8508 240.892C17.0691 240.849 17.2655 240.805 17.4401 240.718C17.6366 240.63 17.7893 240.521 17.9203 240.368C18.0512 240.216 18.1167 240.041 18.1167 239.801C18.1167 239.583 18.0731 239.386 17.9639 239.255C17.8548 239.124 17.7239 238.993 17.5492 238.906C17.3746 238.819 17.1782 238.732 16.9381 238.666C16.7199 238.601 16.4798 238.535 16.2179 238.47C15.6286 238.317 15.1266 238.12 14.7119 237.902C14.2972 237.684 13.9698 237.422 13.6861 237.138C13.4242 236.855 13.2277 236.549 13.0968 236.2C12.9658 235.851 12.9222 235.479 12.9222 235.087C12.9222 234.628 13.0095 234.214 13.1841 233.843C13.3587 233.472 13.6206 233.144 13.9262 232.882C14.2535 232.62 14.6464 232.402 15.0829 232.249C15.5413 232.096 16.0433 232.031 16.5889 232.031C16.9818 232.031 17.331 232.075 17.6366 232.14C17.9421 232.206 18.2258 232.315 18.4878 232.446C18.7497 232.577 18.9898 232.751 19.2298 232.97C19.4699 233.188 19.6882 233.428 19.9283 233.712C20.0156 233.821 20.0592 233.908 20.0592 233.995C20.0592 234.104 19.9937 234.192 19.8846 234.279C19.7973 234.345 19.71 234.432 19.5791 234.519C19.4699 234.628 19.3608 234.716 19.2298 234.803C19.1207 234.89 19.0116 234.978 18.9025 235.043C18.7933 235.108 18.7278 235.152 18.6624 235.152C18.5314 235.152 18.4223 235.087 18.3132 234.934C18.1822 234.781 18.0731 234.672 17.9421 234.563C17.8112 234.454 17.6802 234.366 17.5492 234.301C17.4183 234.235 17.2655 234.17 17.1127 234.148C16.96 234.104 16.7853 234.083 16.6107 234.083C16.458 234.083 16.3052 234.104 16.1306 234.148C15.956 234.192 15.825 234.257 15.6722 234.345C15.5413 234.432 15.4321 234.541 15.323 234.672C15.2357 234.803 15.1921 234.934 15.1921 235.087C15.1921 235.261 15.2575 235.414 15.3667 235.545C15.4758 235.676 15.6286 235.785 15.8032 235.872C15.9778 235.96 16.1742 236.047 16.3707 236.112C16.5671 236.178 16.7635 236.222 16.9381 236.287C17.4401 236.44 17.9203 236.593 18.3568 236.789C18.7933 236.985 19.1644 237.204 19.4699 237.487C19.7755 237.749 20.0156 238.077 20.1902 238.448C20.3648 238.819 20.4521 239.234 20.4521 239.736C20.4521 240.259 20.343 240.718 20.1465 241.132C19.9501 241.547 19.6664 241.896 19.2953 242.18C18.9243 242.464 18.5096 242.682 18.0076 242.835C17.5056 242.988 16.9599 243.053 16.3925 243.053C16.0433 243.053 15.694 243.009 15.323 242.944C14.952 242.878 14.6028 242.748 14.2754 242.595C13.948 242.442 13.6424 242.224 13.3587 241.984C13.0749 241.744 12.8349 241.438 12.6603 241.111C12.5729 240.98 12.5293 240.849 12.5293 240.74C12.5293 240.674 12.5511 240.609 12.5948 240.543C12.6384 240.499 12.6821 240.434 12.7476 240.39L13.6861 239.67C13.7734 239.626 13.8388 239.605 13.9043 239.605C13.9916 239.605 14.0571 239.626 14.1226 239.692C14.2317 239.714 14.2972 239.779 14.3627 239.867Z" fill="#046853"/>
<path d="M23.5502 239.867C23.6593 240.041 23.8121 240.216 23.9867 240.347C24.1613 240.478 24.3577 240.587 24.5323 240.674C24.7288 240.761 24.9034 240.827 25.078 240.87C25.2526 240.914 25.3835 240.936 25.4927 240.936C25.6455 240.936 25.8419 240.914 26.0383 240.892C26.2566 240.849 26.453 240.805 26.6276 240.718C26.8241 240.63 26.9768 240.521 27.1078 240.368C27.2387 240.216 27.3042 240.041 27.3042 239.801C27.3042 239.583 27.2606 239.386 27.1514 239.255C27.0423 239.124 26.9114 238.993 26.7368 238.906C26.5621 238.819 26.3657 238.732 26.1256 238.666C25.9074 238.601 25.6673 238.535 25.4054 238.47C24.8161 238.317 24.3141 238.12 23.8994 237.902C23.4847 237.684 23.1573 237.422 22.8736 237.138C22.6117 236.855 22.4152 236.549 22.2843 236.2C22.1533 235.851 22.1097 235.479 22.1097 235.087C22.1097 234.628 22.197 234.214 22.3716 233.843C22.5462 233.472 22.8081 233.144 23.1137 232.882C23.441 232.62 23.8339 232.402 24.2704 232.249C24.7288 232.096 25.2308 232.031 25.7764 232.031C26.1693 232.031 26.5185 232.075 26.8241 232.14C27.1296 232.206 27.4134 232.315 27.6753 232.446C27.9372 232.577 28.1773 232.751 28.4173 232.97C28.6574 233.188 28.8757 233.428 29.1158 233.712C29.2031 233.821 29.2467 233.908 29.2467 233.995C29.2467 234.104 29.1812 234.192 29.0721 234.279C28.9848 234.345 28.8975 234.432 28.7666 234.519C28.6574 234.628 28.5483 234.716 28.4173 234.803C28.3082 234.89 28.1991 234.978 28.09 235.043C27.9808 235.108 27.9153 235.152 27.8499 235.152C27.7189 235.152 27.6098 235.087 27.5007 234.934C27.3697 234.781 27.2606 234.672 27.1296 234.563C26.9987 234.454 26.8677 234.366 26.7368 234.301C26.6058 234.235 26.453 234.17 26.3002 234.148C26.1475 234.104 25.9728 234.083 25.7982 234.083C25.6455 234.083 25.4927 234.104 25.3181 234.148C25.1435 234.192 25.0125 234.257 24.8597 234.345C24.7288 234.432 24.6196 234.541 24.5105 234.672C24.4232 234.803 24.3796 234.934 24.3796 235.087C24.3796 235.261 24.445 235.414 24.5542 235.545C24.6633 235.676 24.8161 235.785 24.9907 235.872C25.1653 235.96 25.3617 236.047 25.5581 236.112C25.7546 236.178 25.951 236.222 26.1256 236.287C26.6276 236.44 27.1078 236.593 27.5443 236.789C27.9808 236.985 28.3519 237.204 28.6574 237.487C28.963 237.749 29.2031 238.077 29.3777 238.448C29.5523 238.819 29.6396 239.234 29.6396 239.736C29.6396 240.259 29.5305 240.718 29.334 241.132C29.1376 241.547 28.8539 241.896 28.4828 242.18C28.1118 242.464 27.6971 242.682 27.1951 242.835C26.6931 242.988 26.1474 243.053 25.58 243.053C25.2308 243.053 24.8816 243.009 24.5105 242.944C24.1395 242.878 23.7903 242.748 23.4629 242.595C23.1355 242.442 22.8299 242.224 22.5462 241.984C22.2624 241.744 22.0224 241.438 21.8478 241.111C21.7604 240.98 21.7168 240.849 21.7168 240.74C21.7168 240.674 21.7386 240.609 21.7823 240.543C21.8259 240.499 21.8696 240.434 21.9351 240.39L22.8736 239.67C22.9609 239.626 23.0264 239.605 23.0918 239.605C23.1791 239.605 23.2446 239.626 23.3101 239.692C23.3974 239.714 23.4629 239.779 23.5502 239.867Z" fill="#046853"/>
<path d="M31.2109 237.575C31.2109 237.073 31.2764 236.571 31.4074 236.113C31.5383 235.632 31.7129 235.196 31.953 234.803C32.1931 234.388 32.4768 234.017 32.8042 233.69C33.1316 233.363 33.5027 233.079 33.9173 232.839C34.332 232.599 34.7686 232.424 35.2269 232.293C35.6852 232.162 36.1872 232.097 36.6892 232.097C37.1912 232.097 37.6714 232.162 38.1516 232.293C38.6317 232.424 39.0464 232.599 39.4611 232.839C39.854 233.079 40.225 233.363 40.5742 233.69C40.9016 234.017 41.1854 234.388 41.4254 234.803C41.6655 235.218 41.8401 235.654 41.9711 236.113C42.102 236.593 42.1675 237.073 42.1675 237.575C42.1675 238.077 42.102 238.579 41.9711 239.037C41.8401 239.496 41.6655 239.932 41.4254 240.347C41.1854 240.762 40.9016 241.111 40.5742 241.46C40.2469 241.787 39.8758 242.071 39.4611 242.311C39.0464 242.551 38.6317 242.726 38.1516 242.857C37.6932 242.988 37.1912 243.053 36.6892 243.053C36.1872 243.053 35.6852 242.988 35.2269 242.857C34.7686 242.726 34.332 242.551 33.9173 242.311C33.5027 242.071 33.1316 241.787 32.8042 241.46C32.4768 241.133 32.1931 240.762 31.953 240.347C31.7129 239.932 31.5383 239.496 31.4074 239.037C31.2764 238.557 31.2109 238.077 31.2109 237.575ZM33.5681 237.575C33.5681 238.011 33.6554 238.448 33.8082 238.841C33.961 239.234 34.1793 239.583 34.463 239.889C34.7467 240.194 35.0741 240.412 35.4452 240.587C35.838 240.762 36.2527 240.849 36.6892 240.849C37.1257 240.849 37.5404 240.762 37.9115 240.587C38.2825 240.412 38.6099 240.172 38.8936 239.889C39.1774 239.583 39.3738 239.256 39.5266 238.841C39.6794 238.426 39.7667 238.011 39.7667 237.575C39.7667 237.138 39.6794 236.724 39.5266 236.309C39.3738 235.916 39.1556 235.545 38.8936 235.261C38.6099 234.956 38.3043 234.716 37.9115 234.541C37.5404 234.367 37.1257 234.279 36.6892 234.279C36.2309 234.279 35.8162 234.367 35.4452 234.541C35.0523 234.716 34.7249 234.956 34.463 235.261C34.1793 235.567 33.961 235.916 33.8082 236.309C33.6336 236.702 33.5681 237.138 33.5681 237.575Z" fill="#046853"/>
<path d="M51.2253 240.085C51.3126 240.019 51.3999 239.976 51.4654 239.976C51.5309 239.954 51.5746 239.954 51.6182 239.954C51.7055 239.954 51.7928 240.019 51.8583 240.107L52.0547 240.39L52.644 241.242C52.6658 241.285 52.6877 241.329 52.7095 241.372C52.7313 241.416 52.7313 241.46 52.7313 241.482C52.7313 241.569 52.7095 241.656 52.644 241.722C52.5785 241.787 52.4912 241.853 52.4039 241.94C51.9238 242.289 51.4218 242.573 50.8761 242.769C50.3305 242.988 49.7194 243.097 49.0646 243.097C48.5626 243.097 48.0824 243.031 47.6241 242.9C47.1657 242.769 46.7292 242.595 46.3145 242.355C45.8998 242.115 45.5506 241.831 45.2014 241.503C44.874 241.176 44.5684 240.805 44.3284 240.39C44.0883 239.976 43.8918 239.539 43.7609 239.081C43.6299 238.622 43.5645 238.12 43.5645 237.618C43.5645 237.116 43.6299 236.614 43.7609 236.156C43.8918 235.698 44.0883 235.261 44.3284 234.847C44.5684 234.432 44.8522 234.061 45.2014 233.733C45.5288 233.406 45.8998 233.122 46.3145 232.882C46.7292 232.642 47.1439 232.468 47.6241 232.337C48.0824 232.206 48.5626 232.14 49.0646 232.14C49.6757 232.14 50.265 232.227 50.8106 232.424C51.3563 232.62 51.8583 232.86 52.273 233.188C52.3603 233.275 52.4258 233.341 52.5131 233.384C52.5785 233.45 52.6222 233.537 52.6222 233.646C52.6222 233.69 52.6222 233.712 52.6222 233.755C52.6222 233.799 52.6004 233.843 52.5785 233.886L51.9019 234.934C51.7928 235.108 51.6619 235.174 51.5309 235.174C51.4436 235.174 51.3345 235.13 51.2035 235.021C50.9198 234.781 50.5924 234.585 50.1995 234.432C49.8285 234.279 49.4356 234.214 49.0209 234.214C48.5844 234.214 48.1697 234.301 47.7987 234.475C47.4058 234.65 47.0784 234.912 46.7947 235.218C46.511 235.523 46.2709 235.894 46.1181 236.287C45.9435 236.702 45.878 237.116 45.878 237.575C45.878 238.033 45.9653 238.47 46.1181 238.884C46.2927 239.299 46.511 239.648 46.7947 239.954C47.0784 240.259 47.4276 240.499 47.7987 240.674C48.1915 240.849 48.5844 240.936 49.0209 240.936C49.5011 240.936 49.894 240.849 50.2432 240.696C50.636 240.499 50.9416 240.303 51.2253 240.085Z" fill="#046853"/>
<path d="M54.5215 229.041C54.5215 228.714 54.6961 228.539 55.0235 228.539H56.4203C56.5731 228.539 56.7041 228.583 56.7914 228.67C56.8787 228.757 56.9442 228.888 56.9442 229.041V230.285C56.9442 230.416 56.9005 230.525 56.8132 230.656C56.7259 230.765 56.5949 230.831 56.4422 230.831H55.0453C54.7179 230.831 54.5433 230.656 54.5433 230.285V229.041H54.5215ZM54.5215 232.751C54.5215 232.599 54.5651 232.49 54.6524 232.38C54.7397 232.271 54.8489 232.228 55.0235 232.228H56.4203C56.4858 232.228 56.5513 232.249 56.6168 232.271C56.6822 232.293 56.7477 232.337 56.7914 232.38C56.835 232.424 56.8787 232.49 56.9223 232.533C56.966 232.599 56.966 232.664 56.966 232.73V242.333C56.966 242.66 56.7914 242.835 56.4422 242.835H55.0453C54.7179 242.835 54.5433 242.66 54.5433 242.333V232.751H54.5215Z" fill="#046853"/>
<path d="M70.2994 242.377C70.2994 242.486 70.2776 242.551 70.2339 242.617C70.1903 242.682 70.1466 242.726 70.0812 242.769C70.0157 242.813 69.9284 242.835 69.8411 242.835C69.7538 242.857 69.6665 242.857 69.5792 242.857H68.5315C68.3569 242.857 68.226 242.813 68.1605 242.704C68.095 242.617 68.0295 242.486 68.0077 242.355L67.964 241.635C67.7676 241.831 67.5494 242.006 67.3093 242.18C67.0692 242.355 66.8073 242.508 66.5454 242.617C66.2616 242.748 65.9779 242.835 65.6723 242.9C65.3668 242.966 65.0612 243.01 64.7338 243.01C64.2318 243.01 63.7517 242.944 63.2933 242.813C62.835 242.682 62.3985 242.508 61.9838 242.268C61.5691 242.027 61.198 241.744 60.8706 241.416C60.5432 241.089 60.2595 240.718 60.0194 240.303C59.7793 239.888 59.6047 239.452 59.4738 238.994C59.3428 238.535 59.2773 238.033 59.2773 237.531C59.2773 237.029 59.3428 236.527 59.4738 236.069C59.6047 235.611 59.7793 235.174 60.0194 234.759C60.2595 234.345 60.5432 233.974 60.8706 233.646C61.198 233.319 61.5691 233.035 61.9838 232.795C62.3985 232.555 62.835 232.38 63.2933 232.249C63.7517 232.118 64.2318 232.053 64.7338 232.053C65.083 232.053 65.4322 232.097 65.7596 232.162C66.087 232.228 66.3926 232.337 66.6763 232.489C66.9601 232.62 67.222 232.795 67.462 232.992C67.7021 233.188 67.9204 233.384 68.1168 233.624L68.226 232.73C68.2478 232.62 68.2696 232.555 68.3133 232.489C68.3351 232.424 68.3787 232.38 68.4006 232.337C68.4442 232.293 68.4879 232.271 68.5315 232.249C68.597 232.228 68.6625 232.228 68.7498 232.228H69.5792C69.6665 232.228 69.7538 232.228 69.8411 232.249C69.9284 232.271 70.0157 232.293 70.0812 232.337C70.1466 232.38 70.2121 232.424 70.2558 232.489C70.2994 232.555 70.3212 232.642 70.3212 232.73V242.377H70.2994ZM61.6127 237.553C61.6127 237.99 61.7 238.426 61.8528 238.819C62.0056 239.212 62.2238 239.561 62.5076 239.867C62.7913 240.172 63.1187 240.412 63.4897 240.587C63.8608 240.761 64.2755 240.849 64.7338 240.849C65.1922 240.849 65.6069 240.761 65.9997 240.587C66.3926 240.412 66.7418 240.172 67.0255 239.867C67.3093 239.561 67.5494 239.212 67.7021 238.819C67.8767 238.426 67.9422 237.99 67.9422 237.553C67.9422 237.117 67.8549 236.702 67.7021 236.287C67.5275 235.894 67.3093 235.545 67.0255 235.24C66.7418 234.934 66.3926 234.694 65.9997 234.519C65.6069 234.345 65.1922 234.257 64.7338 234.257C64.2973 234.257 63.8826 234.345 63.4897 234.519C63.1187 234.694 62.7913 234.934 62.5076 235.24C62.2238 235.545 62.0056 235.894 61.8528 236.287C61.6782 236.68 61.6127 237.095 61.6127 237.553Z" fill="#046853"/>
<path d="M76.3029 242.857C75.8663 242.857 75.4517 242.791 75.0588 242.66C74.6659 242.529 74.3385 242.355 74.0548 242.115C73.7711 241.875 73.531 241.569 73.3782 241.22C73.2036 240.871 73.1381 240.456 73.1381 240.019V238.644V234.366H72.1778C72.025 234.366 71.894 234.323 71.8067 234.257C71.7194 234.192 71.6758 234.061 71.6758 233.908V232.708C71.6758 232.555 71.7194 232.424 71.8067 232.359C71.894 232.293 72.0032 232.249 72.1778 232.249H73.1381C73.1381 231.944 73.1381 231.66 73.1381 231.376C73.1381 231.093 73.1381 230.787 73.1381 230.503C73.1381 230.394 73.1818 230.307 73.2472 230.241C73.3127 230.176 73.4218 230.11 73.5746 230.067C73.6619 230.023 73.7929 230.001 73.9238 229.936C74.0548 229.892 74.1858 229.849 74.3385 229.805C74.4913 229.761 74.6223 229.718 74.7532 229.696C74.8842 229.674 74.9933 229.652 75.0806 229.652C75.2552 229.652 75.3644 229.696 75.4298 229.805C75.4735 229.892 75.5171 230.023 75.5171 230.176C75.5171 230.525 75.5171 230.874 75.5171 231.224C75.5171 231.573 75.5171 231.922 75.5171 232.271H76.7176C76.8703 232.271 76.9795 232.315 77.0449 232.38C77.1323 232.446 77.1541 232.577 77.1541 232.73V233.865C77.1541 234.039 77.1104 234.17 77.0449 234.257C76.9576 234.345 76.8485 234.366 76.7176 234.366H75.5171C75.5171 234.738 75.5171 235.043 75.5171 235.283C75.5171 235.545 75.5171 235.763 75.5171 235.96C75.5171 236.156 75.5171 236.331 75.5171 236.505C75.5171 236.68 75.5171 236.855 75.5171 237.051C75.5171 237.248 75.5171 237.466 75.5171 237.728C75.5171 237.99 75.5171 238.295 75.5171 238.644C75.5171 238.666 75.5171 238.666 75.5171 238.688C75.5171 238.71 75.5171 238.71 75.5171 238.732V239.823C75.5171 240.194 75.5826 240.456 75.7354 240.609C75.8882 240.761 76.1064 240.849 76.4338 240.849C76.5429 240.849 76.6521 240.892 76.7176 240.98C76.783 241.067 76.8267 241.154 76.8267 241.285V242.442C76.8267 242.595 76.783 242.704 76.6957 242.791C76.5648 242.813 76.4556 242.857 76.3029 242.857Z" fill="#046853"/>
<path d="M78.8125 229.041C78.8125 228.714 78.9871 228.539 79.3145 228.539H80.7114C80.8641 228.539 80.9951 228.583 81.0824 228.67C81.1697 228.757 81.2352 228.888 81.2352 229.041V230.285C81.2352 230.416 81.1915 230.525 81.1042 230.656C81.0169 230.765 80.886 230.831 80.7332 230.831H79.3363C79.0089 230.831 78.8343 230.656 78.8343 230.285V229.041H78.8125ZM78.8125 232.751C78.8125 232.599 78.8562 232.49 78.9435 232.38C79.0308 232.293 79.1399 232.228 79.3145 232.228H80.7114C80.7768 232.228 80.8423 232.249 80.9078 232.271C80.9733 232.293 81.0387 232.337 81.0824 232.38C81.126 232.424 81.1697 232.49 81.2133 232.533C81.257 232.599 81.257 232.664 81.257 232.73V242.333C81.257 242.66 81.0824 242.835 80.7332 242.835H79.3363C79.0089 242.835 78.8343 242.66 78.8343 242.333V232.751H78.8125Z" fill="#046853"/>
<path d="M83.5488 237.575C83.5488 237.073 83.6143 236.571 83.7453 236.113C83.8762 235.632 84.0508 235.196 84.2909 234.803C84.531 234.388 84.8147 234.017 85.1421 233.69C85.4695 233.363 85.8406 233.079 86.2552 232.839C86.6699 232.599 87.1065 232.424 87.5648 232.293C88.0231 232.162 88.5251 232.097 89.0271 232.097C89.5291 232.097 90.0093 232.162 90.4895 232.293C90.9478 232.424 91.3843 232.599 91.799 232.839C92.1919 233.079 92.5629 233.363 92.9121 233.69C93.2395 234.017 93.5233 234.388 93.7633 234.803C94.0034 235.218 94.178 235.654 94.309 236.113C94.4399 236.593 94.5054 237.073 94.5054 237.575C94.5054 238.077 94.4399 238.579 94.309 239.037C94.178 239.496 94.0034 239.932 93.7633 240.347C93.5233 240.762 93.2395 241.111 92.9121 241.46C92.5847 241.787 92.2137 242.071 91.799 242.311C91.3843 242.551 90.9696 242.726 90.4895 242.857C90.0311 242.988 89.5291 243.053 89.0271 243.053C88.5251 243.053 88.0231 242.988 87.5648 242.857C87.1065 242.726 86.6699 242.551 86.2552 242.311C85.8406 242.071 85.4695 241.787 85.1421 241.46C84.8147 241.133 84.531 240.762 84.2909 240.347C84.0508 239.932 83.8762 239.496 83.7453 239.037C83.6143 238.557 83.5488 238.077 83.5488 237.575ZM85.906 237.575C85.906 238.011 85.9933 238.448 86.1461 238.841C86.2989 239.234 86.5172 239.583 86.8009 239.889C87.0846 240.194 87.412 240.412 87.7831 240.587C88.1759 240.762 88.5906 240.849 89.0271 240.849C89.4636 240.849 89.8783 240.762 90.2494 240.587C90.6204 240.412 90.9478 240.172 91.2315 239.889C91.5153 239.583 91.7117 239.256 91.8645 238.841C92.0173 238.426 92.1046 238.011 92.1046 237.575C92.1046 237.138 92.0173 236.724 91.8645 236.309C91.7117 235.916 91.4935 235.545 91.2315 235.261C90.9478 234.956 90.6422 234.716 90.2494 234.541C89.8783 234.367 89.4636 234.279 89.0271 234.279C88.5688 234.279 88.1541 234.367 87.7831 234.541C87.3902 234.716 87.0628 234.956 86.8009 235.261C86.5172 235.567 86.2989 235.916 86.1461 236.309C85.9933 236.702 85.906 237.138 85.906 237.575Z" fill="#046853"/>
<path d="M96.5587 232.49C96.6242 232.402 96.6896 232.337 96.7551 232.315C96.7988 232.271 96.8643 232.249 96.9516 232.249C97.0389 232.249 97.1262 232.249 97.1916 232.249H98.0429C98.1956 232.249 98.3266 232.293 98.3921 232.402C98.4794 232.511 98.523 232.621 98.5448 232.751L98.6321 233.646C98.7631 233.45 98.9159 233.275 99.1123 233.079C99.3087 232.904 99.527 232.73 99.7671 232.577C100.029 232.424 100.313 232.315 100.64 232.228C100.968 232.14 101.339 232.097 101.753 232.097C102.408 232.097 102.997 232.206 103.499 232.446C104.001 232.686 104.438 233.013 104.787 233.428C105.136 233.843 105.398 234.323 105.595 234.89C105.769 235.458 105.857 236.047 105.857 236.68V242.268C105.857 242.464 105.813 242.617 105.704 242.726C105.616 242.835 105.464 242.879 105.289 242.879H104.023C103.805 242.879 103.652 242.835 103.565 242.748C103.499 242.66 103.456 242.508 103.456 242.311V236.746C103.456 236.44 103.412 236.156 103.303 235.873C103.194 235.589 103.063 235.349 102.866 235.109C102.67 234.89 102.43 234.716 102.146 234.563C101.862 234.432 101.535 234.367 101.164 234.367C100.902 234.367 100.64 234.41 100.356 234.519C100.073 234.628 99.8326 234.759 99.5925 234.956C99.3524 235.152 99.1778 235.371 99.025 235.654C98.8722 235.916 98.8068 236.222 98.7849 236.571V241.984C98.7849 242.093 98.7849 242.202 98.7631 242.311C98.7413 242.42 98.7195 242.508 98.6976 242.595C98.654 242.682 98.6103 242.748 98.5448 242.791C98.4794 242.835 98.3921 242.857 98.2829 242.857H96.9734C96.7988 242.857 96.646 242.813 96.5587 242.726C96.4714 242.639 96.4277 242.508 96.4277 242.355V232.73C96.4496 232.664 96.4714 232.577 96.5587 232.49Z" fill="#046853"/>
<path d="M112.666 237.575C112.666 237.073 112.731 236.571 112.862 236.113C112.993 235.632 113.168 235.196 113.408 234.803C113.648 234.388 113.932 234.017 114.259 233.69C114.587 233.363 114.958 233.079 115.372 232.839C115.787 232.599 116.224 232.424 116.682 232.293C117.14 232.162 117.642 232.097 118.144 232.097C118.646 232.097 119.126 232.162 119.607 232.293C120.065 232.424 120.502 232.599 120.916 232.839C121.309 233.079 121.68 233.363 122.029 233.69C122.357 234.017 122.64 234.388 122.881 234.803C123.121 235.218 123.295 235.654 123.426 236.113C123.557 236.593 123.623 237.073 123.623 237.575C123.623 238.077 123.557 238.579 123.426 239.037C123.295 239.496 123.121 239.932 122.881 240.347C122.64 240.762 122.357 241.111 122.029 241.46C121.702 241.787 121.331 242.071 120.916 242.311C120.502 242.551 120.087 242.726 119.607 242.857C119.148 242.988 118.646 243.053 118.144 243.053C117.642 243.053 117.14 242.988 116.682 242.857C116.224 242.726 115.787 242.551 115.372 242.311C114.958 242.071 114.587 241.787 114.259 241.46C113.932 241.133 113.648 240.762 113.408 240.347C113.168 239.932 112.993 239.496 112.862 239.037C112.731 238.557 112.666 238.077 112.666 237.575ZM115.023 237.575C115.023 238.011 115.111 238.448 115.263 238.841C115.416 239.234 115.634 239.583 115.918 239.889C116.202 240.194 116.529 240.412 116.9 240.587C117.293 240.762 117.708 240.849 118.144 240.849C118.581 240.849 118.996 240.762 119.367 240.587C119.738 240.412 120.065 240.172 120.349 239.889C120.632 239.583 120.829 239.256 120.982 238.841C121.134 238.448 121.222 238.011 121.222 237.575C121.222 237.138 121.134 236.724 120.982 236.309C120.829 235.916 120.611 235.545 120.349 235.261C120.065 234.956 119.759 234.716 119.367 234.541C118.996 234.367 118.581 234.279 118.144 234.279C117.686 234.279 117.271 234.367 116.9 234.541C116.507 234.716 116.18 234.956 115.918 235.261C115.634 235.567 115.416 235.916 115.263 236.309C115.111 236.702 115.023 237.138 115.023 237.575Z" fill="#046853"/>
<path d="M126.286 232.271C126.286 231.769 126.351 231.289 126.504 230.831C126.657 230.372 126.875 229.958 127.159 229.608C127.442 229.259 127.813 228.975 128.228 228.779C128.643 228.561 129.123 228.473 129.669 228.473H129.756C129.909 228.473 130.04 228.517 130.127 228.626C130.214 228.713 130.258 228.866 130.258 229.019V230.176C130.258 230.329 130.214 230.481 130.127 230.591C130.04 230.7 129.93 230.765 129.778 230.765C129.69 230.765 129.581 230.787 129.45 230.831C129.319 230.874 129.21 230.94 129.079 231.027C128.97 231.114 128.861 231.223 128.774 231.376C128.686 231.507 128.643 231.682 128.643 231.878V233.231H129.865C130.018 233.231 130.149 233.275 130.236 233.362C130.323 233.45 130.367 233.581 130.367 233.777V234.803C130.367 234.999 130.323 235.152 130.236 235.239C130.149 235.327 130.018 235.392 129.865 235.392H128.643V242.355C128.643 242.529 128.577 242.66 128.468 242.769C128.359 242.857 128.228 242.9 128.075 242.9H126.788C126.613 242.9 126.482 242.857 126.395 242.748C126.307 242.638 126.264 242.507 126.264 242.355V235.392H125.434C125.282 235.392 125.151 235.349 125.041 235.239C124.932 235.152 124.889 234.999 124.889 234.803V233.777C124.889 233.581 124.932 233.45 125.041 233.362C125.151 233.275 125.282 233.231 125.434 233.231H126.264V232.271H126.286Z" fill="#046853"/>
<path d="M138.267 239.867C138.376 240.041 138.529 240.216 138.703 240.347C138.878 240.478 139.075 240.587 139.249 240.674C139.446 240.761 139.62 240.827 139.795 240.87C139.969 240.914 140.1 240.936 140.209 240.936C140.362 240.936 140.559 240.914 140.755 240.892C140.973 240.849 141.17 240.805 141.344 240.718C141.541 240.63 141.694 240.521 141.825 240.368C141.956 240.216 142.021 240.041 142.021 239.801C142.021 239.583 141.977 239.386 141.868 239.255C141.759 239.124 141.628 238.993 141.454 238.906C141.279 238.819 141.083 238.732 140.842 238.666C140.624 238.601 140.384 238.535 140.122 238.47C139.533 238.317 139.031 238.12 138.616 237.902C138.201 237.684 137.874 237.422 137.59 237.138C137.328 236.855 137.132 236.549 137.001 236.2C136.87 235.851 136.826 235.479 136.826 235.087C136.826 234.628 136.914 234.214 137.088 233.843C137.263 233.472 137.525 233.144 137.83 232.882C138.158 232.62 138.551 232.402 138.987 232.249C139.446 232.096 139.948 232.031 140.493 232.031C140.886 232.031 141.235 232.075 141.541 232.14C141.846 232.206 142.13 232.315 142.392 232.446C142.654 232.577 142.894 232.751 143.134 232.97C143.374 233.188 143.592 233.428 143.833 233.712C143.92 233.821 143.964 233.908 143.964 233.995C143.964 234.104 143.898 234.192 143.789 234.279C143.702 234.345 143.614 234.432 143.483 234.519C143.374 234.628 143.265 234.716 143.134 234.803C143.025 234.89 142.916 234.978 142.807 235.043C142.698 235.108 142.632 235.152 142.567 235.152C142.436 235.152 142.327 235.087 142.217 234.934C142.086 234.781 141.977 234.672 141.846 234.563C141.715 234.454 141.585 234.366 141.454 234.301C141.323 234.235 141.17 234.17 141.017 234.148C140.864 234.104 140.69 234.083 140.515 234.083C140.362 234.083 140.209 234.104 140.035 234.148C139.86 234.192 139.729 234.257 139.577 234.345C139.446 234.432 139.336 234.541 139.227 234.672C139.14 234.803 139.096 234.934 139.096 235.087C139.096 235.261 139.162 235.414 139.271 235.545C139.38 235.676 139.533 235.785 139.707 235.872C139.882 235.96 140.079 236.047 140.275 236.112C140.471 236.178 140.668 236.222 140.842 236.287C141.344 236.44 141.825 236.593 142.261 236.789C142.698 236.985 143.069 237.204 143.374 237.487C143.68 237.749 143.92 238.077 144.094 238.448C144.269 238.819 144.356 239.234 144.356 239.736C144.356 240.259 144.247 240.718 144.051 241.132C143.854 241.547 143.571 241.896 143.2 242.18C142.829 242.464 142.414 242.682 141.912 242.835C141.41 242.988 140.864 243.053 140.297 243.053C139.948 243.053 139.598 243.009 139.227 242.944C138.856 242.878 138.507 242.748 138.18 242.595C137.852 242.442 137.547 242.224 137.263 241.984C136.979 241.744 136.739 241.438 136.565 241.111C136.477 240.98 136.434 240.849 136.434 240.74C136.434 240.674 136.455 240.609 136.499 240.543C136.543 240.499 136.586 240.434 136.652 240.39L137.59 239.67C137.678 239.626 137.743 239.605 137.809 239.605C137.896 239.605 137.961 239.626 138.027 239.692C138.136 239.714 138.201 239.779 138.267 239.867Z" fill="#046853"/>
<path d="M155.554 242.529C155.554 242.595 155.532 242.638 155.489 242.682C155.445 242.726 155.401 242.747 155.336 242.747C155.271 242.769 155.205 242.769 155.14 242.769C155.074 242.769 155.009 242.769 154.943 242.769H154.092C153.939 242.769 153.808 242.726 153.743 242.616C153.655 242.507 153.612 242.398 153.59 242.267L153.503 241.503C153.372 241.678 153.219 241.874 153.044 242.027C152.87 242.202 152.651 242.355 152.39 242.486C152.128 242.616 151.844 242.726 151.516 242.791C151.189 242.878 150.818 242.9 150.403 242.9C149.749 242.9 149.159 242.791 148.657 242.551C148.155 242.311 147.719 241.984 147.391 241.591C147.042 241.176 146.78 240.696 146.606 240.15C146.431 239.583 146.344 238.993 146.344 238.36V232.773C146.344 232.577 146.387 232.424 146.497 232.315C146.584 232.206 146.737 232.162 146.911 232.162H148.177C148.395 232.162 148.548 232.206 148.614 232.293C148.679 232.38 148.723 232.533 148.723 232.729V238.317C148.723 238.622 148.766 238.906 148.854 239.19C148.941 239.474 149.094 239.714 149.268 239.954C149.443 240.172 149.683 240.347 149.967 240.499C150.251 240.63 150.556 240.696 150.927 240.696C151.189 240.696 151.451 240.652 151.735 240.565C152.018 240.478 152.259 240.347 152.499 240.15C152.717 239.976 152.913 239.735 153.066 239.452C153.219 239.168 153.284 238.862 153.284 238.491V233.057C153.284 232.948 153.284 232.86 153.306 232.751C153.328 232.642 153.35 232.555 153.372 232.467C153.415 232.38 153.459 232.315 153.524 232.249C153.59 232.206 153.677 232.162 153.786 232.162H155.161C155.336 232.162 155.489 232.206 155.576 232.293C155.663 232.38 155.707 232.511 155.707 232.664V242.289C155.685 242.398 155.642 242.486 155.554 242.529Z" fill="#046853"/>
<path d="M159.177 239.867C159.286 240.041 159.439 240.216 159.614 240.347C159.788 240.478 159.985 240.587 160.159 240.674C160.356 240.761 160.53 240.827 160.705 240.87C160.88 240.914 161.011 240.936 161.12 240.936C161.272 240.936 161.469 240.914 161.665 240.892C161.884 240.849 162.08 240.805 162.255 240.718C162.451 240.63 162.604 240.521 162.735 240.368C162.866 240.216 162.931 240.041 162.931 239.801C162.931 239.583 162.888 239.386 162.778 239.255C162.669 239.124 162.538 238.993 162.364 238.906C162.189 238.819 161.993 238.732 161.753 238.666C161.534 238.601 161.294 238.535 161.032 238.47C160.443 238.317 159.941 238.12 159.526 237.902C159.112 237.684 158.784 237.422 158.501 237.138C158.239 236.855 158.042 236.549 157.911 236.2C157.78 235.851 157.737 235.479 157.737 235.087C157.737 234.628 157.824 234.214 157.999 233.843C158.173 233.472 158.435 233.144 158.741 232.882C159.068 232.62 159.461 232.402 159.897 232.249C160.356 232.096 160.858 232.031 161.403 232.031C161.796 232.031 162.145 232.075 162.451 232.14C162.757 232.206 163.04 232.315 163.302 232.446C163.564 232.577 163.804 232.751 164.044 232.97C164.284 233.188 164.503 233.428 164.743 233.712C164.83 233.821 164.874 233.908 164.874 233.995C164.874 234.104 164.808 234.192 164.699 234.279C164.612 234.345 164.524 234.432 164.394 234.519C164.284 234.628 164.175 234.716 164.044 234.803C163.935 234.89 163.826 234.978 163.717 235.043C163.608 235.108 163.542 235.152 163.477 235.152C163.346 235.152 163.237 235.087 163.128 234.934C162.997 234.781 162.888 234.672 162.757 234.563C162.626 234.454 162.495 234.366 162.364 234.301C162.233 234.235 162.08 234.17 161.927 234.148C161.774 234.104 161.6 234.083 161.425 234.083C161.272 234.083 161.12 234.104 160.945 234.148C160.77 234.192 160.639 234.257 160.487 234.345C160.356 234.432 160.247 234.541 160.137 234.672C160.05 234.803 160.007 234.934 160.007 235.087C160.007 235.261 160.072 235.414 160.181 235.545C160.29 235.676 160.443 235.785 160.618 235.872C160.792 235.96 160.989 236.047 161.185 236.112C161.382 236.178 161.578 236.222 161.753 236.287C162.255 236.44 162.735 236.593 163.171 236.789C163.608 236.985 163.979 237.204 164.284 237.487C164.59 237.749 164.83 238.077 165.005 238.448C165.179 238.819 165.267 239.234 165.267 239.736C165.267 240.259 165.157 240.718 164.961 241.132C164.765 241.547 164.481 241.896 164.11 242.18C163.739 242.464 163.324 242.682 162.822 242.835C162.32 242.988 161.774 243.053 161.207 243.053C160.858 243.053 160.509 243.009 160.137 242.944C159.766 242.878 159.417 242.748 159.09 242.595C158.762 242.442 158.457 242.224 158.173 241.984C157.889 241.744 157.649 241.438 157.475 241.111C157.387 240.98 157.344 240.849 157.344 240.74C157.344 240.674 157.366 240.609 157.409 240.543C157.453 240.499 157.497 240.434 157.562 240.39L158.501 239.67C158.588 239.626 158.653 239.605 158.719 239.605C158.806 239.605 158.872 239.626 158.937 239.692C159.024 239.714 159.09 239.779 159.177 239.867Z" fill="#046853"/>
<path d="M171.027 242.857C170.591 242.857 170.176 242.791 169.783 242.66C169.391 242.529 169.063 242.355 168.779 242.115C168.496 241.875 168.256 241.569 168.103 241.22C167.928 240.871 167.863 240.456 167.863 240.019V238.644V234.366H166.902C166.75 234.366 166.619 234.323 166.531 234.257C166.444 234.192 166.4 234.061 166.4 233.908V232.708C166.4 232.555 166.444 232.424 166.531 232.359C166.619 232.293 166.728 232.249 166.902 232.249H167.863C167.863 231.944 167.863 231.66 167.863 231.376C167.863 231.093 167.863 230.787 167.863 230.503C167.863 230.394 167.906 230.307 167.972 230.241C168.037 230.176 168.146 230.11 168.299 230.067C168.387 230.023 168.518 230.001 168.648 229.936C168.779 229.892 168.91 229.849 169.063 229.805C169.216 229.761 169.347 229.718 169.478 229.696C169.609 229.674 169.718 229.652 169.805 229.652C169.98 229.652 170.089 229.696 170.154 229.805C170.198 229.892 170.242 230.023 170.242 230.176C170.242 230.525 170.242 230.874 170.242 231.224C170.242 231.573 170.242 231.922 170.242 232.271H171.442C171.595 232.271 171.704 232.315 171.77 232.38C171.857 232.446 171.879 232.577 171.879 232.73V233.865C171.879 234.039 171.835 234.17 171.77 234.257C171.682 234.345 171.573 234.366 171.442 234.366H170.242C170.242 234.738 170.242 235.043 170.242 235.283C170.242 235.545 170.242 235.763 170.242 235.96C170.242 236.156 170.242 236.331 170.242 236.505C170.242 236.68 170.242 236.855 170.242 237.051C170.242 237.248 170.242 237.466 170.242 237.728C170.242 237.99 170.242 238.295 170.242 238.644C170.242 238.666 170.242 238.666 170.242 238.688C170.242 238.71 170.242 238.71 170.242 238.732V239.823C170.242 240.194 170.307 240.456 170.46 240.609C170.613 240.761 170.831 240.849 171.158 240.849C171.268 240.849 171.377 240.892 171.442 240.98C171.508 241.067 171.551 241.154 171.551 241.285V242.442C171.551 242.595 171.508 242.704 171.42 242.791C171.289 242.813 171.18 242.857 171.027 242.857Z" fill="#046853"/>
<path d="M184.167 242.377C184.167 242.486 184.145 242.551 184.101 242.617C184.057 242.682 184.014 242.726 183.948 242.769C183.883 242.813 183.796 242.835 183.708 242.835C183.621 242.857 183.534 242.857 183.446 242.857H182.399C182.224 242.857 182.093 242.813 182.028 242.704C181.962 242.617 181.897 242.486 181.875 242.355L181.831 241.635C181.635 241.831 181.417 242.006 181.176 242.18C180.936 242.355 180.674 242.508 180.413 242.617C180.129 242.748 179.845 242.835 179.54 242.9C179.234 242.966 178.928 243.01 178.601 243.01C178.099 243.01 177.619 242.944 177.16 242.813C176.702 242.682 176.266 242.508 175.851 242.268C175.436 242.027 175.065 241.744 174.738 241.416C174.41 241.089 174.127 240.718 173.887 240.303C173.647 239.888 173.472 239.452 173.341 238.994C173.21 238.535 173.145 238.033 173.145 237.531C173.145 237.029 173.21 236.527 173.341 236.069C173.472 235.611 173.647 235.174 173.887 234.759C174.127 234.345 174.41 233.974 174.738 233.646C175.065 233.319 175.436 233.035 175.851 232.795C176.266 232.555 176.702 232.38 177.16 232.249C177.619 232.118 178.099 232.053 178.601 232.053C178.95 232.053 179.299 232.097 179.627 232.162C179.954 232.228 180.26 232.337 180.544 232.489C180.827 232.62 181.089 232.795 181.329 232.992C181.569 233.188 181.788 233.384 181.984 233.624L182.093 232.73C182.115 232.62 182.137 232.555 182.18 232.489C182.202 232.424 182.246 232.38 182.268 232.337C182.311 232.293 182.355 232.271 182.399 232.249C182.464 232.228 182.53 232.228 182.617 232.228H183.446C183.534 232.228 183.621 232.228 183.708 232.249C183.796 232.271 183.883 232.293 183.948 232.337C184.014 232.38 184.079 232.424 184.123 232.489C184.167 232.555 184.188 232.642 184.188 232.73V242.377H184.167ZM175.48 237.553C175.48 237.99 175.567 238.426 175.72 238.819C175.873 239.212 176.091 239.561 176.375 239.867C176.658 240.172 176.986 240.412 177.357 240.587C177.728 240.761 178.143 240.849 178.601 240.849C179.059 240.849 179.474 240.761 179.867 240.587C180.26 240.412 180.609 240.172 180.893 239.867C181.176 239.561 181.417 239.212 181.569 238.819C181.744 238.426 181.809 237.99 181.809 237.553C181.809 237.117 181.722 236.702 181.569 236.287C181.395 235.894 181.176 235.545 180.893 235.24C180.609 234.934 180.26 234.694 179.867 234.519C179.474 234.345 179.059 234.257 178.601 234.257C178.164 234.257 177.75 234.345 177.357 234.519C176.986 234.694 176.658 234.934 176.375 235.24C176.091 235.545 175.873 235.894 175.72 236.287C175.545 236.68 175.48 237.095 175.48 237.553Z" fill="#046853"/>
<path d="M186.371 229.041C186.371 228.714 186.546 228.539 186.873 228.539H188.27C188.423 228.539 188.554 228.583 188.641 228.67C188.728 228.757 188.794 228.888 188.794 229.041V230.285C188.794 230.416 188.75 230.525 188.663 230.656C188.576 230.765 188.445 230.831 188.292 230.831H186.895C186.568 230.831 186.393 230.656 186.393 230.285V229.041H186.371ZM186.371 232.751C186.371 232.599 186.415 232.49 186.502 232.38C186.589 232.293 186.698 232.228 186.873 232.228H188.27C188.335 232.228 188.401 232.249 188.466 232.271C188.532 232.293 188.597 232.337 188.641 232.38C188.685 232.424 188.728 232.49 188.772 232.533C188.816 232.599 188.816 232.664 188.816 232.73V242.333C188.816 242.66 188.641 242.835 188.292 242.835H186.895C186.568 242.835 186.393 242.66 186.393 242.333V232.751H186.371Z" fill="#046853"/>
<path d="M191.609 232.49C191.674 232.402 191.74 232.337 191.805 232.315C191.849 232.271 191.914 232.249 192.001 232.249C192.089 232.249 192.176 232.249 192.242 232.249H193.093C193.245 232.249 193.376 232.293 193.442 232.402C193.529 232.511 193.573 232.621 193.595 232.751L193.682 233.646C193.813 233.45 193.966 233.275 194.162 233.079C194.359 232.904 194.577 232.73 194.817 232.577C195.079 232.424 195.363 232.315 195.69 232.228C196.017 232.14 196.388 232.097 196.803 232.097C197.458 232.097 198.047 232.206 198.549 232.446C199.051 232.686 199.488 233.013 199.837 233.428C200.186 233.843 200.448 234.323 200.644 234.89C200.819 235.458 200.906 236.047 200.906 236.68V242.268C200.906 242.464 200.863 242.617 200.754 242.726C200.666 242.835 200.514 242.879 200.339 242.879H199.073C198.855 242.879 198.702 242.835 198.615 242.748C198.549 242.66 198.506 242.508 198.506 242.311V236.746C198.506 236.44 198.462 236.156 198.353 235.873C198.244 235.589 198.113 235.349 197.916 235.109C197.72 234.89 197.48 234.716 197.196 234.563C196.912 234.432 196.585 234.367 196.214 234.367C195.952 234.367 195.69 234.41 195.406 234.519C195.123 234.628 194.882 234.759 194.642 234.956C194.424 235.152 194.228 235.371 194.075 235.654C193.922 235.916 193.857 236.222 193.835 236.571V241.984C193.835 242.093 193.835 242.202 193.813 242.311C193.791 242.42 193.769 242.508 193.747 242.595C193.704 242.682 193.66 242.748 193.595 242.791C193.529 242.835 193.442 242.857 193.333 242.857H191.958C191.783 242.857 191.63 242.813 191.543 242.726C191.456 242.639 191.412 242.508 191.412 242.355V232.73C191.499 232.664 191.543 232.577 191.609 232.49Z" fill="#046853"/>
<path d="M213.522 242.377C213.522 242.486 213.5 242.551 213.457 242.617C213.413 242.682 213.369 242.726 213.304 242.769C213.238 242.813 213.151 242.835 213.064 242.835C212.976 242.857 212.889 242.857 212.802 242.857H211.754C211.58 242.857 211.449 242.813 211.383 242.704C211.318 242.617 211.252 242.486 211.23 242.355L211.187 241.635C210.99 241.831 210.772 242.006 210.532 242.18C210.292 242.355 210.03 242.508 209.768 242.617C209.484 242.748 209.201 242.835 208.895 242.9C208.589 242.966 208.284 243.01 207.956 243.01C207.454 243.01 206.974 242.944 206.516 242.813C206.058 242.682 205.621 242.508 205.206 242.268C204.792 242.027 204.421 241.744 204.093 241.416C203.766 241.089 203.482 240.718 203.242 240.303C203.002 239.888 202.827 239.452 202.696 238.994C202.565 238.535 202.5 238.033 202.5 237.531C202.5 237.029 202.565 236.527 202.696 236.069C202.827 235.611 203.002 235.174 203.242 234.759C203.482 234.345 203.766 233.974 204.093 233.646C204.421 233.319 204.792 233.035 205.206 232.795C205.621 232.555 206.058 232.38 206.516 232.249C206.974 232.118 207.454 232.053 207.956 232.053C208.306 232.053 208.655 232.097 208.982 232.162C209.31 232.228 209.615 232.337 209.899 232.489C210.183 232.62 210.445 232.795 210.685 232.992C210.925 233.188 211.143 233.384 211.339 233.624L211.449 232.73C211.47 232.62 211.492 232.555 211.536 232.489C211.558 232.424 211.601 232.38 211.623 232.337C211.667 232.293 211.711 232.271 211.754 232.249C211.82 232.228 211.885 232.228 211.972 232.228H212.802C212.889 232.228 212.976 232.228 213.064 232.249C213.151 232.271 213.238 232.293 213.304 232.337C213.369 232.38 213.435 232.424 213.478 232.489C213.522 232.555 213.544 232.642 213.544 232.73V242.377H213.522ZM204.814 237.553C204.814 237.99 204.901 238.426 205.054 238.819C205.206 239.212 205.425 239.561 205.708 239.867C205.992 240.172 206.32 240.412 206.691 240.587C207.062 240.761 207.476 240.849 207.935 240.849C208.393 240.849 208.808 240.761 209.201 240.587C209.593 240.412 209.943 240.172 210.226 239.867C210.51 239.561 210.75 239.212 210.903 238.819C211.078 238.426 211.143 237.99 211.143 237.553C211.143 237.117 211.056 236.702 210.903 236.287C210.728 235.894 210.51 235.545 210.226 235.24C209.943 234.934 209.593 234.694 209.201 234.519C208.808 234.345 208.393 234.257 207.935 234.257C207.498 234.257 207.083 234.345 206.691 234.519C206.32 234.694 205.992 234.934 205.708 235.24C205.425 235.545 205.206 235.894 205.054 236.287C204.901 236.68 204.814 237.095 204.814 237.553Z" fill="#046853"/>
<path d="M217.997 242.355C217.953 242.529 217.888 242.638 217.844 242.726C217.779 242.813 217.669 242.857 217.495 242.857H216.229C215.88 242.857 215.705 242.682 215.705 242.355V229.587C215.705 229.434 215.749 229.325 215.858 229.237C215.967 229.15 216.076 229.106 216.207 229.106H217.582C217.757 229.106 217.888 229.15 217.975 229.259C218.062 229.347 218.128 229.477 218.128 229.608V233.45C218.521 233.035 219.001 232.708 219.503 232.468C220.005 232.228 220.616 232.097 221.292 232.097C222.035 232.097 222.755 232.249 223.388 232.533C224.043 232.817 224.61 233.21 225.09 233.712C225.57 234.214 225.941 234.781 226.225 235.458C226.509 236.134 226.64 236.833 226.64 237.597C226.64 238.361 226.509 239.059 226.225 239.736C225.941 240.412 225.57 240.98 225.09 241.482C224.61 241.984 224.043 242.377 223.388 242.66C222.733 242.944 222.035 243.097 221.292 243.097C220.965 243.097 220.66 243.053 220.354 242.988C220.048 242.922 219.765 242.813 219.503 242.682C219.219 242.551 218.979 242.398 218.739 242.246C218.499 242.071 218.281 241.896 218.084 241.7L217.997 242.355ZM224.283 237.575C224.283 237.138 224.195 236.724 224.043 236.309C223.89 235.916 223.672 235.545 223.388 235.261C223.104 234.956 222.777 234.716 222.406 234.541C222.035 234.366 221.62 234.279 221.183 234.279C220.747 234.279 220.31 234.366 219.917 234.541C219.525 234.716 219.175 234.956 218.892 235.261C218.608 235.567 218.368 235.916 218.193 236.309C218.019 236.702 217.953 237.138 217.953 237.575V237.64C217.953 238.077 218.04 238.492 218.215 238.884C218.39 239.277 218.63 239.605 218.913 239.91C219.197 240.194 219.546 240.434 219.939 240.609C220.332 240.783 220.747 240.871 221.183 240.871C221.62 240.871 222.035 240.783 222.406 240.609C222.777 240.434 223.104 240.194 223.388 239.91C223.672 239.605 223.89 239.277 224.043 238.863C224.217 238.448 224.283 238.011 224.283 237.575Z" fill="#046853"/>
<path d="M228.539 229.587C228.539 229.434 228.583 229.325 228.648 229.237C228.735 229.15 228.845 229.106 228.997 229.106H230.46C230.569 229.106 230.678 229.15 230.765 229.237C230.853 229.325 230.918 229.456 230.918 229.587V242.355C230.918 242.529 230.874 242.638 230.787 242.726C230.7 242.813 230.569 242.857 230.416 242.857H229.019C228.845 242.857 228.714 242.813 228.648 242.726C228.583 242.638 228.539 242.508 228.539 242.355V229.587Z" fill="#046853"/>
<path d="M241.984 241.7C241.504 242.115 240.958 242.442 240.369 242.682C239.78 242.922 239.147 243.031 238.448 243.031C237.706 243.031 236.986 242.9 236.309 242.595C235.633 242.311 235.044 241.918 234.542 241.416C234.04 240.914 233.625 240.347 233.341 239.67C233.057 238.993 232.883 238.295 232.883 237.509C232.883 237.007 232.948 236.527 233.057 236.069C233.188 235.61 233.363 235.174 233.581 234.759C233.8 234.345 234.083 233.995 234.411 233.646C234.738 233.319 235.087 233.013 235.502 232.773C235.917 232.533 236.331 232.358 236.79 232.227C237.248 232.096 237.75 232.031 238.274 232.031C238.689 232.031 239.125 232.075 239.518 232.184C239.933 232.293 240.325 232.424 240.696 232.62C241.068 232.817 241.417 233.035 241.744 233.319C242.072 233.581 242.355 233.886 242.595 234.235C242.923 234.694 243.185 235.218 243.337 235.741C243.49 236.287 243.577 236.876 243.577 237.531C243.577 237.684 243.577 237.837 243.556 237.946C243.534 238.055 243.512 238.142 243.447 238.208C243.381 238.273 243.316 238.317 243.206 238.361C243.097 238.382 242.945 238.404 242.748 238.404H235.327C235.393 238.797 235.546 239.168 235.742 239.474C235.938 239.779 236.179 240.041 236.462 240.259C236.746 240.478 237.052 240.63 237.379 240.74C237.706 240.849 238.034 240.892 238.361 240.892C238.601 240.892 238.863 240.87 239.081 240.827C239.321 240.783 239.54 240.718 239.736 240.63C239.933 240.543 240.129 240.456 240.282 240.347C240.456 240.238 240.609 240.128 240.74 239.997C240.806 239.932 240.871 239.888 240.937 239.845C241.002 239.801 241.068 239.779 241.133 239.779C241.177 239.779 241.242 239.801 241.308 239.823C241.373 239.866 241.439 239.91 241.504 239.997C241.657 240.172 241.788 240.325 241.897 240.456C242.006 240.587 242.093 240.674 242.159 240.761C242.224 240.849 242.268 240.914 242.312 240.98C242.333 241.045 242.355 241.111 242.355 241.154C242.29 241.372 242.181 241.547 241.984 241.7ZM238.274 234.148C237.946 234.148 237.619 234.214 237.313 234.323C237.008 234.454 236.724 234.606 236.462 234.803C236.2 234.999 235.982 235.261 235.786 235.523C235.589 235.807 235.458 236.112 235.371 236.418H241.286C241.198 236.069 241.068 235.763 240.871 235.48C240.696 235.196 240.478 234.956 240.216 234.759C239.954 234.563 239.671 234.388 239.343 234.279C238.994 234.214 238.645 234.148 238.274 234.148Z" fill="#046853"/>
<path d="M7.24623 262.937C6.80971 262.937 6.39502 262.871 6.00215 262.74C5.60929 262.609 5.2819 262.435 4.99816 262.195C4.71443 261.954 4.47434 261.649 4.32156 261.3C4.14695 260.95 4.08147 260.536 4.08147 260.099V258.724V254.446H3.12114C2.96836 254.446 2.8374 254.403 2.7501 254.337C2.66279 254.272 2.61914 254.141 2.61914 253.988V252.788C2.61914 252.635 2.66279 252.504 2.7501 252.438C2.8374 252.373 2.94653 252.329 3.12114 252.329H4.08147C4.08147 252.024 4.08147 251.74 4.08147 251.456C4.08147 251.172 4.08147 250.867 4.08147 250.583C4.08147 250.474 4.12513 250.387 4.1906 250.321C4.25608 250.256 4.36521 250.19 4.51799 250.147C4.6053 250.103 4.73625 250.081 4.86721 250.016C4.99816 249.972 5.12912 249.928 5.2819 249.885C5.43468 249.841 5.56564 249.797 5.69659 249.776C5.82755 249.754 5.93668 249.732 6.02398 249.732C6.19859 249.732 6.30771 249.776 6.37319 249.885C6.41684 249.972 6.4605 250.103 6.4605 250.256C6.4605 250.605 6.4605 250.954 6.4605 251.303C6.4605 251.653 6.4605 252.002 6.4605 252.351H7.66092C7.8137 252.351 7.92283 252.395 7.98831 252.46C8.07561 252.526 8.09744 252.657 8.09744 252.809V253.944C8.09744 254.119 8.05379 254.25 7.98831 254.337C7.901 254.424 7.79188 254.446 7.66092 254.446H6.4605C6.4605 254.817 6.4605 255.123 6.4605 255.363C6.4605 255.625 6.4605 255.843 6.4605 256.04C6.4605 256.236 6.4605 256.411 6.4605 256.585C6.4605 256.76 6.4605 256.934 6.4605 257.131C6.4605 257.327 6.4605 257.546 6.4605 257.808C6.4605 258.069 6.4605 258.375 6.4605 258.724C6.4605 258.746 6.4605 258.746 6.4605 258.768C6.4605 258.79 6.4605 258.79 6.4605 258.811V259.903C6.4605 260.274 6.52597 260.536 6.67876 260.689C6.83154 260.841 7.04979 260.929 7.37718 260.929C7.48631 260.929 7.59544 260.972 7.66092 261.06C7.7264 261.147 7.77005 261.234 7.77005 261.365V262.522C7.77005 262.675 7.7264 262.784 7.63909 262.871C7.50814 262.893 7.39901 262.937 7.24623 262.937Z" fill="#046853"/>
<path d="M9.33984 257.633C9.33984 257.131 9.40532 256.629 9.53628 256.171C9.66723 255.69 9.84184 255.254 10.0819 254.861C10.322 254.446 10.6057 254.075 10.9331 253.748C11.2605 253.42 11.6316 253.137 12.0463 252.897C12.4609 252.657 12.8975 252.482 13.3558 252.351C13.8141 252.22 14.3161 252.155 14.8181 252.155C15.3201 252.155 15.8003 252.22 16.2805 252.351C16.7388 252.482 17.1753 252.657 17.59 252.897C17.9829 253.137 18.3539 253.42 18.7031 253.748C19.0305 254.075 19.3143 254.446 19.5544 254.861C19.7944 255.276 19.969 255.712 20.1 256.171C20.231 256.651 20.2964 257.131 20.2964 257.633C20.2964 258.135 20.231 258.637 20.1 259.095C19.969 259.554 19.7944 259.99 19.5544 260.405C19.3143 260.819 19.0305 261.169 18.7031 261.518C18.3758 261.845 18.0047 262.129 17.59 262.369C17.1753 262.609 16.7606 262.784 16.2805 262.915C15.8221 263.046 15.3201 263.111 14.8181 263.111C14.3161 263.111 13.8141 263.046 13.3558 262.915C12.8975 262.784 12.4609 262.609 12.0463 262.369C11.6316 262.129 11.2605 261.845 10.9331 261.518C10.6057 261.19 10.322 260.819 10.0819 260.405C9.84184 259.99 9.66723 259.554 9.53628 259.095C9.40532 258.637 9.33984 258.157 9.33984 257.633ZM11.697 257.633C11.697 258.069 11.7843 258.506 11.9371 258.899C12.0899 259.292 12.3082 259.641 12.5919 259.946C12.8756 260.252 13.203 260.47 13.5741 260.645C13.9669 260.819 14.3816 260.907 14.8181 260.907C15.2547 260.907 15.6693 260.819 16.0404 260.645C16.4114 260.47 16.7388 260.23 17.0226 259.946C17.3063 259.641 17.5027 259.313 17.6555 258.899C17.8083 258.506 17.8956 258.069 17.8956 257.633C17.8956 257.196 17.8083 256.782 17.6555 256.367C17.5027 255.974 17.2845 255.603 17.0226 255.319C16.7388 255.014 16.4333 254.774 16.0404 254.599C15.6693 254.424 15.2547 254.337 14.8181 254.337C14.3598 254.337 13.9451 254.424 13.5741 254.599C13.1812 254.774 12.8538 255.014 12.5919 255.319C12.3082 255.625 12.0899 255.974 11.9371 256.367C11.7843 256.782 11.697 257.196 11.697 257.633Z" fill="#046853"/>
<path d="M31.4742 262.609C31.4742 262.674 31.4524 262.718 31.4087 262.762C31.3651 262.805 31.3214 262.827 31.2559 262.827C31.1905 262.849 31.125 262.849 31.0595 262.849C30.994 262.849 30.9285 262.849 30.8631 262.849H30.0119C29.8591 262.849 29.7281 262.805 29.6626 262.696C29.5753 262.587 29.5317 262.478 29.5099 262.347L29.4226 261.583C29.2916 261.758 29.1388 261.954 28.9642 262.107C28.7896 262.282 28.5714 262.434 28.3094 262.565C28.0475 262.696 27.7638 262.805 27.4364 262.871C27.109 262.958 26.738 262.98 26.3233 262.98C25.6685 262.98 25.0792 262.871 24.5772 262.631C24.0752 262.391 23.6387 262.063 23.3113 261.67C22.9839 261.278 22.7002 260.776 22.5256 260.23C22.351 259.662 22.2637 259.073 22.2637 258.44V252.853C22.2637 252.656 22.3073 252.504 22.4165 252.394C22.5038 252.285 22.6565 252.242 22.8311 252.242H24.097C24.3153 252.242 24.4681 252.285 24.5336 252.373C24.599 252.46 24.6427 252.613 24.6427 252.809V258.397C24.6427 258.702 24.6863 258.986 24.7737 259.27C24.861 259.553 25.0137 259.793 25.1883 260.034C25.3629 260.252 25.603 260.426 25.8868 260.579C26.1705 260.71 26.4761 260.776 26.8471 260.776C27.109 260.776 27.3709 260.732 27.6547 260.645C27.9384 260.557 28.1785 260.426 28.4186 260.23C28.6368 260.055 28.8333 259.815 28.986 259.532C29.1388 259.248 29.2043 258.942 29.2043 258.571V253.137C29.2043 253.027 29.2043 252.94 29.2261 252.831C29.248 252.722 29.2698 252.635 29.2916 252.547C29.3353 252.46 29.3789 252.394 29.4444 252.329C29.5099 252.285 29.5972 252.242 29.7063 252.242H31.0813C31.2559 252.242 31.4087 252.285 31.496 252.373C31.5833 252.46 31.627 252.591 31.627 252.744V262.369C31.6052 262.456 31.5615 262.544 31.4742 262.609Z" fill="#046853"/>
<path d="M33.9378 252.809C33.9378 252.657 34.0033 252.526 34.1124 252.438C34.2216 252.351 34.3307 252.307 34.4617 252.307H35.5311C35.6621 252.307 35.7712 252.351 35.8585 252.438C35.924 252.526 35.9895 252.635 36.0331 252.744C36.0768 252.875 36.0986 253.006 36.1204 253.137C36.1423 253.29 36.1641 253.399 36.1859 253.53C36.3169 253.355 36.4478 253.18 36.6006 253.028C36.7534 252.853 36.928 252.722 37.1244 252.591C37.3208 252.46 37.5391 252.351 37.7792 252.286C38.0193 252.198 38.303 252.177 38.6086 252.177C38.8923 252.177 39.1324 252.198 39.3507 252.22C39.5689 252.264 39.7872 252.307 39.9836 252.395C40.18 252.46 40.3765 252.569 40.5729 252.678C40.7693 252.788 40.9876 252.94 41.2059 253.093C41.2932 253.159 41.3805 253.224 41.4459 253.311C41.5114 253.399 41.5551 253.486 41.5551 253.595C41.5551 253.639 41.5332 253.682 41.5332 253.748C41.5114 253.792 41.4896 253.857 41.4678 253.901L40.7912 254.992C40.7475 255.058 40.7039 255.079 40.6384 255.123C40.5729 255.145 40.5293 255.167 40.4856 255.167C40.3983 255.167 40.311 255.145 40.2237 255.101C40.0491 254.992 39.8745 254.905 39.7217 254.817C39.5689 254.73 39.4161 254.643 39.2852 254.577C39.1324 254.512 39.0014 254.468 38.8268 254.425C38.6741 254.381 38.4995 254.381 38.303 254.381C37.801 254.381 37.3863 254.534 37.0371 254.861C36.6879 255.188 36.4696 255.625 36.3387 256.171V262.478C36.3387 262.806 36.1641 262.98 35.8149 262.98H34.4398C34.0906 262.98 33.916 262.806 33.916 262.478V252.809H33.9378Z" fill="#046853"/>
<path d="M43.084 249.121C43.084 248.794 43.2586 248.619 43.586 248.619H44.9828C45.1356 248.619 45.2666 248.663 45.3539 248.75C45.4412 248.837 45.5067 248.968 45.5067 249.121V250.365C45.5067 250.496 45.463 250.605 45.3757 250.736C45.2884 250.845 45.1574 250.911 45.0047 250.911H43.6078C43.2804 250.911 43.1058 250.736 43.1058 250.365V249.121H43.084ZM43.084 252.831C43.084 252.679 43.1276 252.569 43.2149 252.46C43.3022 252.373 43.4114 252.307 43.586 252.307H44.9828C45.0483 252.307 45.1138 252.329 45.1793 252.351C45.2447 252.373 45.3102 252.417 45.3539 252.46C45.3975 252.504 45.4412 252.569 45.4848 252.613C45.5285 252.657 45.5285 252.744 45.5285 252.809V262.413C45.5285 262.74 45.3539 262.915 45.0047 262.915H43.6078C43.2804 262.915 43.1058 262.74 43.1058 262.413V252.831H43.084Z" fill="#046853"/>
<path d="M49.347 259.946C49.4562 260.121 49.609 260.296 49.7836 260.426C49.9582 260.557 50.1546 260.667 50.3292 260.754C50.5256 260.841 50.7002 260.907 50.8749 260.95C51.0495 260.994 51.1804 261.016 51.2896 261.016C51.4423 261.016 51.6388 260.994 51.8352 260.972C52.0535 260.928 52.2499 260.885 52.4245 260.798C52.6209 260.71 52.7737 260.601 52.9047 260.448C53.0356 260.296 53.1011 260.121 53.1011 259.881C53.1011 259.663 53.0574 259.466 52.9483 259.335C52.8392 259.204 52.7082 259.073 52.5336 258.986C52.359 258.899 52.1626 258.811 51.9225 258.746C51.6824 258.68 51.4642 258.615 51.2022 258.549C50.6129 258.397 50.111 258.2 49.6963 257.982C49.2816 257.764 48.9542 257.502 48.6704 257.218C48.4085 256.934 48.2121 256.629 48.0811 256.28C47.9502 255.93 47.9065 255.559 47.9065 255.166C47.9065 254.708 47.9938 254.293 48.1684 253.922C48.3431 253.551 48.605 253.224 48.9105 252.962C49.2379 252.7 49.6308 252.482 50.0673 252.329C50.5256 252.176 51.0276 252.111 51.5733 252.111C51.9662 252.111 52.3154 252.154 52.6209 252.22C52.9265 252.285 53.2102 252.395 53.4721 252.526C53.7341 252.656 53.9741 252.831 54.2142 253.049C54.4543 253.268 54.6726 253.508 54.9126 253.791C54.9999 253.901 55.0436 253.988 55.0436 254.075C55.0436 254.184 54.9781 254.272 54.869 254.359C54.7817 254.424 54.6944 254.512 54.5634 254.599C54.4543 254.708 54.3452 254.795 54.2142 254.883C54.1051 254.97 53.996 255.057 53.8868 255.123C53.7777 255.188 53.7122 255.232 53.6467 255.232C53.5158 255.232 53.4067 255.166 53.2975 255.014C53.1666 254.861 53.0574 254.752 52.9265 254.643C52.7955 254.534 52.6646 254.446 52.5336 254.381C52.4027 254.315 52.2499 254.25 52.0971 254.228C51.9443 254.184 51.7697 254.162 51.5951 254.162C51.4423 254.162 51.2895 254.184 51.1149 254.228C50.9403 254.272 50.8094 254.337 50.6566 254.424C50.5256 254.512 50.4165 254.621 50.3074 254.752C50.2201 254.883 50.1764 255.014 50.1764 255.166C50.1764 255.341 50.2419 255.494 50.351 255.625C50.4602 255.756 50.6129 255.865 50.7876 255.952C50.9622 256.039 51.1586 256.127 51.355 256.192C51.5515 256.258 51.7479 256.301 51.9225 256.367C52.4245 256.52 52.9047 256.672 53.3412 256.869C53.7777 257.065 54.1487 257.284 54.4543 257.567C54.7599 257.829 55 258.157 55.1746 258.528C55.3492 258.899 55.4365 259.313 55.4365 259.815C55.4365 260.339 55.3273 260.798 55.1309 261.212C54.9345 261.627 54.6507 261.976 54.2797 262.26C53.9087 262.544 53.494 262.762 52.992 262.915C52.49 263.067 51.9443 263.133 51.3769 263.133C51.0276 263.133 50.6784 263.089 50.3074 263.024C49.9363 262.958 49.5871 262.827 49.2597 262.675C48.9324 262.522 48.6268 262.304 48.3431 262.063C48.0593 261.823 47.8192 261.518 47.6446 261.19C47.5573 261.059 47.5137 260.929 47.5137 260.819C47.5137 260.754 47.5355 260.688 47.5792 260.623C47.6228 260.579 47.6665 260.514 47.7319 260.47L48.6704 259.75C48.7578 259.706 48.8232 259.684 48.8887 259.684C48.976 259.684 49.0415 259.706 49.107 259.772C49.2161 259.772 49.2816 259.859 49.347 259.946Z" fill="#046853"/>
<path d="M57.6206 252.416C57.7734 252.351 57.948 252.307 58.1444 252.307H58.9956C59.1484 252.307 59.2794 252.351 59.3448 252.46C59.4321 252.569 59.4758 252.678 59.4976 252.809L59.5849 253.617C59.7159 253.42 59.8687 253.246 60.0214 253.071C60.1961 252.897 60.3925 252.744 60.6107 252.613C60.8508 252.482 61.1127 252.373 61.4183 252.285C61.7239 252.198 62.0949 252.154 62.5096 252.154C62.9025 252.154 63.2517 252.198 63.5791 252.264C63.9065 252.329 64.1902 252.46 64.4303 252.591C64.6922 252.744 64.9104 252.918 65.1287 253.137C65.3251 253.355 65.5216 253.595 65.6962 253.879C65.8271 253.617 66.0017 253.377 66.2418 253.158C66.4601 252.94 66.7438 252.744 67.0276 252.591C67.3331 252.438 67.6605 252.307 68.0097 252.242C68.3589 252.154 68.73 252.111 69.1228 252.111C69.7776 252.111 70.3669 252.22 70.8471 252.46C71.3491 252.7 71.7638 253.028 72.0912 253.442C72.4185 253.857 72.6805 254.359 72.8551 254.905C73.0297 255.472 73.117 256.061 73.117 256.694V262.282C73.117 262.478 73.0733 262.631 72.986 262.74C72.8987 262.849 72.7459 262.893 72.5713 262.893H71.3054C71.0872 262.893 70.9344 262.849 70.8689 262.762C70.8034 262.675 70.7598 262.522 70.7598 262.325V256.716C70.7598 256.411 70.7161 256.127 70.6288 255.865C70.5415 255.581 70.4106 255.341 70.236 255.123C70.0614 254.905 69.8431 254.73 69.5812 254.599C69.3193 254.468 68.9919 254.403 68.6427 254.403C68.3371 254.403 68.0534 254.468 67.7915 254.555C67.5295 254.664 67.3113 254.817 67.1149 255.014C66.9184 255.21 66.7656 255.472 66.6565 255.756C66.5474 256.039 66.5037 256.367 66.5037 256.716V262.282C66.5037 262.675 66.3291 262.893 65.9581 262.893H64.6704C64.4521 262.893 64.2993 262.849 64.2338 262.762C64.1684 262.675 64.1247 262.522 64.1247 262.325V256.716C64.1247 256.432 64.0811 256.149 63.9938 255.865C63.9065 255.581 63.7973 255.341 63.6227 255.123C63.4481 254.905 63.2299 254.73 62.9679 254.599C62.706 254.468 62.3786 254.403 62.0076 254.403C61.7457 254.403 61.4838 254.446 61.2437 254.555C60.9818 254.643 60.7635 254.795 60.5453 254.97C60.327 255.145 60.1742 255.385 60.0214 255.647C59.8905 255.909 59.825 256.214 59.8032 256.563V262.413C59.8032 262.565 59.7595 262.675 59.6722 262.762C59.5849 262.849 59.454 262.893 59.323 262.893H57.948C57.7734 262.893 57.6206 262.849 57.5333 262.762C57.446 262.675 57.4023 262.544 57.4023 262.391V252.766C57.4242 252.613 57.4896 252.482 57.6206 252.416Z" fill="#046853"/>
<path d="M91.233 262.434C91.233 262.544 91.2112 262.609 91.1675 262.675C91.1239 262.74 91.0802 262.784 91.0147 262.827C90.9493 262.871 90.862 262.893 90.7747 262.893C90.6874 262.893 90.6001 262.915 90.5128 262.915H89.4651C89.2905 262.915 89.1596 262.871 89.0941 262.762C89.0286 262.675 88.9631 262.544 88.9413 262.413L88.8976 261.692C88.7012 261.889 88.4829 262.063 88.2429 262.238C88.0028 262.413 87.7409 262.565 87.479 262.675C87.1952 262.806 86.9115 262.893 86.6059 262.958C86.3004 263.024 85.9948 263.067 85.6674 263.067C85.1654 263.067 84.6852 263.002 84.2269 262.871C83.7685 262.74 83.332 262.565 82.9173 262.325C82.5026 262.085 82.1316 261.802 81.8042 261.474C81.4768 261.147 81.1931 260.776 80.953 260.361C80.7129 259.946 80.5383 259.51 80.4074 259.051C80.2764 258.593 80.2109 258.091 80.2109 257.589C80.2109 257.087 80.2764 256.585 80.4074 256.127C80.5383 255.668 80.7129 255.232 80.953 254.817C81.1931 254.403 81.4768 254.032 81.8042 253.704C82.1316 253.377 82.5026 253.093 82.9173 252.853C83.332 252.613 83.7685 252.438 84.2269 252.307C84.6852 252.176 85.1654 252.111 85.6674 252.111C86.0166 252.111 86.3658 252.154 86.6932 252.22C87.0206 252.285 87.3262 252.395 87.6099 252.547C87.8936 252.678 88.1556 252.853 88.3956 253.049C88.6357 253.246 88.854 253.442 89.0504 253.682L89.1595 252.787C89.1814 252.678 89.2032 252.613 89.2468 252.547C89.2687 252.482 89.3123 252.438 89.3342 252.395C89.3778 252.351 89.4215 252.329 89.4651 252.307C89.5306 252.285 89.5961 252.285 89.6834 252.285H90.5128C90.6001 252.285 90.6874 252.285 90.7747 252.307C90.862 252.329 90.9493 252.351 91.0147 252.395C91.0802 252.438 91.1457 252.482 91.1894 252.547C91.233 252.613 91.2548 252.7 91.2548 252.787V262.434H91.233ZM82.5245 257.611C82.5245 258.047 82.6118 258.484 82.7646 258.877C82.9173 259.27 83.1356 259.619 83.4193 259.925C83.7031 260.23 84.0305 260.47 84.4015 260.645C84.7725 260.819 85.1872 260.907 85.6456 260.907C86.1039 260.907 86.5186 260.819 86.9115 260.645C87.3044 260.47 87.6536 260.23 87.9373 259.925C88.221 259.619 88.4611 259.27 88.6139 258.877C88.7885 258.484 88.854 258.047 88.854 257.611C88.854 257.174 88.7667 256.76 88.6139 256.345C88.4393 255.952 88.221 255.603 87.9373 255.297C87.6536 254.992 87.3044 254.752 86.9115 254.577C86.5186 254.403 86.1039 254.315 85.6456 254.315C85.2091 254.315 84.7944 254.403 84.4015 254.577C84.0305 254.752 83.7031 254.992 83.4193 255.297C83.1356 255.603 82.9173 255.952 82.7646 256.345C82.6118 256.76 82.5245 257.174 82.5245 257.611Z" fill="#046853"/>
<path d="M93.5031 252.547C93.5685 252.46 93.634 252.395 93.6995 252.373C93.7432 252.329 93.8086 252.307 93.8959 252.307C93.9832 252.307 94.0705 252.307 94.136 252.307H94.9872C95.14 252.307 95.271 252.351 95.3364 252.46C95.4237 252.569 95.4674 252.678 95.4892 252.809L95.5765 253.704C95.7075 253.508 95.8603 253.333 96.0567 253.137C96.2531 252.962 96.4714 252.788 96.7115 252.635C96.9734 252.482 97.2571 252.373 97.5845 252.286C97.9119 252.198 98.2829 252.155 98.6976 252.155C99.3524 252.155 99.9417 252.264 100.444 252.504C100.946 252.744 101.382 253.071 101.731 253.486C102.081 253.901 102.343 254.381 102.539 254.948C102.714 255.516 102.801 256.105 102.801 256.738V262.325C102.801 262.522 102.757 262.675 102.648 262.784C102.561 262.893 102.408 262.937 102.233 262.937H100.968C100.749 262.937 100.596 262.893 100.509 262.806C100.444 262.718 100.4 262.565 100.4 262.369V256.803C100.4 256.498 100.356 256.214 100.247 255.93C100.138 255.647 100.007 255.407 99.8108 255.167C99.6143 254.948 99.3742 254.774 99.0905 254.621C98.8068 254.468 98.4794 254.424 98.1083 254.424C97.8464 254.424 97.5845 254.468 97.3008 254.577C97.017 254.686 96.777 254.817 96.5369 255.014C96.3186 255.21 96.1222 255.428 95.9694 255.712C95.8166 255.974 95.7511 256.28 95.7293 256.629V262.042C95.7293 262.151 95.7293 262.26 95.7075 262.369C95.6857 262.478 95.6638 262.566 95.642 262.653C95.5984 262.74 95.5547 262.806 95.4892 262.849C95.4238 262.893 95.3364 262.915 95.2273 262.915H93.8523C93.6777 262.915 93.5249 262.871 93.4376 262.784C93.3503 262.696 93.3066 262.565 93.3066 262.413V252.787C93.4158 252.722 93.4376 252.635 93.5031 252.547Z" fill="#046853"/>
<path d="M112.993 261.714C112.797 261.911 112.579 262.085 112.338 262.26C112.098 262.435 111.836 262.587 111.575 262.696C111.313 262.827 111.007 262.915 110.723 263.002C110.418 263.067 110.112 263.111 109.785 263.111C109.043 263.111 108.322 262.958 107.69 262.675C107.035 262.391 106.467 261.998 105.987 261.496C105.507 260.994 105.136 260.427 104.852 259.75C104.568 259.073 104.438 258.375 104.438 257.611C104.438 256.847 104.568 256.127 104.852 255.472C105.136 254.795 105.507 254.228 105.987 253.726C106.467 253.224 107.035 252.831 107.69 252.547C108.344 252.264 109.043 252.111 109.785 252.111C110.461 252.111 111.073 252.242 111.575 252.482C112.098 252.722 112.557 253.049 112.95 253.464V249.623C112.95 249.47 112.993 249.361 113.081 249.274C113.168 249.186 113.299 249.143 113.473 249.143H114.848C114.979 249.143 115.089 249.186 115.198 249.274C115.307 249.361 115.372 249.492 115.372 249.645V262.413C115.372 262.74 115.198 262.915 114.827 262.915H113.583C113.408 262.915 113.299 262.871 113.233 262.784C113.168 262.696 113.124 262.565 113.059 262.413L112.993 261.714ZM106.773 257.633C106.773 258.069 106.86 258.506 107.013 258.899C107.166 259.292 107.384 259.641 107.668 259.946C107.951 260.252 108.279 260.47 108.65 260.645C109.021 260.819 109.436 260.907 109.894 260.907C110.33 260.907 110.745 260.819 111.138 260.645C111.531 260.47 111.858 260.252 112.164 259.946C112.448 259.663 112.688 259.313 112.862 258.921C113.037 258.528 113.124 258.113 113.124 257.676V257.611C113.124 257.174 113.037 256.76 112.862 256.345C112.688 255.952 112.469 255.581 112.186 255.297C111.902 254.992 111.553 254.752 111.16 254.577C110.767 254.403 110.352 254.315 109.894 254.315C109.457 254.315 109.043 254.403 108.65 254.577C108.279 254.752 107.951 254.992 107.668 255.297C107.384 255.603 107.166 255.952 107.013 256.345C106.86 256.782 106.773 257.196 106.773 257.633Z" fill="#046853"/>
<path d="M131.543 261.758C131.063 262.172 130.517 262.5 129.928 262.74C129.338 262.98 128.705 263.089 128.007 263.089C127.265 263.089 126.545 262.958 125.868 262.653C125.191 262.369 124.602 261.976 124.1 261.474C123.598 260.972 123.183 260.405 122.9 259.728C122.594 259.051 122.441 258.353 122.441 257.567C122.441 257.065 122.507 256.585 122.616 256.127C122.747 255.668 122.922 255.232 123.14 254.817C123.358 254.402 123.642 254.053 123.969 253.704C124.297 253.377 124.646 253.071 125.061 252.831C125.453 252.591 125.89 252.416 126.348 252.285C126.807 252.154 127.309 252.089 127.832 252.089C128.247 252.089 128.684 252.133 129.076 252.242C129.469 252.351 129.884 252.482 130.255 252.678C130.626 252.875 130.975 253.093 131.303 253.377C131.63 253.639 131.914 253.944 132.154 254.293C132.481 254.752 132.743 255.275 132.896 255.799C133.049 256.345 133.136 256.934 133.136 257.589C133.136 257.742 133.136 257.895 133.114 258.004C133.092 258.113 133.071 258.2 133.005 258.266C132.94 258.331 132.874 258.375 132.765 258.418C132.656 258.44 132.503 258.462 132.307 258.462H124.886C124.951 258.855 125.104 259.226 125.301 259.531C125.497 259.837 125.737 260.099 126.021 260.317C126.305 260.535 126.61 260.688 126.938 260.797C127.265 260.907 127.592 260.95 127.92 260.95C128.16 260.95 128.422 260.928 128.64 260.885C128.88 260.841 129.098 260.776 129.295 260.688C129.491 260.601 129.688 260.514 129.84 260.405C130.015 260.295 130.168 260.186 130.299 260.055C130.364 259.99 130.43 259.946 130.495 259.903C130.561 259.859 130.626 259.837 130.692 259.837C130.735 259.837 130.801 259.859 130.866 259.881C130.932 259.924 130.997 259.968 131.063 260.055C131.215 260.23 131.346 260.383 131.455 260.514C131.565 260.645 131.652 260.732 131.717 260.819C131.783 260.907 131.827 260.972 131.87 261.037C131.914 261.103 131.914 261.168 131.914 261.212C131.848 261.452 131.761 261.605 131.543 261.758ZM127.832 254.228C127.505 254.228 127.178 254.293 126.872 254.402C126.566 254.533 126.283 254.686 126.021 254.883C125.759 255.079 125.541 255.341 125.344 255.603C125.148 255.887 125.017 256.192 124.93 256.498H130.844C130.757 256.148 130.626 255.843 130.43 255.559C130.255 255.275 130.037 255.035 129.775 254.839C129.513 254.642 129.229 254.468 128.902 254.359C128.553 254.271 128.203 254.228 127.832 254.228Z" fill="#046853"/>
<path d="M135.212 252.547C135.278 252.46 135.343 252.395 135.408 252.373C135.452 252.329 135.518 252.307 135.605 252.307C135.692 252.307 135.78 252.307 135.845 252.307H136.696C136.849 252.307 136.98 252.351 137.045 252.46C137.133 252.569 137.176 252.678 137.198 252.809L137.286 253.704C137.416 253.508 137.569 253.333 137.766 253.137C137.962 252.962 138.18 252.788 138.42 252.635C138.682 252.482 138.966 252.373 139.294 252.286C139.621 252.198 139.992 252.155 140.407 252.155C141.061 252.155 141.651 252.264 142.153 252.504C142.655 252.744 143.091 253.071 143.44 253.486C143.79 253.901 144.052 254.381 144.248 254.948C144.423 255.516 144.51 256.105 144.51 256.738V262.325C144.51 262.522 144.466 262.675 144.357 262.784C144.27 262.893 144.117 262.937 143.942 262.937H142.677C142.458 262.937 142.305 262.893 142.218 262.806C142.153 262.718 142.109 262.565 142.109 262.369V256.803C142.109 256.498 142.065 256.214 141.956 255.93C141.847 255.647 141.716 255.407 141.52 255.167C141.323 254.948 141.083 254.774 140.799 254.621C140.516 254.468 140.188 254.424 139.817 254.424C139.555 254.424 139.293 254.468 139.01 254.577C138.726 254.686 138.486 254.817 138.246 255.014C138.028 255.21 137.831 255.428 137.678 255.712C137.526 255.974 137.46 256.28 137.438 256.629V262.042C137.438 262.151 137.438 262.26 137.416 262.369C137.395 262.478 137.373 262.566 137.351 262.653C137.307 262.74 137.264 262.806 137.198 262.849C137.133 262.893 137.045 262.915 136.936 262.915H135.561C135.387 262.915 135.234 262.871 135.147 262.784C135.059 262.696 135.016 262.565 135.016 262.413V252.787C135.103 252.722 135.147 252.635 135.212 252.547Z" fill="#046853"/>
<path d="M145.555 252.984C145.534 252.94 145.534 252.897 145.534 252.875C145.534 252.831 145.512 252.809 145.512 252.766C145.512 252.722 145.512 252.7 145.512 252.657C145.512 252.547 145.555 252.46 145.621 252.395C145.686 252.329 145.817 252.307 145.97 252.307H147.476C147.607 252.307 147.716 252.351 147.803 252.417C147.891 252.482 147.956 252.569 148 252.7L148.153 253.071C148.262 253.399 148.393 253.748 148.524 254.141C148.676 254.534 148.807 254.948 148.96 255.363C149.113 255.778 149.266 256.192 149.419 256.607C149.571 257.022 149.702 257.415 149.855 257.786C149.986 258.157 150.117 258.484 150.204 258.746C150.313 259.03 150.401 259.248 150.444 259.401C150.532 259.117 150.641 258.811 150.772 258.462C150.903 258.113 151.034 257.742 151.186 257.327C151.339 256.934 151.47 256.52 151.623 256.083C151.776 255.669 151.929 255.254 152.059 254.839C152.212 254.424 152.343 254.053 152.474 253.682C152.605 253.311 152.714 252.984 152.823 252.678C152.889 252.547 152.954 252.438 153.02 252.395C153.107 252.329 153.216 252.307 153.347 252.307H154.919C155.093 252.307 155.202 252.329 155.268 252.395C155.333 252.46 155.355 252.526 155.355 252.613C155.355 252.657 155.355 252.722 155.333 252.788C155.312 252.853 155.312 252.897 155.29 252.94L151.317 262.609C151.274 262.696 151.208 262.762 151.165 262.827C151.099 262.893 150.99 262.937 150.815 262.937H150.051C149.855 262.937 149.724 262.893 149.637 262.827C149.571 262.762 149.506 262.675 149.484 262.587L145.555 252.984Z" fill="#046853"/>
<path d="M156.799 249.121C156.799 248.794 156.973 248.619 157.301 248.619H158.698C158.85 248.619 158.981 248.663 159.069 248.75C159.156 248.837 159.222 248.968 159.222 249.121V250.365C159.222 250.496 159.178 250.605 159.091 250.736C159.003 250.845 158.872 250.911 158.72 250.911H157.323C156.995 250.911 156.821 250.736 156.821 250.365V249.121H156.799ZM156.799 252.831C156.799 252.679 156.842 252.569 156.93 252.46C157.017 252.351 157.126 252.307 157.301 252.307H158.698C158.763 252.307 158.829 252.329 158.894 252.351C158.96 252.373 159.025 252.417 159.069 252.46C159.112 252.504 159.156 252.569 159.2 252.613C159.243 252.679 159.243 252.744 159.243 252.809V262.413C159.243 262.74 159.069 262.915 158.72 262.915H157.323C156.995 262.915 156.821 262.74 156.821 262.413V252.831H156.799Z" fill="#046853"/>
<path d="M161.926 252.809C161.926 252.657 161.991 252.526 162.1 252.438C162.21 252.351 162.319 252.307 162.45 252.307H163.519C163.65 252.307 163.759 252.351 163.846 252.438C163.912 252.526 163.977 252.635 164.021 252.744C164.065 252.875 164.087 253.006 164.108 253.137C164.13 253.29 164.152 253.399 164.174 253.53C164.305 253.355 164.436 253.18 164.589 253.028C164.741 252.853 164.916 252.722 165.112 252.591C165.309 252.46 165.527 252.351 165.767 252.286C166.007 252.198 166.291 252.177 166.597 252.177C166.88 252.177 167.12 252.198 167.339 252.22C167.557 252.264 167.775 252.307 167.972 252.395C168.168 252.46 168.364 252.569 168.561 252.678C168.757 252.788 168.976 252.94 169.194 253.093C169.281 253.159 169.368 253.224 169.434 253.311C169.499 253.399 169.543 253.486 169.543 253.595C169.543 253.639 169.521 253.682 169.521 253.748C169.499 253.792 169.478 253.857 169.456 253.901L168.779 254.992C168.735 255.058 168.692 255.079 168.626 255.123C168.561 255.145 168.517 255.167 168.474 255.167C168.386 255.167 168.299 255.145 168.212 255.101C168.037 254.992 167.862 254.905 167.71 254.817C167.557 254.73 167.404 254.643 167.273 254.577C167.12 254.512 166.989 254.468 166.815 254.425C166.662 254.381 166.487 254.381 166.291 254.381C165.789 254.381 165.374 254.534 165.025 254.861C164.676 255.188 164.458 255.625 164.327 256.171V262.478C164.327 262.806 164.152 262.98 163.803 262.98H162.45C162.1 262.98 161.926 262.806 161.926 262.478V252.809Z" fill="#046853"/>
<path d="M170.68 257.633C170.68 257.131 170.745 256.629 170.876 256.171C171.007 255.69 171.182 255.254 171.422 254.861C171.662 254.446 171.946 254.075 172.273 253.748C172.6 253.42 172.971 253.137 173.386 252.897C173.801 252.657 174.237 252.482 174.696 252.351C175.154 252.22 175.656 252.155 176.158 252.155C176.66 252.155 177.14 252.22 177.62 252.351C178.079 252.482 178.515 252.657 178.93 252.897C179.323 253.137 179.694 253.42 180.043 253.748C180.37 254.075 180.654 254.446 180.894 254.861C181.134 255.276 181.309 255.712 181.44 256.171C181.571 256.651 181.636 257.131 181.636 257.633C181.636 258.135 181.571 258.637 181.44 259.095C181.309 259.554 181.134 259.99 180.894 260.405C180.654 260.819 180.37 261.169 180.043 261.518C179.716 261.845 179.345 262.129 178.93 262.369C178.515 262.609 178.1 262.784 177.62 262.915C177.162 263.046 176.66 263.111 176.158 263.111C175.656 263.111 175.154 263.046 174.696 262.915C174.237 262.784 173.801 262.609 173.386 262.369C172.971 262.129 172.6 261.845 172.273 261.518C171.946 261.19 171.662 260.819 171.422 260.405C171.182 259.99 171.007 259.554 170.876 259.095C170.745 258.637 170.68 258.157 170.68 257.633ZM173.037 257.633C173.037 258.069 173.124 258.506 173.277 258.899C173.43 259.292 173.648 259.641 173.932 259.946C174.215 260.252 174.543 260.47 174.914 260.645C175.307 260.819 175.721 260.907 176.158 260.907C176.594 260.907 177.009 260.819 177.38 260.645C177.751 260.47 178.079 260.23 178.362 259.946C178.646 259.641 178.843 259.313 178.995 258.899C179.148 258.506 179.235 258.069 179.235 257.633C179.235 257.196 179.148 256.782 178.995 256.367C178.843 255.974 178.624 255.603 178.362 255.319C178.079 255.014 177.773 254.774 177.38 254.599C177.009 254.424 176.594 254.337 176.158 254.337C175.7 254.337 175.285 254.424 174.914 254.599C174.521 254.774 174.194 255.014 173.932 255.319C173.648 255.625 173.43 255.974 173.277 256.367C173.102 256.782 173.037 257.196 173.037 257.633Z" fill="#046853"/>
<path d="M183.665 252.547C183.731 252.46 183.796 252.395 183.862 252.373C183.905 252.329 183.971 252.307 184.058 252.307C184.145 252.307 184.233 252.307 184.298 252.307H185.149C185.302 252.307 185.433 252.351 185.499 252.46C185.586 252.569 185.63 252.678 185.651 252.809L185.739 253.704C185.87 253.508 186.022 253.333 186.219 253.137C186.415 252.962 186.634 252.788 186.874 252.635C187.136 252.482 187.419 252.373 187.747 252.286C188.074 252.198 188.445 252.155 188.86 252.155C189.515 252.155 190.104 252.264 190.606 252.504C191.108 252.744 191.544 253.071 191.894 253.486C192.243 253.901 192.505 254.381 192.701 254.948C192.876 255.516 192.963 256.105 192.963 256.738V262.325C192.963 262.522 192.919 262.675 192.81 262.784C192.723 262.893 192.57 262.937 192.396 262.937H191.13C190.911 262.937 190.759 262.893 190.671 262.806C190.606 262.718 190.562 262.565 190.562 262.369V256.803C190.562 256.498 190.519 256.214 190.409 255.93C190.3 255.647 190.169 255.407 189.973 255.167C189.776 254.948 189.536 254.774 189.253 254.621C188.969 254.468 188.641 254.424 188.27 254.424C188.009 254.424 187.747 254.468 187.463 254.577C187.179 254.686 186.939 254.817 186.699 255.014C186.481 255.21 186.284 255.428 186.132 255.712C185.979 255.974 185.913 256.28 185.891 256.629V262.042C185.891 262.151 185.891 262.26 185.87 262.369C185.848 262.478 185.826 262.566 185.804 262.653C185.76 262.74 185.717 262.806 185.651 262.849C185.586 262.893 185.499 262.915 185.389 262.915H184.014C183.84 262.915 183.687 262.871 183.6 262.784C183.512 262.696 183.469 262.565 183.469 262.413V252.787C183.578 252.722 183.6 252.635 183.665 252.547Z" fill="#046853"/>
<path d="M195.167 252.416C195.32 252.351 195.495 252.307 195.691 252.307H196.542C196.695 252.307 196.826 252.351 196.892 252.46C196.979 252.569 197.023 252.678 197.044 252.809L197.132 253.617C197.263 253.42 197.416 253.246 197.568 253.071C197.743 252.897 197.939 252.744 198.158 252.613C198.398 252.482 198.66 252.373 198.965 252.285C199.271 252.198 199.642 252.154 200.056 252.154C200.449 252.154 200.799 252.198 201.126 252.264C201.453 252.329 201.737 252.46 201.977 252.591C202.239 252.744 202.457 252.918 202.676 253.137C202.872 253.355 203.068 253.595 203.243 253.879C203.374 253.617 203.549 253.377 203.789 253.158C204.007 252.94 204.291 252.744 204.574 252.591C204.88 252.438 205.207 252.307 205.557 252.242C205.906 252.176 206.277 252.111 206.67 252.111C207.324 252.111 207.914 252.22 208.394 252.46C208.896 252.7 209.311 253.028 209.638 253.442C209.965 253.857 210.227 254.359 210.402 254.905C210.577 255.472 210.664 256.061 210.664 256.694V262.282C210.664 262.478 210.62 262.631 210.533 262.74C210.446 262.849 210.293 262.893 210.118 262.893H208.852C208.634 262.893 208.481 262.849 208.416 262.762C208.35 262.675 208.307 262.522 208.307 262.325V256.716C208.307 256.411 208.263 256.127 208.176 255.865C208.088 255.581 207.957 255.341 207.783 255.123C207.608 254.905 207.39 254.73 207.128 254.599C206.866 254.468 206.539 254.403 206.19 254.403C205.884 254.403 205.6 254.468 205.338 254.555C205.076 254.643 204.858 254.817 204.662 255.014C204.465 255.21 204.313 255.472 204.203 255.756C204.094 256.039 204.051 256.367 204.051 256.716V262.282C204.051 262.675 203.876 262.893 203.505 262.893H202.217C201.999 262.893 201.846 262.849 201.781 262.762C201.715 262.675 201.672 262.522 201.672 262.325V256.716C201.672 256.432 201.628 256.149 201.541 255.865C201.453 255.581 201.344 255.341 201.17 255.123C200.995 254.905 200.777 254.73 200.515 254.599C200.253 254.468 199.926 254.403 199.554 254.403C199.293 254.403 199.031 254.446 198.791 254.555C198.529 254.643 198.31 254.795 198.092 254.97C197.874 255.145 197.721 255.385 197.568 255.647C197.437 255.909 197.372 256.214 197.35 256.563V262.413C197.35 262.565 197.306 262.675 197.219 262.762C197.132 262.849 197.001 262.893 196.87 262.893H195.495C195.32 262.893 195.167 262.849 195.08 262.762C194.993 262.675 194.949 262.544 194.949 262.391V252.766C194.949 252.613 195.015 252.482 195.167 252.416Z" fill="#046853"/>
<path d="M221.555 261.758C221.074 262.172 220.529 262.5 219.939 262.74C219.35 262.98 218.717 263.089 218.019 263.089C217.277 263.089 216.556 262.958 215.88 262.653C215.203 262.369 214.614 261.976 214.112 261.474C213.61 260.972 213.195 260.405 212.911 259.728C212.606 259.051 212.453 258.353 212.453 257.567C212.453 257.065 212.519 256.585 212.628 256.127C212.759 255.668 212.933 255.232 213.152 254.817C213.37 254.402 213.654 254.053 213.981 253.704C214.308 253.377 214.658 253.071 215.072 252.831C215.465 252.591 215.902 252.416 216.36 252.285C216.818 252.154 217.32 252.089 217.844 252.089C218.259 252.089 218.695 252.133 219.088 252.242C219.481 252.351 219.896 252.482 220.267 252.678C220.638 252.875 220.987 253.093 221.314 253.377C221.642 253.639 221.926 253.944 222.166 254.293C222.493 254.752 222.755 255.275 222.908 255.799C223.061 256.345 223.148 256.934 223.148 257.589C223.148 257.742 223.148 257.895 223.126 258.004C223.104 258.113 223.082 258.2 223.017 258.266C222.951 258.331 222.886 258.375 222.777 258.418C222.668 258.44 222.515 258.462 222.318 258.462H214.898C214.963 258.855 215.116 259.226 215.312 259.531C215.509 259.837 215.749 260.099 216.033 260.317C216.316 260.535 216.622 260.688 216.949 260.797C217.277 260.907 217.604 260.95 217.931 260.95C218.172 260.95 218.433 260.928 218.652 260.885C218.892 260.841 219.11 260.776 219.306 260.688C219.503 260.601 219.699 260.514 219.852 260.405C220.027 260.295 220.179 260.186 220.31 260.055C220.376 259.99 220.441 259.946 220.507 259.903C220.572 259.859 220.638 259.837 220.703 259.837C220.747 259.837 220.812 259.859 220.878 259.881C220.943 259.924 221.009 259.968 221.074 260.055C221.227 260.23 221.358 260.383 221.467 260.514C221.576 260.645 221.664 260.732 221.729 260.819C221.795 260.907 221.838 260.972 221.882 261.037C221.926 261.103 221.926 261.168 221.926 261.212C221.86 261.452 221.751 261.605 221.555 261.758ZM217.844 254.228C217.517 254.228 217.189 254.293 216.884 254.402C216.578 254.533 216.294 254.686 216.033 254.883C215.771 255.079 215.552 255.341 215.356 255.603C215.16 255.887 215.029 256.192 214.941 256.498H220.856C220.769 256.148 220.638 255.843 220.441 255.559C220.267 255.275 220.049 255.035 219.787 254.839C219.525 254.642 219.241 254.468 218.914 254.359C218.564 254.271 218.215 254.228 217.844 254.228Z" fill="#046853"/>
<path d="M225.222 252.547C225.287 252.46 225.353 252.395 225.418 252.373C225.462 252.329 225.527 252.307 225.615 252.307C225.702 252.307 225.789 252.307 225.855 252.307H226.706C226.859 252.307 226.99 252.351 227.055 252.46C227.143 252.569 227.186 252.678 227.208 252.809L227.295 253.704C227.426 253.508 227.579 253.333 227.775 253.137C227.972 252.962 228.19 252.788 228.43 252.635C228.692 252.482 228.976 252.373 229.303 252.286C229.631 252.198 230.002 252.155 230.416 252.155C231.071 252.155 231.66 252.264 232.162 252.504C232.664 252.744 233.101 253.071 233.45 253.486C233.799 253.901 234.061 254.381 234.258 254.948C234.432 255.516 234.52 256.105 234.52 256.738V262.325C234.52 262.522 234.476 262.675 234.367 262.784C234.28 262.893 234.127 262.937 233.952 262.937H232.686C232.468 262.937 232.315 262.893 232.228 262.806C232.162 262.718 232.119 262.565 232.119 262.369V256.803C232.119 256.498 232.075 256.214 231.966 255.93C231.857 255.647 231.726 255.407 231.53 255.167C231.333 254.948 231.093 254.774 230.809 254.621C230.526 254.49 230.198 254.424 229.827 254.424C229.565 254.424 229.303 254.468 229.02 254.577C228.736 254.686 228.496 254.817 228.256 255.014C228.037 255.21 227.841 255.428 227.688 255.712C227.535 255.974 227.47 256.28 227.448 256.629V262.042C227.448 262.151 227.448 262.26 227.426 262.369C227.404 262.478 227.383 262.566 227.361 262.653C227.317 262.74 227.273 262.806 227.208 262.849C227.143 262.893 227.055 262.915 226.946 262.915H225.571C225.396 262.915 225.244 262.871 225.156 262.784C225.069 262.696 225.025 262.565 225.025 262.413V252.787C225.113 252.722 225.156 252.635 225.222 252.547Z" fill="#046853"/>
<path d="M240.301 262.937C239.864 262.937 239.45 262.871 239.057 262.74C238.664 262.609 238.337 262.435 238.053 262.195C237.769 261.954 237.529 261.649 237.376 261.3C237.202 260.95 237.136 260.536 237.136 260.099V258.724V254.446H236.176C236.023 254.446 235.892 254.403 235.805 254.337C235.717 254.272 235.674 254.141 235.674 253.988V252.788C235.674 252.635 235.717 252.504 235.805 252.438C235.892 252.373 236.001 252.329 236.176 252.329H237.136C237.136 252.024 237.136 251.74 237.136 251.456C237.136 251.172 237.136 250.867 237.136 250.583C237.136 250.474 237.18 250.387 237.245 250.321C237.311 250.256 237.42 250.19 237.573 250.147C237.66 250.103 237.791 250.081 237.922 250.016C238.053 249.972 238.184 249.928 238.337 249.885C238.489 249.841 238.62 249.797 238.751 249.776C238.882 249.754 238.991 249.732 239.079 249.732C239.253 249.732 239.362 249.776 239.428 249.885C239.472 249.972 239.515 250.103 239.515 250.256C239.515 250.605 239.515 250.954 239.515 251.303C239.515 251.653 239.515 252.002 239.515 252.351H240.716C240.868 252.351 240.978 252.395 241.043 252.46C241.13 252.526 241.152 252.657 241.152 252.809V253.944C241.152 254.119 241.108 254.25 241.043 254.337C240.956 254.424 240.847 254.446 240.716 254.446H239.515C239.515 254.817 239.515 255.123 239.515 255.363C239.515 255.625 239.515 255.843 239.515 256.04C239.515 256.236 239.515 256.411 239.515 256.585C239.515 256.76 239.515 256.934 239.515 257.131C239.515 257.327 239.515 257.546 239.515 257.808C239.515 258.069 239.515 258.375 239.515 258.724C239.515 258.746 239.515 258.746 239.515 258.768C239.515 258.79 239.515 258.79 239.515 258.811V259.903C239.515 260.274 239.581 260.536 239.733 260.689C239.886 260.841 240.104 260.929 240.432 260.929C240.541 260.929 240.65 260.972 240.716 261.06C240.781 261.147 240.825 261.234 240.825 261.365V262.522C240.825 262.675 240.781 262.784 240.694 262.871C240.563 262.893 240.454 262.937 240.301 262.937Z" fill="#046853"/>
</svg>
