<svg width="220" height="215" viewBox="0 0 220 215" fill="none" xmlns="http://www.w3.org/2000/svg">
<path d="M142.365 171.407C140.969 171.407 139.593 171.56 138.284 171.865C136.058 172.367 134.093 173.481 132.107 174.463C124.686 178.195 115.869 178.915 107.051 178.915C67.0006 178.915 34.5237 146.438 34.5237 106.388C34.5237 84.06 44.6073 64.1111 60.4747 50.7973C63.7049 48.0909 67.6335 44.7079 71.584 45.0789C77.1933 45.5809 78.11 52.4779 88.2808 52.5434C98.6263 52.7398 108.252 45.0789 109.867 30.0191C111.525 14.6537 97.1859 0.401367 80.9474 0.401367C77.8918 0.401367 74.9671 0.859712 72.1952 1.73275C70.9293 2.19109 69.6633 2.69309 68.4193 3.19508C28.4343 19.63 0.300781 58.9602 0.300781 104.86C0.300781 165.536 49.4963 214.732 110.172 214.732C123.115 214.732 135.381 211.96 147.08 208.38C148.368 207.987 149.633 207.573 150.812 206.962C156.945 203.862 161.158 197.533 161.158 190.199C161.136 179.81 152.733 171.407 142.365 171.407Z" fill="#00A499"/>
<path d="M128.136 30.521C131.475 34.6025 136.539 37.2216 142.214 37.2216C152.232 37.2216 160.373 29.1024 160.373 19.0625C160.373 15.6576 159.434 12.4929 157.819 9.76463C157.143 8.80429 156.444 7.86578 155.724 6.92727C152.406 3.21687 147.583 0.90332 142.214 0.90332C132.196 0.90332 124.055 9.02255 124.055 19.0625C124.055 22.7729 125.168 26.2213 127.067 29.0805C127.438 29.5389 127.787 30.0191 128.136 30.521Z" fill="#6CC3C4"/>
<path d="M199.657 41.2812C199.046 40.2772 198.348 39.3169 197.562 38.4439C194.244 34.7335 189.421 32.4199 184.052 32.4199C174.034 32.4199 165.893 40.5392 165.893 50.5791C165.893 54.2895 167.006 57.7379 168.905 60.5971C169.276 61.0773 169.625 61.5575 169.974 62.0376C178.661 74.151 183.79 89.0144 183.79 105.056C183.79 120.88 178.813 135.525 170.345 147.551C170.258 147.661 170.192 147.77 170.105 147.879C168.163 150.76 167.049 154.23 167.049 157.962C167.049 167.98 175.169 176.122 185.208 176.122C190.687 176.122 195.576 173.699 198.915 169.857C199.723 168.919 200.443 167.893 201.054 166.802C213.015 149.188 219.999 127.93 219.999 105.035C219.999 81.2881 212.469 59.2658 199.657 41.2812Z" fill="#6CC3C4"/>
<path d="M120.365 164.838C119.405 160.931 121.413 155.103 119.95 152.353C117.484 147.661 116.284 144.06 116.371 141.113C116.829 124.482 122.067 124.329 118.75 120.4C114.559 115.402 113.294 115.315 111.176 115.926C103.275 118.152 100.525 118.654 97.1641 117.585C87.7572 114.573 85.0072 118.938 83.8941 122.255C82.4972 126.381 82.0607 126.49 80.7075 126.664C73.9196 127.472 70.1656 124.634 67.9393 122.67C65.9313 120.88 73.112 106.934 74.8581 104.86C81.6023 96.8283 78.3503 89.5166 76.1459 87.465C71.5624 83.2308 72.6318 81.3756 74.6398 80.0224C79.7034 76.6175 77.499 73.1254 75.9493 71.7067C69.9472 66.2284 82.6063 63.4129 83.5667 60.9247C84.9635 57.3671 82.2134 53.1765 79.507 54.5734C68.4631 60.2699 47.6412 84.1693 47.6412 108.723C47.6412 116.864 47.1829 125.726 51.8536 131.837C53.687 134.238 61.4351 137.49 61.4351 137.49C65.2547 139.454 67.6119 138.734 67.6119 138.734C76.0804 135.547 75.382 140.524 75.382 140.524C74.0942 149.778 86.3385 153.663 86.3385 153.663C92.0132 155.256 93.41 161.127 93.41 161.127C96.6839 169.88 105.633 169.989 110.849 171.8C112.115 171.757 123.181 172.782 124.425 172.673C124.425 170.469 120.889 166.977 120.365 164.838Z" fill="#046853"/>
<path d="M118.685 50.7975C121.675 54.1368 124.949 59.3532 104.651 61.9505C102.533 62.2124 91.5114 65.5299 95.3091 78.3854C96.0512 80.8517 96.0948 81.943 94.196 88.6435C92.9301 93.1397 87.9975 112.543 113.905 110.797C117.091 110.579 120.453 108.396 124.665 103.922C125.516 103.027 129.052 102.132 129.292 105.711C129.729 111.91 130.514 118.218 145.727 124.373C147.058 124.918 147.975 125.726 148.717 129.305C148.717 129.305 150.659 135.133 158.124 135.438C165.588 135.744 165.152 126.468 165.152 126.468C165.152 126.468 167.618 108.963 163.799 98.8362C162.555 95.5623 164.541 94.5584 168.12 85.5443C168.928 83.5145 169.124 79.7168 170.128 76.8139C159.761 58.3274 140.685 45.3628 118.445 43.5513C117.637 44.3152 115.367 47.0871 118.685 50.7975Z" fill="#046853"/>
</svg>
