<svg width="41" height="41" viewBox="0 0 41 41" fill="none" xmlns="http://www.w3.org/2000/svg">
<g clip-path="url(#clip0_189_10636)">
<path d="M28.4484 28.8073C28.8699 29.1978 29.3664 29.4986 29.9077 29.6914C30.449 29.8841 31.0238 29.9649 31.5973 29.9287C32.5061 29.9519 33.3972 29.6754 34.1332 29.1419C34.7329 28.7526 35.1867 28.1746 35.4236 27.5021H39.7054C39.2481 29.4192 38.1348 31.1161 36.5582 32.299C35.0436 33.3031 33.2547 33.8124 31.4383 33.7567C30.1417 33.7754 28.8548 33.5314 27.655 33.0394C26.5695 32.5856 25.5957 31.9011 24.801 31.0335C24.0121 30.1225 23.4048 29.0688 23.0121 27.9294C22.5718 26.6551 22.3571 25.3137 22.3777 23.9656C22.3694 22.6405 22.5914 21.3236 23.0336 20.0747C23.6295 18.3181 24.7654 16.7948 26.2791 15.7226C27.7928 14.6504 29.6066 14.0843 31.4615 14.105C32.831 14.0788 34.1849 14.3996 35.3971 15.0376C36.492 15.6372 37.4361 16.4786 38.16 17.4973C38.8995 18.5656 39.4295 19.7646 39.722 21.0305C40.0433 22.3904 40.1576 23.79 40.0615 25.1847H27.3088C27.2045 26.4933 27.6136 27.7919 28.4484 28.8073ZM11.8479 7.53403C12.9218 7.51352 13.9942 7.62366 15.0415 7.862C15.9237 8.05463 16.7613 8.41326 17.5095 8.91879C18.2019 9.42068 18.7485 10.0965 19.0964 10.8767C19.4955 11.8357 19.6877 12.8693 19.6612 13.9079C19.708 15.0496 19.4164 16.1796 18.823 17.1561C18.2021 18.0796 17.3415 18.8165 16.3335 19.2879C17.6997 19.6577 18.8898 20.5014 19.691 21.6682C20.4596 22.9055 20.8455 24.3433 20.8008 25.7993C20.8267 26.9599 20.5871 28.1112 20.1001 29.1651C19.6501 30.0853 18.9902 30.887 18.1737 31.5056C17.3346 32.1189 16.3896 32.572 15.386 32.8423C14.3466 33.1333 13.2717 33.2777 12.1924 33.2713H0.34082V7.53403H11.8479ZM11.4586 28.9017C11.971 28.9083 12.4768 28.8537 12.9759 28.7377C13.4301 28.6371 13.8608 28.4504 14.2447 28.1878C14.6224 27.9261 14.9255 27.5733 15.1293 27.1625C15.3645 26.6374 15.4738 26.0643 15.4456 25.4912C15.4969 24.9679 15.4277 24.4399 15.2434 23.9475C15.059 23.4551 14.7645 23.0114 14.3822 22.6504C13.5711 22.0542 12.578 21.7585 11.5729 21.8139H5.70925V28.9017H11.4586ZM34.0438 19.0179C33.687 18.661 33.2578 18.3848 32.7852 18.2079C32.3126 18.0311 31.8075 17.9576 31.3041 17.9926C30.6357 17.967 29.9721 18.1148 29.3777 18.4216C28.9075 18.6814 28.4923 19.0302 28.1553 19.4486C27.8571 19.8414 27.6347 20.2863 27.4993 20.7605C27.3767 21.158 27.3011 21.5633 27.2724 21.9763H35.1718C35.1025 20.9001 34.7106 19.8698 34.0471 19.0196L34.0438 19.0179ZM11.1638 17.9446C12.0081 17.9796 12.8392 17.7267 13.5209 17.2273C14.1818 16.6393 14.5263 15.7697 14.4485 14.8868C14.471 14.3783 14.3698 13.8718 14.1536 13.411C13.9699 13.0447 13.6855 12.7384 13.3337 12.5281C12.9769 12.2967 12.5758 12.1422 12.156 12.0743C11.7005 11.9856 11.2369 11.9451 10.7729 11.9533H5.70925V17.9678H11.1638V17.9446ZM36.1524 9.25339H26.2537V11.7827H36.1524V9.25339Z" fill="#F8F8F8"/>
</g>
<defs>
<clipPath id="clip0_189_10636">
<rect width="39.7538" height="39.7538" fill="white" transform="translate(0.34082 0.769226)"/>
</clipPath>
</defs>
</svg>
