<?xml version="1.0" encoding="utf-8"?>
<!-- Generator: Adobe Illustrator 24.2.1, SVG Export Plug-In . SVG Version: 6.00 Build 0)  -->
<svg version="1.1" id="Layer_1" xmlns="http://www.w3.org/2000/svg" xmlns:xlink="http://www.w3.org/1999/xlink" x="0px" y="0px"
	 viewBox="0 0 41 41" style="enable-background:new 0 0 41 41;" xml:space="preserve">
<style type="text/css">
	.st0{clip-path:url(#SVGID_2_);}
</style>
<g>
	<defs>
		<rect id="SVGID_1_" x="0.3" y="0.8" width="39.8" height="39.8"/>
	</defs>
	<clipPath id="SVGID_2_">
		<use xlink:href="#SVGID_1_"  style="overflow:visible;"/>
	</clipPath>
	<g class="st0">
		<path d="M28.4,28.8c0.4,0.4,0.9,0.7,1.5,0.9c0.5,0.2,1.1,0.3,1.7,0.2c0.9,0,1.8-0.3,2.5-0.8c0.6-0.4,1.1-1,1.3-1.6h4.3
			c-0.5,1.9-1.6,3.6-3.1,4.8c-1.5,1-3.3,1.5-5.1,1.5c-1.3,0-2.6-0.2-3.8-0.7c-1.1-0.5-2.1-1.1-2.9-2c-0.8-0.9-1.4-2-1.8-3.1
			c-0.4-1.3-0.7-2.6-0.6-4c0-1.3,0.2-2.6,0.7-3.9c0.6-1.8,1.7-3.3,3.2-4.4s3.3-1.6,5.2-1.6c1.4,0,2.7,0.3,3.9,0.9
			c1.1,0.6,2,1.4,2.8,2.5c0.7,1.1,1.3,2.3,1.6,3.5c0.3,1.4,0.4,2.8,0.3,4.2H27.3C27.2,26.5,27.6,27.8,28.4,28.8z M11.8,7.5
			c1.1,0,2.1,0.1,3.2,0.3c0.9,0.2,1.7,0.6,2.5,1.1c0.7,0.5,1.2,1.2,1.6,2c0.4,1,0.6,2,0.6,3c0,1.1-0.2,2.3-0.8,3.2
			c-0.6,0.9-1.5,1.7-2.5,2.1c1.4,0.4,2.6,1.2,3.4,2.4c0.8,1.2,1.2,2.7,1.1,4.1c0,1.2-0.2,2.3-0.7,3.4c-0.4,0.9-1.1,1.7-1.9,2.3
			c-0.8,0.6-1.8,1.1-2.8,1.3c-1,0.3-2.1,0.4-3.2,0.4H0.3V7.5H11.8z M11.5,28.9c0.5,0,1,0,1.5-0.2c0.5-0.1,0.9-0.3,1.3-0.5
			c0.4-0.3,0.7-0.6,0.9-1c0.2-0.5,0.3-1.1,0.3-1.7c0.1-0.5,0-1.1-0.2-1.5c-0.2-0.5-0.5-0.9-0.9-1.3c-0.8-0.6-1.8-0.9-2.8-0.8H5.7
			v7.1H11.5z M34,19c-0.4-0.4-0.8-0.6-1.3-0.8c-0.5-0.2-1-0.3-1.5-0.2c-0.7,0-1.3,0.1-1.9,0.4c-0.5,0.3-0.9,0.6-1.2,1
			c-0.3,0.4-0.5,0.8-0.7,1.3c-0.1,0.4-0.2,0.8-0.2,1.2h7.9C35.1,20.9,34.7,19.9,34,19L34,19z M11.2,17.9c0.8,0,1.7-0.2,2.4-0.7
			c0.7-0.6,1-1.5,0.9-2.3c0-0.5-0.1-1-0.3-1.5c-0.2-0.4-0.5-0.7-0.8-0.9c-0.4-0.2-0.8-0.4-1.2-0.5c-0.5-0.1-0.9-0.1-1.4-0.1H5.7v6
			L11.2,17.9L11.2,17.9z M36.2,9.3h-9.9v2.5h9.9V9.3z"/>
	</g>
</g>
</svg>
