<svg width="41" height="41" viewBox="0 0 41 41" fill="none" xmlns="http://www.w3.org/2000/svg">
<path d="M13.1765 3.75897H27.0904C32.3909 3.75897 36.6975 8.06564 36.6975 13.3662V27.28C36.6975 29.828 35.6854 32.2716 33.8837 34.0733C32.082 35.875 29.6383 36.8872 27.0904 36.8872H13.1765C7.876 36.8872 3.56934 32.5805 3.56934 27.28V13.3662C3.56934 10.8182 4.58152 8.37455 6.38321 6.57285C8.18491 4.77115 10.6285 3.75897 13.1765 3.75897ZM12.8452 7.07179C11.2637 7.07179 9.74699 7.70004 8.6287 8.81834C7.51041 9.93663 6.88216 11.4534 6.88216 13.0349V27.6113C6.88216 30.9075 9.54898 33.5744 12.8452 33.5744H27.4216C29.0031 33.5744 30.5199 32.9461 31.6382 31.8278C32.7565 30.7095 33.3847 29.1928 33.3847 27.6113V13.0349C33.3847 9.73861 30.7179 7.07179 27.4216 7.07179H12.8452ZM28.8296 9.55641C29.3787 9.55641 29.9054 9.77455 30.2937 10.1628C30.682 10.5511 30.9001 11.0778 30.9001 11.6269C30.9001 12.1761 30.682 12.7027 30.2937 13.091C29.9054 13.4793 29.3787 13.6974 28.8296 13.6974C28.2805 13.6974 27.7538 13.4793 27.3655 13.091C26.9772 12.7027 26.7591 12.1761 26.7591 11.6269C26.7591 11.0778 26.9772 10.5511 27.3655 10.1628C27.7538 9.77455 28.2805 9.55641 28.8296 9.55641ZM20.1334 12.041C22.33 12.041 24.4365 12.9136 25.9897 14.4668C27.5429 16.02 28.4155 18.1265 28.4155 20.3231C28.4155 22.5196 27.5429 24.6262 25.9897 26.1794C24.4365 27.7326 22.33 28.6051 20.1334 28.6051C17.9369 28.6051 15.8303 27.7326 14.2771 26.1794C12.724 24.6262 11.8514 22.5196 11.8514 20.3231C11.8514 18.1265 12.724 16.02 14.2771 14.4668C15.8303 12.9136 17.9369 12.041 20.1334 12.041ZM20.1334 15.3538C18.8155 15.3538 17.5516 15.8774 16.6197 16.8093C15.6877 17.7412 15.1642 19.0052 15.1642 20.3231C15.1642 21.641 15.6877 22.9049 16.6197 23.8369C17.5516 24.7688 18.8155 25.2923 20.1334 25.2923C21.4514 25.2923 22.7153 24.7688 23.6472 23.8369C24.5791 22.9049 25.1027 21.641 25.1027 20.3231C25.1027 19.0052 24.5791 17.7412 23.6472 16.8093C22.7153 15.8774 21.4514 15.3538 20.1334 15.3538Z" fill="#F8F8F8"/>
</svg>
