<?xml version="1.0" encoding="utf-8"?>
<!-- Generator: Adobe Illustrator 24.2.1, SVG Export Plug-In . SVG Version: 6.00 Build 0)  -->
<svg version="1.1" id="Layer_1" xmlns="http://www.w3.org/2000/svg" xmlns:xlink="http://www.w3.org/1999/xlink" x="0px" y="0px"
	 viewBox="0 0 41 41" style="enable-background:new 0 0 41 41;" xml:space="preserve">
<path d="M13.2,3.8h13.9c5.3,0,9.6,4.3,9.6,9.6v13.9c0,2.5-1,5-2.8,6.8c-1.8,1.8-4.2,2.8-6.8,2.8H13.2c-5.3,0-9.6-4.3-9.6-9.6V13.4
	c0-2.5,1-5,2.8-6.8C8.2,4.8,10.6,3.8,13.2,3.8z M12.8,7.1c-1.6,0-3.1,0.6-4.2,1.7C7.5,9.9,6.9,11.5,6.9,13v14.6c0,3.3,2.7,6,6,6
	h14.6c1.6,0,3.1-0.6,4.2-1.7c1.1-1.1,1.7-2.6,1.7-4.2V13c0-3.3-2.7-6-6-6H12.8z M28.8,9.6c0.5,0,1.1,0.2,1.5,0.6
	c0.4,0.4,0.6,0.9,0.6,1.5c0,0.5-0.2,1.1-0.6,1.5s-0.9,0.6-1.5,0.6c-0.5,0-1.1-0.2-1.5-0.6s-0.6-0.9-0.6-1.5c0-0.5,0.2-1.1,0.6-1.5
	C27.8,9.8,28.3,9.6,28.8,9.6z M20.1,12c2.2,0,4.3,0.9,5.9,2.4c1.6,1.6,2.4,3.7,2.4,5.9c0,2.2-0.9,4.3-2.4,5.9s-3.7,2.4-5.9,2.4
	c-2.2,0-4.3-0.9-5.9-2.4c-1.6-1.6-2.4-3.7-2.4-5.9c0-2.2,0.9-4.3,2.4-5.9C15.8,12.9,17.9,12,20.1,12z M20.1,15.4
	c-1.3,0-2.6,0.5-3.5,1.5c-0.9,0.9-1.5,2.2-1.5,3.5c0,1.3,0.5,2.6,1.5,3.5c0.9,0.9,2.2,1.5,3.5,1.5c1.3,0,2.6-0.5,3.5-1.5
	c0.9-0.9,1.5-2.2,1.5-3.5c0-1.3-0.5-2.6-1.5-3.5S21.5,15.4,20.1,15.4z"/>
</svg>
