<?xml version="1.0" encoding="utf-8"?>
<!-- Generator: Adobe Illustrator 24.2.1, SVG Export Plug-In . SVG Version: 6.00 Build 0)  -->
<svg version="1.1" id="Layer_1" xmlns="http://www.w3.org/2000/svg" xmlns:xlink="http://www.w3.org/1999/xlink" x="0px" y="0px"
	 viewBox="0 0 38 38" style="enable-background:new 0 0 38 38;" xml:space="preserve">
<style type="text/css">
	.st0{clip-path:url(#SVGID_2_);}
</style>
<g>
	<defs>
		<rect id="SVGID_1_" x="0.2" y="0.9" width="37" height="37"/>
	</defs>
	<clipPath id="SVGID_2_">
		<use xlink:href="#SVGID_1_"  style="overflow:visible;"/>
	</clipPath>
	<g class="st0">
		<path d="M33.1,0.9c1.1,0,2.1,0.4,2.9,1.2c0.8,0.8,1.2,1.8,1.2,2.9v28.8c0,1.1-0.4,2.1-1.2,2.9c-0.8,0.8-1.8,1.2-2.9,1.2H4.3
			c-1.1,0-2.1-0.4-2.9-1.2c-0.8-0.8-1.2-1.8-1.2-2.9V5c0-1.1,0.4-2.1,1.2-2.9c0.8-0.8,1.8-1.2,2.9-1.2H33.1z M32.1,32.7V21.8
			c0-1.8-0.7-3.5-2-4.7c-1.3-1.3-3-2-4.7-2c-1.7,0-3.8,1.1-4.8,2.7v-2.3h-5.7v17.2h5.7V22.6c0-1.6,1.3-2.9,2.9-2.9
			c0.8,0,1.5,0.3,2,0.8c0.5,0.5,0.8,1.3,0.8,2v10.1H32.1z M8.2,12.3c0.9,0,1.8-0.4,2.4-1c0.6-0.6,1-1.5,1-2.4c0-1.9-1.5-3.5-3.5-3.5
			c-0.9,0-1.8,0.4-2.5,1s-1,1.5-1,2.5C4.7,10.8,6.3,12.3,8.2,12.3z M11.1,32.7V15.5H5.4v17.2H11.1z"/>
	</g>
</g>
</svg>
