<svg width="52" height="52" viewBox="0 0 52 52" fill="none" xmlns="http://www.w3.org/2000/svg">
<path d="M20.5338 26.9027C20.5338 27.1325 20.5338 27.1325 20.355 27.1325H15.835C16.6777 24.5788 17.5715 21.8719 18.3887 19.216C18.3887 19.4203 18.3887 19.6246 18.5674 19.8289C18.7462 20.0332 18.7973 20.6716 18.8994 21.0802L19.3591 22.5103C19.3591 22.9955 19.64 23.4552 19.7932 23.9404L20.2784 25.396L20.5338 26.9027Z" fill="#9969F9"/>
<path d="M39.0227 25.294C38.8809 24.8618 38.6262 24.4753 38.285 24.1745C37.9438 23.8737 37.5284 23.6695 37.0819 23.583C36.6168 23.5067 36.1424 23.5067 35.6773 23.583C35.3332 23.65 35.0082 23.7924 34.7256 23.9999C34.443 24.2074 34.2099 24.4749 34.043 24.7832C33.7843 25.2419 33.6112 25.7438 33.5322 26.2644H38.8184C39.0738 26.2644 39.1504 26.2644 39.1248 25.9069C39.1159 25.6992 39.0816 25.4933 39.0227 25.294ZM39.0227 25.294C38.8809 24.8618 38.6262 24.4753 38.285 24.1745C37.9438 23.8737 37.5284 23.6695 37.0819 23.583C36.6168 23.5067 36.1424 23.5067 35.6773 23.583C35.3332 23.65 35.0082 23.7924 34.7256 23.9999C34.443 24.2074 34.2099 24.4749 34.043 24.7832C33.7843 25.2419 33.6112 25.7438 33.5322 26.2644H38.8184C39.0738 26.2644 39.1504 26.2644 39.1248 25.9069C39.1159 25.6992 39.0816 25.4933 39.0227 25.294ZM39.0227 25.294C38.8809 24.8618 38.6262 24.4753 38.285 24.1745C37.9438 23.8737 37.5284 23.6695 37.0819 23.583C36.6168 23.5067 36.1424 23.5067 35.6773 23.583C35.3332 23.65 35.0082 23.7924 34.7256 23.9999C34.443 24.2074 34.2099 24.4749 34.043 24.7832C33.7843 25.2419 33.6112 25.7438 33.5322 26.2644H38.8184C39.0738 26.2644 39.1504 26.2644 39.1248 25.9069C39.1159 25.6992 39.0816 25.4933 39.0227 25.294ZM39.0227 25.294C38.8809 24.8618 38.6262 24.4753 38.285 24.1745C37.9438 23.8737 37.5284 23.6695 37.0819 23.583C36.6168 23.5067 36.1424 23.5067 35.6773 23.583C35.3332 23.65 35.0082 23.7924 34.7256 23.9999C34.443 24.2074 34.2099 24.4749 34.043 24.7832C33.7843 25.2419 33.6112 25.7438 33.5322 26.2644H38.8184C39.0738 26.2644 39.1504 26.2644 39.1248 25.9069C39.1159 25.6992 39.0816 25.4933 39.0227 25.294ZM38.8184 0.344177H13.2813C9.89483 0.344177 6.64709 1.68943 4.25252 4.084C1.85795 6.47858 0.512695 9.72631 0.512695 13.1127V38.6499C0.512695 42.0363 1.85795 45.2841 4.25252 47.6786C6.64709 50.0732 9.89483 51.4184 13.2813 51.4184H38.8184C42.2048 51.4184 45.4526 50.0732 47.8471 47.6786C50.2417 45.2841 51.587 42.0363 51.587 38.6499V13.1127C51.587 9.72631 50.2417 6.47858 47.8471 4.084C45.4526 1.68943 42.2048 0.344177 38.8184 0.344177ZM27.914 36.0962H23.777C23.7061 36.1069 23.6337 36.0961 23.569 36.0651C23.5043 36.0342 23.4505 35.9845 23.4144 35.9225C23.3904 35.8817 23.3748 35.8366 23.3684 35.7897C23.1641 35.1513 22.9343 34.5384 22.73 33.9C22.5257 33.2615 22.2193 32.4444 21.9894 31.7038C21.9894 31.2952 21.6574 31.2441 21.2999 31.2441H14.8646C14.5837 31.2441 14.5837 31.2441 14.4815 31.5506C14.3794 31.857 14.2261 32.3933 14.0729 32.8274L13.6643 34.1553L13.128 35.7131C13.1418 35.7805 13.1418 35.85 13.128 35.9174C13.128 36.2494 12.7194 36.1983 12.4641 36.1983H9.16978C8.78673 36.1983 8.65904 36.0196 8.81226 35.662C8.96549 35.3045 9.09317 34.8959 9.22086 34.5384L9.75714 32.904L10.7531 30.0949C11.034 29.3288 11.2894 28.5372 11.5447 27.7455C11.8001 26.9539 12.0299 26.3921 12.2853 25.7026L12.8216 24.0937L13.7665 21.54L14.5326 19.2927C14.788 18.5777 15.0433 17.8627 15.2732 17.1221C15.309 16.774 15.309 16.4231 15.2732 16.0751C15.2732 15.5388 15.2732 15.5388 15.8094 15.5388H20.4317C20.8403 15.5388 20.8147 15.5388 20.9424 15.9218C21.0701 16.3049 21.4021 17.1731 21.6064 17.786C21.8107 18.3989 21.9894 18.8586 22.1682 19.3693L22.7811 21.0293L23.394 22.8169C23.6493 23.5064 23.9047 24.1703 24.1345 24.8598L24.7985 26.6985C25.0028 27.3114 25.2326 27.9243 25.4625 28.5627C25.6923 29.2011 25.7689 29.5076 25.9477 29.9673C26.1264 30.4269 26.3052 30.9887 26.5095 31.4995C26.7138 32.0102 26.8415 32.4699 27.0202 32.9551L27.7608 35.0236L28.0673 35.9174C28.1694 35.8919 28.0928 36.0962 27.914 36.0962ZM43.2363 28.435C43.2482 28.6649 43.2482 28.8947 43.2363 29.1245C43.2363 29.3544 42.8533 29.431 42.6234 29.431H33.6088C33.7008 30.2686 34.0685 31.05 34.6558 31.6527C35.72 32.3063 36.9277 32.6899 38.174 32.77C39.4202 32.8501 40.6672 32.6243 41.8062 32.1124C42.0105 32.1124 42.1127 32.1124 42.1127 32.3167V35.2024C42.1127 35.662 41.9339 35.7131 41.5509 35.8663L40.6315 36.1472C40.3395 36.2333 40.0404 36.2932 39.7377 36.326C39.0993 36.326 38.4609 36.5048 37.8225 36.5303C37.184 36.5558 36.9542 36.5303 36.5201 36.5303H36.2647C35.7539 36.5303 35.2177 36.5303 34.7325 36.3515C33.3238 36.0702 32.0382 35.356 31.0551 34.3086C30.4315 33.6638 29.945 32.8993 29.625 32.0613C29.3667 31.4497 29.1948 30.8051 29.1143 30.146C29.0776 29.3974 29.0776 28.6474 29.1143 27.8987C29.1526 26.9769 29.3262 26.0652 29.625 25.1918C29.8762 24.4649 30.2287 23.7772 30.6721 23.1488C31.2539 22.2721 32.0434 21.5527 32.9704 21.0548C33.3705 20.8233 33.7876 20.6275 34.2217 20.4674C34.6932 20.3552 35.1706 20.27 35.6518 20.2121C36.0859 20.1865 36.5201 20.1865 36.9542 20.2121C37.5943 20.2223 38.2242 20.3074 38.8439 20.4674C39.4058 20.6258 39.942 20.8471 40.4528 21.1314C41.2393 21.5824 41.8915 22.2347 42.3425 23.0212C42.5979 23.4808 42.8022 23.9405 43.0065 24.4002C43.1154 24.7253 43.2006 25.0573 43.2619 25.3961C43.4901 26.3938 43.5162 27.4271 43.3385 28.435H43.2363ZM36.9797 23.7107C36.5146 23.6344 36.0403 23.6344 35.5752 23.7107C35.2311 23.7777 34.906 23.9201 34.6235 24.1276C34.3409 24.3351 34.1078 24.6026 33.9408 24.9109C33.6821 25.3696 33.5091 25.8714 33.4301 26.3921H38.8184C39.0738 26.3921 39.1504 26.3921 39.1248 26.0345C39.1037 25.8074 39.0521 25.5841 38.9716 25.3706C38.8457 24.9306 38.6039 24.5326 38.2714 24.2181C37.939 23.9036 37.5281 23.6843 37.0819 23.583L36.9797 23.7107ZM38.9205 25.4216C38.7787 24.9894 38.5241 24.603 38.1829 24.3022C37.8417 24.0014 37.4263 23.7972 36.9797 23.7107C36.5146 23.6344 36.0403 23.6344 35.5752 23.7107C35.2311 23.7777 34.906 23.9201 34.6235 24.1276C34.3409 24.3351 34.1078 24.6026 33.9408 24.9109C33.6821 25.3696 33.5091 25.8714 33.4301 26.3921H38.8184C39.0738 26.3921 39.1504 26.3921 39.1248 26.0345C39.1248 25.7826 39.0908 25.5357 39.0227 25.294L38.9205 25.4216ZM38.9205 25.4216C38.7787 24.9894 38.5241 24.603 38.1829 24.3022C37.8417 24.0014 37.4263 23.7972 36.9797 23.7107C36.5146 23.6344 36.0403 23.6344 35.5752 23.7107C35.2311 23.7777 34.906 23.9201 34.6235 24.1276C34.3409 24.3351 34.1078 24.6026 33.9408 24.9109C33.6821 25.3696 33.5091 25.8714 33.4301 26.3921H38.8184C39.0738 26.3921 39.1504 26.3921 39.1248 26.0345C39.1248 25.7826 39.0908 25.5357 39.0227 25.294L38.9205 25.4216ZM38.9205 25.4216C38.7787 24.9894 38.5241 24.603 38.1829 24.3022C37.8417 24.0014 37.4263 23.7972 36.9797 23.7107C36.5146 23.6344 36.0403 23.6344 35.5752 23.7107C35.2311 23.7777 34.906 23.9201 34.6235 24.1276C34.3409 24.3351 34.1078 24.6026 33.9408 24.9109C33.6821 25.3696 33.5091 25.8714 33.4301 26.3921H38.8184C39.0738 26.3921 39.1504 26.3921 39.1248 26.0345C39.1248 25.7826 39.0908 25.5357 39.0227 25.294L38.9205 25.4216ZM38.9205 25.4216C38.7787 24.9894 38.5241 24.603 38.1829 24.3022C37.8417 24.0014 37.4263 23.7972 36.9797 23.7107C36.5146 23.6344 36.0403 23.6344 35.5752 23.7107C35.2311 23.7777 34.906 23.9201 34.6235 24.1276C34.3409 24.3351 34.1078 24.6026 33.9408 24.9109C33.6821 25.3696 33.5091 25.8714 33.4301 26.3921H38.8184C39.0738 26.3921 39.1504 26.3921 39.1248 26.0345C39.1248 25.7826 39.0908 25.5357 39.0227 25.294L38.9205 25.4216Z" fill="#9969F9"/>
</svg>
