<svg width="52" height="52" viewBox="0 0 52 52" fill="none" xmlns="http://www.w3.org/2000/svg">
<rect x="8" y="7" width="37" height="37" fill="#F8F8F8"/>
<path d="M20.5338 27.3185C20.5338 27.5483 20.5338 27.5483 20.355 27.5483H15.835C16.6777 24.9946 17.5715 22.2877 18.3887 19.6318C18.3887 19.8361 18.3887 20.0404 18.5674 20.2447C18.7462 20.449 18.7973 21.0875 18.8994 21.496L19.3591 22.9261C19.3591 23.4113 19.64 23.871 19.7932 24.3562L20.2784 25.8118L20.5338 27.3185Z" fill="#9969F9"/>
<path d="M39.0227 25.7098C38.8809 25.2776 38.6262 24.8911 38.285 24.5903C37.9438 24.2895 37.5284 24.0853 37.0819 23.9988C36.6168 23.9226 36.1424 23.9226 35.6773 23.9988C35.3332 24.0658 35.0082 24.2082 34.7256 24.4157C34.443 24.6232 34.2099 24.8908 34.043 25.199C33.7843 25.6577 33.6112 26.1596 33.5322 26.6802H38.8184C39.0738 26.6802 39.1504 26.6802 39.1248 26.3227C39.1159 26.115 39.0816 25.9092 39.0227 25.7098ZM39.0227 25.7098C38.8809 25.2776 38.6262 24.8911 38.285 24.5903C37.9438 24.2895 37.5284 24.0853 37.0819 23.9988C36.6168 23.9226 36.1424 23.9226 35.6773 23.9988C35.3332 24.0658 35.0082 24.2082 34.7256 24.4157C34.443 24.6232 34.2099 24.8908 34.043 25.199C33.7843 25.6577 33.6112 26.1596 33.5322 26.6802H38.8184C39.0738 26.6802 39.1504 26.6802 39.1248 26.3227C39.1159 26.115 39.0816 25.9092 39.0227 25.7098ZM39.0227 25.7098C38.8809 25.2776 38.6262 24.8911 38.285 24.5903C37.9438 24.2895 37.5284 24.0853 37.0819 23.9988C36.6168 23.9226 36.1424 23.9226 35.6773 23.9988C35.3332 24.0658 35.0082 24.2082 34.7256 24.4157C34.443 24.6232 34.2099 24.8908 34.043 25.199C33.7843 25.6577 33.6112 26.1596 33.5322 26.6802H38.8184C39.0738 26.6802 39.1504 26.6802 39.1248 26.3227C39.1159 26.115 39.0816 25.9092 39.0227 25.7098ZM39.0227 25.7098C38.8809 25.2776 38.6262 24.8911 38.285 24.5903C37.9438 24.2895 37.5284 24.0853 37.0819 23.9988C36.6168 23.9226 36.1424 23.9226 35.6773 23.9988C35.3332 24.0658 35.0082 24.2082 34.7256 24.4157C34.443 24.6232 34.2099 24.8908 34.043 25.199C33.7843 25.6577 33.6112 26.1596 33.5322 26.6802H38.8184C39.0738 26.6802 39.1504 26.6802 39.1248 26.3227C39.1159 26.115 39.0816 25.9092 39.0227 25.7098ZM38.8184 0.76001H13.2813C9.89483 0.76001 6.64709 2.10527 4.25252 4.49984C1.85795 6.89441 0.512695 10.1421 0.512695 13.5286V39.0657C0.512695 42.4521 1.85795 45.6999 4.25252 48.0945C6.64709 50.489 9.89483 51.8343 13.2813 51.8343H38.8184C42.2048 51.8343 45.4526 50.489 47.8471 48.0945C50.2417 45.6999 51.587 42.4521 51.587 39.0657V13.5286C51.587 10.1421 50.2417 6.89441 47.8471 4.49984C45.4526 2.10527 42.2048 0.76001 38.8184 0.76001ZM27.914 36.512H23.777C23.7061 36.5228 23.6337 36.5119 23.569 36.481C23.5043 36.45 23.4505 36.4003 23.4144 36.3383C23.3904 36.2976 23.3748 36.2524 23.3684 36.2056C23.1641 35.5671 22.9343 34.9542 22.73 34.3158C22.5257 33.6774 22.2193 32.8602 21.9894 32.1196C21.9894 31.711 21.6574 31.6599 21.2999 31.6599H14.8646C14.5837 31.6599 14.5837 31.6599 14.4815 31.9664C14.3794 32.2728 14.2261 32.8091 14.0729 33.2432L13.6643 34.5712L13.128 36.1289C13.1418 36.1963 13.1418 36.2658 13.128 36.3332C13.128 36.6652 12.7194 36.6142 12.4641 36.6142H9.16978C8.78673 36.6142 8.65904 36.4354 8.81226 36.0779C8.96549 35.7203 9.09317 35.3118 9.22086 34.9542L9.75714 33.3199L10.7531 30.5108C11.034 29.7447 11.2894 28.953 11.5447 28.1614C11.8001 27.3697 12.0299 26.8079 12.2853 26.1184L12.8216 24.5095L13.7665 21.9558L14.5326 19.7086C14.788 18.9935 15.0433 18.2785 15.2732 17.5379C15.309 17.1898 15.309 16.839 15.2732 16.4909C15.2732 15.9546 15.2732 15.9546 15.8094 15.9546H20.4317C20.8403 15.9546 20.8147 15.9546 20.9424 16.3377C21.0701 16.7207 21.4021 17.589 21.6064 18.2019C21.8107 18.8148 21.9894 19.2744 22.1682 19.7852L22.7811 21.4451L23.394 23.2327C23.6493 23.9222 23.9047 24.5862 24.1345 25.2757L24.7985 27.1143C25.0028 27.7272 25.2326 28.3401 25.4625 28.9785C25.6923 29.617 25.7689 29.9234 25.9477 30.3831C26.1264 30.8428 26.3052 31.4046 26.5095 31.9153C26.7138 32.4261 26.8415 32.8857 27.0202 33.3709L27.7608 35.4394L28.0673 36.3332C28.1694 36.3077 28.0928 36.512 27.914 36.512ZM43.2363 28.8509C43.2482 29.0807 43.2482 29.3105 43.2363 29.5404C43.2363 29.7702 42.8533 29.8468 42.6234 29.8468H33.6088C33.7008 30.6844 34.0685 31.4659 34.6558 32.0685C35.72 32.7221 36.9277 33.1057 38.174 33.1858C39.4202 33.2659 40.6672 33.0402 41.8062 32.5282C42.0105 32.5282 42.1127 32.5282 42.1127 32.7325V35.6182C42.1127 36.0779 41.9339 36.1289 41.5509 36.2822L40.6315 36.5631C40.3395 36.6492 40.0404 36.709 39.7377 36.7418C39.0993 36.7418 38.4609 36.9206 37.8225 36.9461C37.184 36.9717 36.9542 36.9461 36.5201 36.9461H36.2647C35.7539 36.9461 35.2177 36.9461 34.7325 36.7674C33.3238 36.4861 32.0382 35.7718 31.0551 34.7244C30.4315 34.0796 29.945 33.3151 29.625 32.4771C29.3667 31.8655 29.1948 31.2209 29.1143 30.5618C29.0776 29.8132 29.0776 29.0632 29.1143 28.3146C29.1526 27.3927 29.3262 26.481 29.625 25.6076C29.8762 24.8808 30.2287 24.193 30.6721 23.5647C31.2539 22.6879 32.0434 21.9686 32.9704 21.4706C33.3705 21.2391 33.7876 21.0433 34.2217 20.8833C34.6932 20.7711 35.1706 20.6858 35.6518 20.6279C36.0859 20.6024 36.5201 20.6024 36.9542 20.6279C37.5943 20.6381 38.2242 20.7232 38.8439 20.8833C39.4058 21.0416 39.942 21.2629 40.4528 21.5472C41.2393 21.9983 41.8915 22.6505 42.3425 23.437C42.5979 23.8967 42.8022 24.3563 43.0065 24.816C43.1154 25.1412 43.2006 25.4731 43.2619 25.8119C43.4901 26.8096 43.5162 27.8429 43.3385 28.8509H43.2363ZM36.9797 24.1265C36.5146 24.0503 36.0403 24.0503 35.5752 24.1265C35.2311 24.1935 34.906 24.3359 34.6235 24.5434C34.3409 24.7509 34.1078 25.0184 33.9408 25.3267C33.6821 25.7854 33.5091 26.2873 33.4301 26.8079H38.8184C39.0738 26.8079 39.1504 26.8079 39.1248 26.4504C39.1037 26.2232 39.0521 25.9999 38.9716 25.7864C38.8457 25.3465 38.6039 24.9484 38.2714 24.634C37.939 24.3195 37.5281 24.1001 37.0819 23.9988L36.9797 24.1265ZM38.9205 25.8375C38.7787 25.4053 38.5241 25.0188 38.1829 24.718C37.8417 24.4172 37.4263 24.213 36.9797 24.1265C36.5146 24.0503 36.0403 24.0503 35.5752 24.1265C35.2311 24.1935 34.906 24.3359 34.6235 24.5434C34.3409 24.7509 34.1078 25.0184 33.9408 25.3267C33.6821 25.7854 33.5091 26.2873 33.4301 26.8079H38.8184C39.0738 26.8079 39.1504 26.8079 39.1248 26.4504C39.1248 26.1984 39.0908 25.9515 39.0227 25.7098L38.9205 25.8375ZM38.9205 25.8375C38.7787 25.4053 38.5241 25.0188 38.1829 24.718C37.8417 24.4172 37.4263 24.213 36.9797 24.1265C36.5146 24.0503 36.0403 24.0503 35.5752 24.1265C35.2311 24.1935 34.906 24.3359 34.6235 24.5434C34.3409 24.7509 34.1078 25.0184 33.9408 25.3267C33.6821 25.7854 33.5091 26.2873 33.4301 26.8079H38.8184C39.0738 26.8079 39.1504 26.8079 39.1248 26.4504C39.1248 26.1984 39.0908 25.9515 39.0227 25.7098L38.9205 25.8375ZM38.9205 25.8375C38.7787 25.4053 38.5241 25.0188 38.1829 24.718C37.8417 24.4172 37.4263 24.213 36.9797 24.1265C36.5146 24.0503 36.0403 24.0503 35.5752 24.1265C35.2311 24.1935 34.906 24.3359 34.6235 24.5434C34.3409 24.7509 34.1078 25.0184 33.9408 25.3267C33.6821 25.7854 33.5091 26.2873 33.4301 26.8079H38.8184C39.0738 26.8079 39.1504 26.8079 39.1248 26.4504C39.1248 26.1984 39.0908 25.9515 39.0227 25.7098L38.9205 25.8375ZM38.9205 25.8375C38.7787 25.4053 38.5241 25.0188 38.1829 24.718C37.8417 24.4172 37.4263 24.213 36.9797 24.1265C36.5146 24.0503 36.0403 24.0503 35.5752 24.1265C35.2311 24.1935 34.906 24.3359 34.6235 24.5434C34.3409 24.7509 34.1078 25.0184 33.9408 25.3267C33.6821 25.7854 33.5091 26.2873 33.4301 26.8079H38.8184C39.0738 26.8079 39.1504 26.8079 39.1248 26.4504C39.1248 26.1984 39.0908 25.9515 39.0227 25.7098L38.9205 25.8375Z" fill="#9969F9"/>
</svg>
