<svg width="52" height="52" viewBox="0 0 52 52" fill="none" xmlns="http://www.w3.org/2000/svg">
<rect x="0.628418" y="0.344055" width="51.0743" height="51.0743" rx="10.2149" fill="#9969F9"/>
<g clip-path="url(#clip0_187_2345)">
<path d="M39.6778 20.3853L28.4774 11.7833C27.7438 11.22 26.5111 11.2226 25.7056 11.7863C24.8899 12.356 24.7959 13.3004 25.5208 13.8959L30.1788 17.6865H15.9567C14.7827 17.687 13.6542 18.4732 13.4315 19.4472C13.2013 20.4389 13.9981 21.2521 15.2188 21.2559H22.4167L9.52125 31.1537C8.30939 32.081 7.91828 33.6247 8.68157 34.6007C9.45561 35.5942 11.1033 35.5962 12.3278 34.6063L19.3389 28.8688C19.3389 28.8688 19.236 29.6428 19.2442 30.1077C19.455 34.0323 22.4471 37.6705 26.1518 39.2818C32.5355 42.1093 41.1543 39.5209 43.5779 32.1521C44.7305 28.2868 43.8469 23.6904 39.6777 20.3854M27.8044 34.0867C22.7626 31.4478 22.7625 24.8145 27.8044 22.1754C32.8463 19.5364 39.1828 22.8531 39.1828 28.1311C39.1828 33.409 32.8463 36.7257 27.8044 34.0867ZM29.3399 31.7119C26.1239 30.0299 26.1239 25.8021 29.3399 24.1202C32.5558 22.4382 36.5974 24.552 36.5974 27.916C36.5974 31.28 32.5557 33.3939 29.3399 31.7119Z" fill="#F8F8F8"/>
</g>
<defs>
<clipPath id="clip0_187_2345">
<rect width="35.752" height="35.752" fill="white" transform="translate(8.29004 8.00519)"/>
</clipPath>
</defs>
</svg>
