<svg width="52" height="52" viewBox="0 0 52 52" fill="none" xmlns="http://www.w3.org/2000/svg">
<rect x="0.280273" y="0.013916" width="51.0743" height="51.0743" rx="10.2149" fill="#9969F9"/>
<path d="M21.0651 20.799C19.4658 20.799 17.9321 20.1637 16.8013 19.0329C15.6704 17.9021 15.0352 16.3683 15.0352 14.7691C15.0352 13.1699 15.6704 11.6361 16.8013 10.5053C17.9321 9.37449 19.4658 8.7392 21.0651 8.7392H27.0941V20.799M21.0651 20.799H27.0941M21.0651 20.799C19.4661 20.799 17.9326 21.4342 16.8019 22.5649C15.6713 23.6955 15.0361 25.229 15.0361 26.828C15.0361 28.427 15.6713 29.9605 16.8019 31.0911C17.9326 32.2218 19.4661 32.857 21.0651 32.857H27.0941V20.799" stroke="#F8F8F8" stroke-width="2.71332"/>
<path d="M39.153 26.8281C39.153 28.4273 38.5177 29.9611 37.3868 31.0919C36.256 32.2227 34.7223 32.858 33.1231 32.858C31.5238 32.858 29.9901 32.2227 28.8593 31.0919C27.7284 29.9611 27.0932 28.4273 27.0932 26.8281C27.0932 25.2289 27.7284 23.6952 28.8593 22.5643C29.9901 21.4335 31.5238 20.7982 33.1231 20.7982C34.7223 20.7982 36.256 21.4335 37.3868 22.5643C38.5177 23.6952 39.153 25.2289 39.153 26.8281ZM21.0642 32.8589H27.0932V38.8879C27.0928 40.0803 26.7389 41.2457 26.0762 42.237C25.4135 43.2282 24.4718 44.0007 23.3701 44.4567C22.2684 44.9127 21.0562 45.0319 19.8868 44.799C18.7175 44.5662 17.6434 43.9919 16.8004 43.1486C15.9574 42.3054 15.3834 41.2311 15.1509 40.0617C14.9184 38.8922 15.0379 37.6801 15.4943 36.5785C15.9506 35.477 16.7234 34.5355 17.7148 33.8731C18.7062 33.2107 19.8718 32.8589 21.0642 32.8589Z" stroke="#F8F8F8" stroke-width="2.71332"/>
<path d="M27.0942 8.73926H33.1232C34.7225 8.73926 36.2562 9.37455 37.387 10.5054C38.5178 11.6362 39.1531 13.1699 39.1531 14.7692C39.1531 16.3684 38.5178 17.9021 37.387 19.0329C36.2562 20.1638 34.7225 20.7991 33.1232 20.7991H27.0942V8.73926Z" stroke="#F8F8F8" stroke-width="2.71332"/>
</svg>
