<svg width="52" height="52" viewBox="0 0 52 52" fill="none" xmlns="http://www.w3.org/2000/svg">
<path d="M21.8738 19.1156C22.7676 22.0268 23.6869 24.9381 24.6063 27.9004H19.1924C20.1117 24.9381 20.98 22.0268 21.8738 19.1156Z" fill="#9969F9"/>
<path d="M38.7022 0.013855H13.1651C9.77862 0.013855 6.53088 1.35911 4.13631 3.75368C1.74174 6.14825 0.396484 9.39599 0.396484 12.7824V38.3196C0.396484 41.706 1.74174 44.9537 4.13631 47.3483C6.53088 49.7429 9.77862 51.0881 13.1651 51.0881H38.7022C42.0886 51.0881 45.3364 49.7429 47.7309 47.3483C50.1255 44.9537 51.4708 41.706 51.4708 38.3196V12.7824C51.4708 9.39599 50.1255 6.14825 47.7309 3.75368C45.3364 1.35911 42.0886 0.013855 38.7022 0.013855ZM32.2924 37.7577H28.3086C28.1497 37.7798 27.9884 37.7386 27.8595 37.6432C27.7306 37.5477 27.6443 37.4054 27.6191 37.247C27.1339 35.8169 26.6231 34.3868 26.1379 32.9312C26.1226 32.84 26.0891 32.7527 26.0394 32.6747C25.9897 32.5966 25.9248 32.5294 25.8485 32.4769C25.7723 32.4245 25.6862 32.388 25.5956 32.3695C25.5049 32.351 25.4114 32.351 25.3207 32.3694H18.5279C18.4335 32.3471 18.3355 32.345 18.2403 32.3632C18.1451 32.3814 18.0548 32.4194 17.9753 32.4748C17.8958 32.5302 17.8288 32.6018 17.7788 32.6849C17.7288 32.7679 17.6969 32.8605 17.6851 32.9568C17.251 34.3868 16.7658 35.7658 16.3317 37.1959C16.3195 37.2862 16.2889 37.3729 16.2418 37.4508C16.1948 37.5287 16.1321 37.5961 16.0579 37.6488C15.9836 37.7015 15.8994 37.7384 15.8103 37.7571C15.7212 37.7759 15.6292 37.7761 15.54 37.7577H12.0414C11.4285 37.7577 11.3775 37.7577 11.5818 37.1193L17.0978 21.2097C17.6085 19.7541 18.1193 18.2984 18.5789 16.8428C18.7052 16.4111 18.7739 15.9646 18.7832 15.5149C18.7832 14.9786 18.9875 14.8509 19.4727 14.8765H24.3503C24.7078 14.8765 24.8866 14.8765 25.0143 15.3617L31.2964 33.0589C31.7816 34.4379 32.2668 35.7914 32.7265 37.1449C32.9308 37.7067 32.9053 37.7577 32.2924 37.7577ZM40.1067 37.3236C40.1067 37.7577 39.928 37.8854 39.5194 37.8854H35.842C35.3313 37.8854 35.2036 37.6811 35.2036 37.2215V21.1841C35.2036 20.6734 35.3568 20.4691 35.8931 20.4946H39.4938C39.9024 20.4946 40.1067 20.4946 40.1067 21.0565C40.0897 26.4703 40.0897 31.8927 40.1067 37.3236ZM37.553 18.6815C37.1871 18.7047 36.8205 18.6489 36.4781 18.5178C36.1356 18.3867 35.8255 18.1834 35.5686 17.9217C35.3118 17.66 35.1143 17.3461 34.9897 17.0013C34.865 16.6565 34.816 16.2889 34.8461 15.9235C34.8493 15.5603 34.925 15.2013 35.0686 14.8677C35.2122 14.5341 35.4208 14.2324 35.6824 13.9804C35.944 13.7283 36.2531 13.5309 36.5919 13.3998C36.9306 13.2687 37.2921 13.2064 37.6552 13.2166C38.0084 13.2154 38.3581 13.2876 38.682 13.4285C39.006 13.5694 39.2972 13.776 39.5372 14.0352C39.7772 14.2945 39.9608 14.6006 40.0764 14.9345C40.192 15.2683 40.2371 15.6224 40.2089 15.9746C40.2298 16.3226 40.1792 16.6712 40.0603 16.9989C39.9414 17.3267 39.7566 17.6266 39.5173 17.8802C39.2781 18.1338 38.9894 18.3357 38.6692 18.4735C38.3489 18.6114 38.0038 18.6821 37.6552 18.6815H37.553Z" fill="#9969F9"/>
<path d="M24.6063 27.9004H19.1924C20.1117 24.9381 20.98 22.0268 21.7461 19.1156C22.7676 22.0268 23.6869 24.9381 24.6063 27.9004Z" fill="#9969F9"/>
</svg>
