<svg width="52" height="52" viewBox="0 0 52 52" fill="none" xmlns="http://www.w3.org/2000/svg">
<rect x="8" y="8" width="35" height="35" fill="#F8F8F8"/>
<path d="M21.8738 19.5315C22.7676 22.4427 23.6869 25.354 24.6063 28.3163H19.1924C20.1117 25.354 20.98 22.4427 21.8738 19.5315Z" fill="#9969F9"/>
<path d="M38.7022 0.429688H13.1651C9.77862 0.429688 6.53088 1.77494 4.13631 4.16951C1.74174 6.56409 0.396484 9.81182 0.396484 13.1983V38.7354C0.396484 42.1218 1.74174 45.3696 4.13631 47.7641C6.53088 50.1587 9.77862 51.504 13.1651 51.504H38.7022C42.0886 51.504 45.3364 50.1587 47.7309 47.7641C50.1255 45.3696 51.4708 42.1218 51.4708 38.7354V13.1983C51.4708 9.81182 50.1255 6.56409 47.7309 4.16951C45.3364 1.77494 42.0886 0.429688 38.7022 0.429688ZM32.2924 38.1736H28.3086C28.1497 38.1956 27.9884 38.1545 27.8595 38.059C27.7306 37.9635 27.6443 37.8213 27.6191 37.6628C27.1339 36.2328 26.6231 34.8027 26.1379 33.3471C26.1226 33.2558 26.0891 33.1685 26.0394 33.0905C25.9897 33.0124 25.9248 32.9452 25.8485 32.8928C25.7723 32.8404 25.6862 32.8038 25.5956 32.7853C25.5049 32.7669 25.4114 32.7668 25.3207 32.7852H18.5279C18.4335 32.763 18.3355 32.7609 18.2403 32.779C18.1451 32.7972 18.0548 32.8352 17.9753 32.8907C17.8958 32.9461 17.8288 33.0176 17.7788 33.1007C17.7288 33.1837 17.6969 33.2764 17.6851 33.3726C17.251 34.8027 16.7658 36.1817 16.3317 37.6118C16.3195 37.702 16.2889 37.7888 16.2418 37.8667C16.1948 37.9446 16.1321 38.012 16.0579 38.0647C15.9836 38.1173 15.8994 38.1542 15.8103 38.1729C15.7212 38.1917 15.6292 38.1919 15.54 38.1736H12.0414C11.4285 38.1736 11.3775 38.1736 11.5818 37.5351L17.0978 21.6255C17.6085 20.1699 18.1193 18.7143 18.5789 17.2587C18.7052 16.8269 18.7739 16.3804 18.7832 15.9307C18.7832 15.3944 18.9875 15.2668 19.4727 15.2923H24.3503C24.7078 15.2923 24.8866 15.2923 25.0143 15.7775L31.2964 33.4747C31.7816 34.8537 32.2668 36.2072 32.7265 37.5607C32.9308 38.1225 32.9053 38.1736 32.2924 38.1736ZM40.1067 37.7394C40.1067 38.1736 39.928 38.3013 39.5194 38.3013H35.842C35.3313 38.3013 35.2036 38.097 35.2036 37.6373V21.6C35.2036 21.0892 35.3568 20.8849 35.8931 20.9105H39.4938C39.9024 20.9105 40.1067 20.9105 40.1067 21.4723C40.0897 26.8862 40.0897 32.3085 40.1067 37.7394ZM37.553 19.0973C37.1871 19.1206 36.8205 19.0647 36.4781 18.9336C36.1356 18.8025 35.8255 18.5992 35.5686 18.3375C35.3118 18.0759 35.1143 17.762 34.9897 17.4172C34.865 17.0724 34.816 16.7047 34.8461 16.3393C34.8493 15.9761 34.925 15.6172 35.0686 15.2835C35.2122 14.9499 35.4208 14.6482 35.6824 14.3962C35.944 14.1441 36.2531 13.9468 36.5919 13.8156C36.9306 13.6845 37.2921 13.6222 37.6552 13.6324C38.0084 13.6313 38.3581 13.7034 38.682 13.8443C39.006 13.9853 39.2972 14.1919 39.5372 14.4511C39.7772 14.7103 39.9608 15.0165 40.0764 15.3503C40.192 15.6841 40.2371 16.0383 40.2089 16.3904C40.2298 16.7384 40.1792 17.087 40.0603 17.4148C39.9414 17.7425 39.7566 18.0424 39.5173 18.296C39.2781 18.5496 38.9894 18.7516 38.6692 18.8894C38.3489 19.0272 38.0038 19.098 37.6552 19.0973H37.553Z" fill="#9969F9"/>
<path d="M24.6063 28.3163H19.1924C20.1117 25.354 20.98 22.4427 21.7461 19.5315C22.7676 22.4427 23.6869 25.354 24.6063 28.3163Z" fill="#9969F9"/>
</svg>
