<svg width="52" height="52" viewBox="0 0 52 52" fill="none" xmlns="http://www.w3.org/2000/svg">
<g clip-path="url(#clip0_368_5131)">
<rect x="8" y="8" width="35" height="35" fill="#F8F8F8"/>
<path d="M26.9776 27.2971C26.854 23.3132 29.6532 20.1599 33.7173 21.2204V33.4842C29.6673 34.4626 26.8069 32.0553 26.9776 27.2971ZM0.512695 0.42981V51.5041H51.587V0.42981H0.512695ZM18.2494 37.2406H13.9406V10.6141H18.2494V37.2406ZM31.7285 37.572C26.811 37.714 22.4623 34.5952 22.5583 27.518C22.6355 21.8305 26.1797 16.7234 33.7173 17.2431V10.6141H38.1366V34.5338C38.1366 34.9395 38.1735 35.52 38.2725 36.0014C36.5757 36.9409 34.3774 37.555 31.7285 37.572Z" fill="#9969F9"/>
</g>
<defs>
<clipPath id="clip0_368_5131">
<rect x="0.512695" y="0.42981" width="51.0743" height="51.0743" rx="11.6741" fill="white"/>
</clipPath>
</defs>
</svg>
