<svg width="52" height="52" viewBox="0 0 52 52" fill="none" xmlns="http://www.w3.org/2000/svg">
<g clip-path="url(#clip0_187_2327)">
<path d="M26.9776 26.8812C26.854 22.8973 29.6532 19.744 33.7173 20.8045V33.0683C29.6673 34.0467 26.8069 31.6394 26.9776 26.8812ZM0.512695 0.013916V51.0882H51.587V0.013916H0.512695ZM18.2494 36.8247H13.9406V10.1982H18.2494V36.8247ZM31.7285 37.1561C26.811 37.2981 22.4623 34.1793 22.5583 27.1021C22.6355 21.4146 26.1797 16.3075 33.7173 16.8272V10.1982H38.1366V34.1179C38.1366 34.5236 38.1735 35.1041 38.2725 35.5856C36.5757 36.525 34.3774 37.1391 31.7285 37.1561Z" fill="#9969F9"/>
</g>
<defs>
<clipPath id="clip0_187_2327">
<rect x="0.512695" y="0.013916" width="51.0743" height="51.0743" rx="11.6741" fill="white"/>
</clipPath>
</defs>
</svg>
