<svg width="52" height="52" viewBox="0 0 52 52" fill="none" xmlns="http://www.w3.org/2000/svg">
<rect x="8" y="8" width="35" height="35" fill="#F8F8F8"/>
<path d="M22.2079 22.0852C22.2466 22.8606 22.0122 23.625 21.5457 24.2455C21.0791 24.8661 20.4098 25.3034 19.6542 25.4816C18.3211 25.8753 16.9308 26.0394 15.5427 25.9668C15.1852 25.9668 15.1597 25.737 15.1597 25.4816V18.9697C15.1597 18.7909 15.3384 18.4845 15.4406 18.4845C16.9014 18.3209 18.3796 18.416 19.8074 18.7654C20.526 18.9623 21.1557 19.3988 21.5923 20.0026C22.0288 20.6063 22.2461 21.3411 22.2079 22.0852Z" fill="#9969F9"/>
<path d="M38.9341 0.429688H13.397C10.0106 0.429688 6.76282 1.77494 4.36824 4.16951C1.97367 6.56409 0.628418 9.81182 0.628418 13.1983V38.7354C0.628418 42.1218 1.97367 45.3696 4.36824 47.7641C6.76282 50.1587 10.0106 51.504 13.397 51.504H38.9341C42.3206 51.504 45.5683 50.1587 47.9629 47.7641C50.3574 45.3696 51.7027 42.1218 51.7027 38.7354V13.1983C51.7027 9.81182 50.3574 6.56409 47.9629 4.16951C45.5683 1.77494 42.3206 0.429688 38.9341 0.429688ZM23.6118 28.5205C22.323 29.3391 20.846 29.8138 19.3216 29.8995H15.8996C15.1846 29.8995 15.1846 29.8995 15.1846 30.589V36.5137C15.1846 37.0244 15.0314 37.1776 14.5206 37.1776H11.1497C10.6645 37.1776 10.5368 36.9989 10.5368 36.5392V15.0114C10.5368 14.5006 10.5368 14.3474 11.1753 14.3474H19.1684C20.6274 14.387 22.0518 14.8002 23.3054 15.5477C24.388 16.1577 25.2894 17.0441 25.9175 18.1164C26.5456 19.1886 26.878 20.4084 26.8806 21.651C27.0283 22.9868 26.8007 24.3372 26.2233 25.5507C25.6458 26.7642 24.7415 27.7926 23.6118 28.5205ZM38.7298 36.9478C36.509 37.813 34.0775 37.9823 31.7582 37.433C31.0619 37.2798 30.3809 37.0755 29.7152 36.8201C29.6126 36.7719 29.5223 36.7008 29.4515 36.6123C29.3806 36.5237 29.3311 36.4201 29.3066 36.3094V32.4533C30.1238 32.7597 30.8899 33.1172 31.6816 33.3726C33.0083 33.7966 34.413 33.9188 35.7931 33.7301C36.0689 33.679 36.3327 33.5939 36.5847 33.4747C36.7344 33.4092 36.8645 33.306 36.9623 33.1751C37.0602 33.0443 37.1224 32.8903 37.143 32.7282C37.1636 32.5662 37.1418 32.4015 37.0798 32.2504C37.0177 32.0992 36.9175 31.9668 36.789 31.8659C36.2048 31.4615 35.58 31.1192 34.9248 30.8444C33.8778 30.3337 32.8052 29.9251 31.8093 29.3377C30.91 28.9002 30.1759 28.1844 29.7158 27.2965C29.2557 26.4086 29.0943 25.396 29.2555 24.4091C29.3854 23.4592 29.78 22.5651 30.3942 21.829C31.0084 21.0928 31.8174 20.5444 32.7286 20.2465C34.371 19.6911 36.1235 19.5422 37.836 19.8124C38.6532 19.8124 39.4449 20.1188 40.2621 20.272C40.6962 20.272 40.8494 20.6296 40.8239 21.0637V24.0515C40.8239 24.6134 40.6962 24.6644 40.1854 24.4601C38.5905 23.7217 36.8274 23.422 35.078 23.5919C34.8302 23.6207 34.5887 23.6897 34.363 23.7962C34.2098 23.8563 34.075 23.9554 33.9718 24.0837C33.8687 24.212 33.8009 24.365 33.7751 24.5275C33.7493 24.6901 33.7664 24.8566 33.8247 25.0105C33.8831 25.1644 33.9806 25.3004 34.1076 25.405C34.8465 25.897 35.6211 26.3226 36.4315 26.6819C37.4019 27.1671 38.4234 27.5501 39.3683 28.0864C40.2256 28.4766 40.9359 29.1305 41.3953 29.9529C41.8547 30.7752 42.0392 31.7229 41.922 32.6576C41.8412 33.5899 41.4954 34.4797 40.9252 35.2219C40.355 35.964 39.5844 36.5274 38.7043 36.8456L38.7298 36.9478Z" fill="#9969F9"/>
</svg>
