<svg width="52" height="52" viewBox="0 0 52 52" fill="none" xmlns="http://www.w3.org/2000/svg">
<path d="M22.2079 21.6694C22.2466 22.4448 22.0122 23.2092 21.5457 23.8297C21.0791 24.4502 20.4098 24.8876 19.6542 25.0658C18.3211 25.4595 16.9308 25.6236 15.5427 25.551C15.1852 25.551 15.1597 25.3212 15.1597 25.0658V18.5538C15.1597 18.3751 15.3384 18.0686 15.4406 18.0686C16.9014 17.905 18.3796 18.0001 19.8074 18.3495C20.526 18.5465 21.1557 18.983 21.5923 19.5867C22.0288 20.1905 22.2461 20.9253 22.2079 21.6694Z" fill="#9969F9"/>
<path d="M38.9341 0.013855H13.397C10.0106 0.013855 6.76282 1.35911 4.36824 3.75368C1.97367 6.14825 0.628418 9.39599 0.628418 12.7824V38.3196C0.628418 41.706 1.97367 44.9537 4.36824 47.3483C6.76282 49.7429 10.0106 51.0881 13.397 51.0881H38.9341C42.3206 51.0881 45.5683 49.7429 47.9629 47.3483C50.3574 44.9537 51.7027 41.706 51.7027 38.3196V12.7824C51.7027 9.39599 50.3574 6.14825 47.9629 3.75368C45.5683 1.35911 42.3206 0.013855 38.9341 0.013855ZM23.6118 28.1047C22.323 28.9233 20.846 29.398 19.3216 29.4837H15.8996C15.1846 29.4837 15.1846 29.4837 15.1846 30.1732V36.0978C15.1846 36.6086 15.0314 36.7618 14.5206 36.7618H11.1497C10.6645 36.7618 10.5368 36.583 10.5368 36.1234V14.5956C10.5368 14.0848 10.5368 13.9316 11.1753 13.9316H19.1684C20.6274 13.9711 22.0518 14.3844 23.3054 15.1318C24.388 15.7419 25.2894 16.6283 25.9175 17.7005C26.5456 18.7728 26.878 19.9925 26.8806 21.2352C27.0283 22.5709 26.8007 23.9214 26.2233 25.1349C25.6458 26.3484 24.7415 27.3768 23.6118 28.1047ZM38.7298 36.532C36.509 37.3972 34.0775 37.5664 31.7582 37.0172C31.0619 36.8639 30.3809 36.6596 29.7152 36.4043C29.6126 36.3561 29.5223 36.285 29.4515 36.1965C29.3806 36.1079 29.3311 36.0043 29.3066 35.8935V32.0374C30.1238 32.3439 30.8899 32.7014 31.6816 32.9568C33.0083 33.3808 34.413 33.5029 35.7931 33.3143C36.0689 33.2632 36.3327 33.1781 36.5847 33.0589C36.7344 32.9934 36.8645 32.8901 36.9623 32.7593C37.0602 32.6285 37.1224 32.4745 37.143 32.3124C37.1636 32.1503 37.1418 31.9857 37.0798 31.8345C37.0177 31.6834 36.9175 31.5509 36.789 31.4501C36.2048 31.0457 35.58 30.7033 34.9248 30.4286C33.8778 29.9178 32.8052 29.5092 31.8093 28.9219C30.91 28.4844 30.1759 27.7686 29.7158 26.8807C29.2557 25.9928 29.0943 24.9802 29.2555 23.9932C29.3854 23.0434 29.78 22.1492 30.3942 21.4131C31.0084 20.677 31.8174 20.1286 32.7286 19.8307C34.371 19.2753 36.1235 19.1263 37.836 19.3965C38.6532 19.3965 39.4449 19.703 40.2621 19.8562C40.6962 19.8562 40.8494 20.2137 40.8239 20.6479V23.6357C40.8239 24.1975 40.6962 24.2486 40.1854 24.0443C38.5905 23.3059 36.8274 23.0061 35.078 23.176C34.8302 23.2049 34.5887 23.2739 34.363 23.3803C34.2098 23.4405 34.075 23.5396 33.9718 23.6679C33.8687 23.7962 33.8009 23.9492 33.7751 24.1117C33.7493 24.2743 33.7664 24.4407 33.8247 24.5946C33.8831 24.7485 33.9806 24.8845 34.1076 24.9892C34.8465 25.4812 35.6211 25.9068 36.4315 26.266C37.4019 26.7512 38.4234 27.1343 39.3683 27.6706C40.2256 28.0607 40.9359 28.7147 41.3953 29.5371C41.8547 30.3594 42.0392 31.3071 41.922 32.2417C41.8412 33.1741 41.4954 34.0639 40.9252 34.806C40.355 35.5481 39.5844 36.1116 38.7043 36.4298L38.7298 36.532Z" fill="#9969F9"/>
</svg>
